PangeaPersian.glyphspackage
{
glyphname = exclam;
layers = (
{
background = {
shapes = (
{
closed = 1;
nodes = (
(128,213,l),
(138,351,l),
(138,700,l),
(72,700,l),
(72,351,l),
(82,213,l)
);
},
{
closed = 1;
nodes = (
(133,-9,o),
(155,13,o),
(155,42,cs),
(155,70,o),
(133,92,o),
(104,92,cs),
(76,92,o),
(55,70,o),
(55,42,cs),
(55,13,o),
(76,-9,o),
(104,-9,cs)
);
}
);
};
layerId = "9CA0F1F1-C419-4983-8E88-5CF3F967428B";
shapes = (
{
closed = 1;
nodes = (
(128,213,l),
(138,351,l),
(138,700,l),
(72,700,l),
(72,351,l),
(82,213,l)
);
},
{
closed = 1;
nodes = (
(133,-9,o),
(155,13,o),
(155,42,cs),
(155,70,o),
(133,92,o),
(104,92,cs),
(76,92,o),
(55,70,o),
(55,42,cs),
(55,13,o),
(76,-9,o),
(104,-9,cs)
);
}
);
width = 210;
},
{
background = {
shapes = (
{
closed = 1;
nodes = (
(188,257,l),
(208,389,l),
(208,700,l),
(58,700,l),
(58,389,l),
(78,257,l)
);
},
{
closed = 1;
nodes = (
(189,-13,o),
(228,28,o),
(228,85,cs),
(228,142,o),
(189,182,o),
(133,182,cs),
(76,182,o),
(37,142,o),
(37,85,cs),
(37,28,o),
(76,-13,o),
(133,-13,cs)
);
}
);
};
hints = (
{
horizontal = 1;
options = 4;
origin = (0,3);
type = TTSnap;
},
{
horizontal = 1;
options = 4;
origin = (1,11);
stem = -1;
target = (1,5);
type = TTStem;
},
{
horizontal = 1;
options = 4;
origin = (0,3);
other1 = (0,5);
target = (1,5);
type = TTInterpolate;
}
);
layerId = "5500A485-9BC9-4FA7-853B-8075021C5598";
shapes = (
{
closed = 1;
nodes = (
(188,257,l),
(208,389,l),
(208,700,l),
(58,700,l),
(58,389,l),
(78,257,l)
);
},
{
closed = 1;
nodes = (
(189,-13,o),
(228,28,o),
(228,85,cs),
(228,142,o),
(189,182,o),
(133,182,cs),
(76,182,o),
(37,142,o),
(37,85,cs),
(37,28,o),
(76,-13,o),
(133,-13,cs)
);
}
);
width = 266;
},
{
associatedMasterId = "9CA0F1F1-C419-4983-8E88-5CF3F967428B";
background = {
shapes = (
{
closed = 1;
nodes = (
(111,213,l),
(156,351,l),
(243,700,l),
(177,700,l),
(90,351,l),
(67,213,l)
);
},
{
closed = 1;
nodes = (
(84,-9,o),
(106,13,o),
(106,42,cs),
(106,70,o),
(84,92,o),
(55,92,cs),
(27,92,o),
(6,70,o),
(6,42,cs),
(6,13,o),
(27,-9,o),
(55,-9,cs)
);
}
);
};
layerId = "B8B1B9F7-57AD-40F6-8824-2C22876E3A5C";
name = "new Layer";
shapes = (
{
closed = 1;
nodes = (
(111,213,l),
(156,351,l),
(243,700,l),
(177,700,l),
(90,351,l),
(67,213,l)
);
},
{
closed = 1;
nodes = (
(84,-9,o),
(106,13,o),
(106,42,cs),
(106,70,o),
(84,92,o),
(55,92,cs),
(27,92,o),
(6,70,o),
(6,42,cs),
(6,13,o),
(27,-9,o),
(55,-9,cs)
);
}
);
width = 209;
},
{
associatedMasterId = "9CA0F1F1-C419-4983-8E88-5CF3F967428B";
background = {
guides = (
{
angle = 128;
pos = (237,700);
}
);
shapes = (
{
closed = 1;
nodes = (
(181,257,l),
(234,389,l),
(312,700,l),
(162,700,l),
(84,389,l),
(72,257,l)
);
},
{
closed = 1;
nodes = (
(150,-13,o),
(189,28,o),
(189,85,cs),
(189,142,o),
(150,182,o),
(94,182,cs),
(37,182,o),
(-2,142,o),
(-2,85,cs),
(-2,28,o),
(37,-13,o),
(94,-13,cs)
);
}
);
};
guides = (
{
angle = 76;
pos = (237,700);
}
);
layerId = "2275FDE9-41F5-43D3-856B-3453FC30E713";
name = "new Layer";
shapes = (
{
closed = 1;
nodes = (
(181,257,l),
(234,389,l),
(312,700,l),
(162,700,l),
(84,389,l),
(72,257,l)
);
},
{
closed = 1;
nodes = (
(150,-13,o),
(189,28,o),
(189,85,cs),
(189,142,o),
(150,182,o),
(94,182,cs),
(37,182,o),
(-2,142,o),
(-2,85,cs),
(-2,28,o),
(37,-13,o),
(94,-13,cs)
);
}
);
width = 271;
},
{
background = {
shapes = (
{
closed = 1;
nodes = (
(148,213,l),
(158,351,l),
(158,700,l),
(92,700,l),
(92,351,l),
(102,213,l)
);
},
{
closed = 1;
nodes = (
(153,-9,o),
(175,13,o),
(175,42,cs),
(175,70,o),
(153,92,o),
(124,92,cs),
(96,92,o),
(75,70,o),
(75,42,cs),
(75,13,o),
(96,-9,o),
(124,-9,cs)
);
}
);
};
layerId = "CAEAD647-A533-4D72-9ACE-F5DE50C4DBD4";
shapes = (
{
closed = 1;
nodes = (
(148,213,l),
(158,351,l),
(158,700,l),
(92,700,l),
(92,351,l),
(102,213,l)
);
},
{
closed = 1;
nodes = (
(153,-9,o),
(175,13,o),
(175,42,cs),
(175,70,o),
(153,92,o),
(124,92,cs),
(96,92,o),
(75,70,o),
(75,42,cs),
(75,13,o),
(96,-9,o),
(124,-9,cs)
);
}
);
width = 250;
},
{
associatedMasterId = "CAEAD647-A533-4D72-9ACE-F5DE50C4DBD4";
background = {
shapes = (
{
closed = 1;
nodes = (
(111,213,l),
(156,351,l),
(243,700,l),
(177,700,l),
(90,351,l),
(67,213,l)
);
},
{
closed = 1;
nodes = (
(84,-9,o),
(106,13,o),
(106,42,cs),
(106,70,o),
(84,92,o),
(55,92,cs),
(27,92,o),
(6,70,o),
(6,42,cs),
(6,13,o),
(27,-9,o),
(55,-9,cs)
);
}
);
};
layerId = "50211D22-4E88-4198-B62E-EF8EEA9BED3C";
name = "new Layer";
shapes = (
{
closed = 1;
nodes = (
(111,213,l),
(156,351,l),
(243,700,l),
(177,700,l),
(90,351,l),
(67,213,l)
);
},
{
closed = 1;
nodes = (
(84,-9,o),
(106,13,o),
(106,42,cs),
(106,70,o),
(84,92,o),
(55,92,cs),
(27,92,o),
(6,70,o),
(6,42,cs),
(6,13,o),
(27,-9,o),
(55,-9,cs)
);
}
);
width = 209;
},
{
associatedMasterId = "CAEAD647-A533-4D72-9ACE-F5DE50C4DBD4";
background = {
guides = (
{
angle = 128;
pos = (237,700);
}
);
shapes = (
{
closed = 1;
nodes = (
(181,257,l),
(234,389,l),
(312,700,l),
(162,700,l),
(84,389,l),
(72,257,l)
);
},
{
closed = 1;
nodes = (
(150,-13,o),
(189,28,o),
(189,85,cs),
(189,142,o),
(150,182,o),
(94,182,cs),
(37,182,o),
(-2,142,o),
(-2,85,cs),
(-2,28,o),
(37,-13,o),
(94,-13,cs)
);
}
);
};
guides = (
{
angle = 76;
pos = (237,700);
}
);
layerId = "53CDB59F-6AC5-46E4-A804-6EB0380C49E3";
name = "new Layer";
shapes = (
{
closed = 1;
nodes = (
(181,257,l),
(234,389,l),
(312,700,l),
(162,700,l),
(84,389,l),
(72,257,l)
);
},
{
closed = 1;
nodes = (
(150,-13,o),
(189,28,o),
(189,85,cs),
(189,142,o),
(150,182,o),
(94,182,cs),
(37,182,o),
(-2,142,o),
(-2,85,cs),
(-2,28,o),
(37,-13,o),
(94,-13,cs)
);
}
);
width = 271;
},
{
background = {
shapes = (
{
closed = 1;
nodes = (
(208,257,l),
(228,389,l),
(228,700,l),
(78,700,l),
(78,389,l),
(98,257,l)
);
},
{
closed = 1;
nodes = (
(209,-13,o),
(248,28,o),
(248,85,cs),
(248,142,o),
(209,182,o),
(153,182,cs),
(96,182,o),
(57,142,o),
(57,85,cs),
(57,28,o),
(96,-13,o),
(153,-13,cs)
);
}
);
};
hints = (
{
horizontal = 1;
options = 4;
origin = (0,3);
type = TTSnap;
},
{
horizontal = 1;
options = 4;
origin = (1,11);
stem = -1;
target = (1,5);
type = TTStem;
},
{
horizontal = 1;
options = 4;
origin = (0,3);
other1 = (0,5);
target = (1,5);
type = TTInterpolate;
}
);
layerId = "474EAD97-6F36-4C8E-8A0A-83C4F7DF9055";
shapes = (
{
closed = 1;
nodes = (
(208,257,l),
(228,389,l),
(228,700,l),
(78,700,l),
(78,389,l),
(98,257,l)
);
},
{
closed = 1;
nodes = (
(209,-13,o),
(248,28,o),
(248,85,cs),
(248,142,o),
(209,182,o),
(153,182,cs),
(96,182,o),
(57,142,o),
(57,85,cs),
(57,28,o),
(96,-13,o),
(153,-13,cs)
);
}
);
width = 306;
}
);
unicode = 33;
}
{
color = 6;
glyphname = quotedbl;
kernLeft = quotesingle;
kernRight = quotesingle;
layers = (
{
background = {
shapes = (
{
closed = 1;
nodes = (
(50,545,l),
(57,464,l),
(106,464,l),
(113,545,l),
(113,700,l),
(50,700,l)
);
},
{
closed = 1;
nodes = (
(210,545,l),
(217,464,l),
(266,464,l),
(273,545,l),
(273,700,l),
(210,700,l)
);
}
);
};
layerId = "9CA0F1F1-C419-4983-8E88-5CF3F967428B";
shapes = (
{
alignment = -1;
ref = quotesingle;
},
{
alignment = -1;
pos = (160,0);
ref = quotesingle;
}
);
width = 323;
},
{
background = {
hints = (
{
horizontal = 1;
options = 4;
origin = (0,5);
stem = -1;
target = (0,1);
type = TTStem;
},
{
horizontal = 1;
options = 4;
origin = (1,5);
stem = -1;
target = (1,1);
type = TTStem;
}
);
shapes = (
{
closed = 1;
nodes = (
(10,524,l),
(29,405,l),
(137,405,l),
(156,524,l),
(156,700,l),
(10,700,l)
);
},
{
closed = 1;
nodes = (
(233,524,l),
(252,405,l),
(360,405,l),
(379,524,l),
(379,700,l),
(233,700,l)
);
}
);
};
layerId = "5500A485-9BC9-4FA7-853B-8075021C5598";
shapes = (
{
alignment = -1;
pos = (-31,0);
ref = quotesingle;
},
{
alignment = -1;
pos = (192,0);
ref = quotesingle;
}
);
width = 451;
},
{
associatedMasterId = "9CA0F1F1-C419-4983-8E88-5CF3F967428B";
background = {
shapes = (
{
closed = 1;
nodes = (
(156,464,l),
(183,545,l),
(222,700,l),
(158,700,l),
(119,545,l),
(106,464,l)
);
},
{
closed = 1;
nodes = (
(318,464,l),
(345,545,l),
(384,700,l),
(320,700,l),
(281,545,l),
(268,464,l)
);
}
);
};
layerId = "B8B1B9F7-57AD-40F6-8824-2C22876E3A5C";
name = "new Layer";
shapes = (
{
alignment = -1;
ref = quotesingle;
},
{
alignment = -1;
pos = (162,0);
ref = quotesingle;
}
);
width = 324;
},
{
associatedMasterId = "9CA0F1F1-C419-4983-8E88-5CF3F967428B";
background = {
shapes = (
{
closed = 1;
nodes = (
(203,405,l),
(252,524,l),
(296,700,l),
(147,700,l),
(103,524,l),
(92,405,l)
);
},
{
closed = 1;
nodes = (
(428,405,l),
(477,524,l),
(521,700,l),
(372,700,l),
(328,524,l),
(317,405,l)
);
}
);
};
layerId = "2275FDE9-41F5-43D3-856B-3453FC30E713";
name = "new Layer";
shapes = (
{
alignment = -1;
ref = quotesingle;
},
{
alignment = -1;
pos = (225,0);
ref = quotesingle;
}
);
width = 456;
},
{
background = {
shapes = (
{
closed = 1;
nodes = (
(70,545,l),
(77,464,l),
(126,464,l),
(133,545,l),
(133,700,l),
(70,700,l)
);
},
{
closed = 1;
nodes = (
(230,545,l),
(237,464,l),
(286,464,l),
(293,545,l),
(293,700,l),
(230,700,l)
);
}
);
};
layerId = "CAEAD647-A533-4D72-9ACE-F5DE50C4DBD4";
shapes = (
{
alignment = -1;
pos = (20,0);
ref = quotesingle;
},
{
alignment = -1;
pos = (180,0);
ref = quotesingle;
}
);
width = 363;
},
{
associatedMasterId = "CAEAD647-A533-4D72-9ACE-F5DE50C4DBD4";
background = {
shapes = (
{
closed = 1;
nodes = (
(156,464,l),
(183,545,l),
(222,700,l),
(158,700,l),
(119,545,l),
(106,464,l)
);
},
{
closed = 1;
nodes = (
(318,464,l),
(345,545,l),
(384,700,l),
(320,700,l),
(281,545,l),
(268,464,l)
);
}
);
};
layerId = "2E08E7F8-B86D-47D2-86EC-C2977A0A86A6";
name = "new Layer";
shapes = (
{
alignment = -1;
ref = quotesingle;
},
{
alignment = -1;
pos = (162,0);
ref = quotesingle;
}
);
width = 324;
},
{
associatedMasterId = "CAEAD647-A533-4D72-9ACE-F5DE50C4DBD4";
background = {
shapes = (
{
closed = 1;
nodes = (
(203,405,l),
(252,524,l),
(296,700,l),
(147,700,l),
(103,524,l),
(92,405,l)
);
},
{
closed = 1;
nodes = (
(428,405,l),
(477,524,l),
(521,700,l),
(372,700,l),
(328,524,l),
(317,405,l)
);
}
);
};
layerId = "1552D014-E64D-4F75-B8E2-98035D6613E0";
name = "new Layer";
shapes = (
{
alignment = -1;
ref = quotesingle;
},
{
alignment = -1;
pos = (225,0);
ref = quotesingle;
}
);
width = 456;
},
{
background = {
hints = (
{
horizontal = 1;
options = 4;
origin = (0,5);
stem = -1;
target = (0,1);
type = TTStem;
},
{
horizontal = 1;
options = 4;
origin = (1,5);
stem = -1;
target = (1,1);
type = TTStem;
}
);
shapes = (
{
closed = 1;
nodes = (
(30,524,l),
(49,405,l),
(157,405,l),
(176,524,l),
(176,700,l),
(30,700,l)
);
},
{
closed = 1;
nodes = (
(253,524,l),
(272,405,l),
(380,405,l),
(399,524,l),
(399,700,l),
(253,700,l)
);
}
);
};
layerId = "474EAD97-6F36-4C8E-8A0A-83C4F7DF9055";
shapes = (
{
alignment = -1;
pos = (-11,0);
ref = quotesingle;
},
{
alignment = -1;
pos = (212,0);
ref = quotesingle;
}
);
width = 491;
}
);
unicode = 34;
}
{
glyphname = numbersign;
layers = (
{
background = {
shapes = (
{
closed = 1;
nodes = (
(175,700,l),
(104,0,l),
(165,0,l),
(236,700,l)
);
},
{
closed = 1;
nodes = (
(55,458,l),
(578,458,l),
(578,514,l),
(55,514,l)
);
},
{
closed = 1;
nodes = (
(440,700,l),
(369,0,l),
(431,0,l),
(501,700,l)
);
},
{
closed = 1;
nodes = (
(28,190,l),
(551,190,l),
(551,246,l),
(28,246,l)
);
}
);
};
layerId = "9CA0F1F1-C419-4983-8E88-5CF3F967428B";
shapes = (
{
closed = 1;
nodes = (
(175,700,l),
(104,0,l),
(165,0,l),
(236,700,l)
);
},
{
closed = 1;
nodes = (
(55,458,l),
(578,458,l),
(578,514,l),
(55,514,l)
);
},
{
closed = 1;
nodes = (
(440,700,l),
(369,0,l),
(431,0,l),
(501,700,l)
);
},
{
closed = 1;
nodes = (
(28,190,l),
(551,190,l),
(551,246,l),
(28,246,l)
);
}
);
width = 606;
},
{
background = {
shapes = (
{
closed = 1;
nodes = (
(163,700,l),
(92,0,l),
(225,0,l),
(296,700,l)
);
},
{
closed = 1;
nodes = (
(57,423,l),
(626,423,l),
(626,543,l),
(57,543,l)
);
},
{
closed = 1;
nodes = (
(430,700,l),
(360,0,l),
(493,0,l),
(564,700,l)
);
},
{
closed = 1;
nodes = (
(30,160,l),
(599,160,l),
(599,280,l),
(30,280,l)
);
}
);
};
hints = (
{
horizontal = 1;
options = 4;
origin = (0,3);
target = (2,0);
type = TTShift;
},
{
horizontal = 1;
options = 4;
origin = (0,2);
target = (2,1);
type = TTShift;
},
{
horizontal = 1;
origin = (0,2);
other1 = (3,0);
target = (0,3);
type = TTInterpolate;
},
{
horizontal = 1;
origin = (3,0);
target = (3,3);
type = TTStem;
},
{
horizontal = 1;
options = 4;
origin = (0,3,3,1);
target = (3,1);
type = TTShift;
},
{
horizontal = 1;
options = 4;
origin = (3,0);
target = (3,1);
type = TTShift;
},
{
horizontal = 1;
options = 4;
origin = (3,3);
target = (0,3,3,3);
type = TTShift;
},
{
horizontal = 1;
options = 4;
origin = (3,3);
target = (3,2);
type = TTShift;
},
{
horizontal = 1;
origin = (3,3);
other1 = (1,0);
target = (0,3);
type = TTInterpolate;
},
{
horizontal = 1;
origin = (1,0);
target = (1,3);
type = TTStem;
},
{
horizontal = 1;
options = 4;
origin = (1,0);
target = (0,3,1,1);
type = TTShift;
},
{
horizontal = 1;
options = 4;
origin = (1,0);
target = (1,1);
type = TTShift;
},
{
horizontal = 1;
options = 4;
origin = (1,3);
target = (0,3,1,3);
type = TTShift;
},
{
horizontal = 1;
options = 4;
origin = (1,3);
target = (1,2);
type = TTShift;
}
);
layerId = "5500A485-9BC9-4FA7-853B-8075021C5598";
shapes = (
{
closed = 1;
nodes = (
(163,700,l),
(92,0,l),
(225,0,l),
(296,700,l)
);
},
{
closed = 1;
nodes = (
(57,423,l),
(626,423,l),
(626,543,l),
(57,543,l)
);
},
{
closed = 1;
nodes = (
(430,700,l),
(360,0,l),
(493,0,l),
(564,700,l)
);
},
{
closed = 1;
nodes = (
(30,160,l),
(599,160,l),
(599,280,l),
(30,280,l)
);
}
);
width = 656;
},
{
associatedMasterId = "9CA0F1F1-C419-4983-8E88-5CF3F967428B";
background = {
guides = (
{
angle = 202.2411;
pos = (119,514);
},
{
angle = 202.2411;
pos = (634,514);
}
);
shapes = (
{
closed = 1;
nodes = (
(272,700,l),
(37,0,l),
(101,0,l),
(336,700,l)
);
},
{
closed = 1;
nodes = (
(96,458,l),
(611,458,l),
(625,514,l),
(110,514,l)
);
},
{
closed = 1;
nodes = (
(532,700,l),
(297,0,l),
(362,0,l),
(595,700,l)
);
},
{
closed = 1;
nodes = (
(14,190,l),
(530,190,l),
(544,246,l),
(28,246,l)
);
}
);
};
guides = (
{
angle = 251.4424;
pos = (119,514);
},
{
angle = 251.4424;
pos = (634,514);
}
);
layerId = "B8B1B9F7-57AD-40F6-8824-2C22876E3A5C";
name = "new Layer";
shapes = (
{
closed = 1;
nodes = (
(272,700,l),
(37,0,l),
(101,0,l),
(336,700,l)
);
},
{
closed = 1;
nodes = (
(96,458,l),
(611,458,l),
(625,514,l),
(110,514,l)
);
},
{
closed = 1;
nodes = (
(532,700,l),
(297,0,l),
(362,0,l),
(595,700,l)
);
},
{
closed = 1;
nodes = (
(14,190,l),
(530,190,l),
(544,246,l),
(28,246,l)
);
}
);
width = 591;
},
{
associatedMasterId = "9CA0F1F1-C419-4983-8E88-5CF3F967428B";
background = {
shapes = (
{
closed = 1;
nodes = (
(266,700,l),
(21,0,l),
(158,0,l),
(403,700,l)
);
},
{
closed = 1;
nodes = (
(86,423,l),
(652,423,l),
(682,543,l),
(116,543,l)
);
},
{
closed = 1;
nodes = (
(529,700,l),
(285,0,l),
(421,0,l),
(665,700,l)
);
},
{
closed = 1;
nodes = (
(8,160,l),
(569,160,l),
(599,280,l),
(38,280,l)
);
}
);
};
layerId = "2275FDE9-41F5-43D3-856B-3453FC30E713";
name = "new Layer";
shapes = (
{
closed = 1;
nodes = (
(266,700,l),
(21,0,l),
(158,0,l),
(403,700,l)
);
},
{
closed = 1;
nodes = (
(86,423,l),
(652,423,l),
(682,543,l),
(116,543,l)
);
},
{
closed = 1;
nodes = (
(529,700,l),
(285,0,l),
(421,0,l),
(665,700,l)
);
},
{
closed = 1;
nodes = (
(8,160,l),
(569,160,l),
(599,280,l),
(38,280,l)
);
}
);
width = 647;
},
{
background = {
shapes = (
{
closed = 1;
nodes = (
(195,700,l),
(124,0,l),
(185,0,l),
(256,700,l)
);
},
{
closed = 1;
nodes = (
(75,458,l),
(598,458,l),
(598,514,l),
(75,514,l)
);
},
{
closed = 1;
nodes = (
(460,700,l),
(389,0,l),
(451,0,l),
(521,700,l)
);
},
{
closed = 1;
nodes = (
(48,190,l),
(571,190,l),
(571,246,l),
(48,246,l)
);
}
);
};
layerId = "CAEAD647-A533-4D72-9ACE-F5DE50C4DBD4";
shapes = (
{
closed = 1;
nodes = (
(195,700,l),
(124,0,l),
(185,0,l),
(256,700,l)
);
},
{
closed = 1;
nodes = (
(75,458,l),
(598,458,l),
(598,514,l),
(75,514,l)
);
},
{
closed = 1;
nodes = (
(460,700,l),
(389,0,l),
(451,0,l),
(521,700,l)
);
},
{
closed = 1;
nodes = (
(48,190,l),
(571,190,l),
(571,246,l),
(48,246,l)
);
}
);
width = 646;
},
{
associatedMasterId = "CAEAD647-A533-4D72-9ACE-F5DE50C4DBD4";
background = {
guides = (
{
angle = 202.2411;
pos = (119,514);
},
{
angle = 202.2411;
pos = (634,514);
}
);
shapes = (
{
closed = 1;
nodes = (
(272,700,l),
(37,0,l),
(101,0,l),
(336,700,l)
);
},
{
closed = 1;
nodes = (
(96,458,l),
(611,458,l),
(625,514,l),
(110,514,l)
);
},
{
closed = 1;
nodes = (
(532,700,l),
(297,0,l),
(362,0,l),
(595,700,l)
);
},
{
closed = 1;
nodes = (
(14,190,l),
(530,190,l),
(544,246,l),
(28,246,l)
);
}
);
};
guides = (
{
angle = 251.4424;
pos = (119,514);
},
{
angle = 251.4424;
pos = (634,514);
}
);
layerId = "FA96A38C-1EE4-4B76-8E4E-0BAFFC5BF514";
name = "new Layer";
shapes = (
{
closed = 1;
nodes = (
(272,700,l),
(37,0,l),
(101,0,l),
(336,700,l)
);
},
{
closed = 1;
nodes = (
(96,458,l),
(611,458,l),
(625,514,l),
(110,514,l)
);
},
{
closed = 1;
nodes = (
(532,700,l),
(297,0,l),
(362,0,l),
(595,700,l)
);
},
{
closed = 1;
nodes = (
(14,190,l),
(530,190,l),
(544,246,l),
(28,246,l)
);
}
);
width = 591;
},
{
associatedMasterId = "CAEAD647-A533-4D72-9ACE-F5DE50C4DBD4";
background = {
shapes = (
{
closed = 1;
nodes = (
(266,700,l),
(21,0,l),
(158,0,l),
(403,700,l)
);
},
{
closed = 1;
nodes = (
(86,423,l),
(652,423,l),
(682,543,l),
(116,543,l)
);
},
{
closed = 1;
nodes = (
(529,700,l),
(285,0,l),
(421,0,l),
(665,700,l)
);
},
{
closed = 1;
nodes = (
(8,160,l),
(569,160,l),
(599,280,l),
(38,280,l)
);
}
);
};
layerId = "FE3ACF59-D784-4A28-A911-1BF907F3E378";
name = "new Layer";
shapes = (
{
closed = 1;
nodes = (
(266,700,l),
(21,0,l),
(158,0,l),
(403,700,l)
);
},
{
closed = 1;
nodes = (
(86,423,l),
(652,423,l),
(682,543,l),
(116,543,l)
);
},
{
closed = 1;
nodes = (
(529,700,l),
(285,0,l),
(421,0,l),
(665,700,l)
);
},
{
closed = 1;
nodes = (
(8,160,l),
(569,160,l),
(599,280,l),
(38,280,l)
);
}
);
width = 647;
},
{
background = {
shapes = (
{
closed = 1;
nodes = (
(183,700,l),
(112,0,l),
(245,0,l),
(316,700,l)
);
},
{
closed = 1;
nodes = (
(77,423,l),
(646,423,l),
(646,543,l),
(77,543,l)
);
},
{
closed = 1;
nodes = (
(450,700,l),
(380,0,l),
(513,0,l),
(584,700,l)
);
},
{
closed = 1;
nodes = (
(50,160,l),
(619,160,l),
(619,280,l),
(50,280,l)
);
}
);
};
hints = (
{
horizontal = 1;
options = 4;
origin = (0,3);
target = (2,0);
type = TTShift;
},
{
horizontal = 1;
options = 4;
origin = (0,2);
target = (2,1);
type = TTShift;
},
{
horizontal = 1;
origin = (0,2);
other1 = (3,0);
target = (0,3);
type = TTInterpolate;
},
{
horizontal = 1;
origin = (3,0);
target = (3,3);
type = TTStem;
},
{
horizontal = 1;
options = 4;
origin = (0,3,3,1);
target = (3,1);
type = TTShift;
},
{
horizontal = 1;
options = 4;
origin = (3,0);
target = (3,1);
type = TTShift;
},
{
horizontal = 1;
options = 4;
origin = (3,3);
target = (0,3,3,3);
type = TTShift;
},
{
horizontal = 1;
options = 4;
origin = (3,3);
target = (3,2);
type = TTShift;
},
{
horizontal = 1;
origin = (3,3);
other1 = (1,0);
target = (0,3);
type = TTInterpolate;
},
{
horizontal = 1;
origin = (1,0);
target = (1,3);
type = TTStem;
},
{
horizontal = 1;
options = 4;
origin = (1,0);
target = (0,3,1,1);
type = TTShift;
},
{
horizontal = 1;
options = 4;
origin = (1,0);
target = (1,1);
type = TTShift;
},
{
horizontal = 1;
options = 4;
origin = (1,3);
target = (0,3,1,3);
type = TTShift;
},
{
horizontal = 1;
options = 4;
origin = (1,3);
target = (1,2);
type = TTShift;
}
);
layerId = "474EAD97-6F36-4C8E-8A0A-83C4F7DF9055";
shapes = (
{
closed = 1;
nodes = (
(183,700,l),
(112,0,l),
(245,0,l),
(316,700,l)
);
},
{
closed = 1;
nodes = (
(77,423,l),
(646,423,l),
(646,543,l),
(77,543,l)
);
},
{
closed = 1;
nodes = (
(450,700,l),
(380,0,l),
(513,0,l),
(584,700,l)
);
},
{
closed = 1;
nodes = (
(50,160,l),
(619,160,l),
(619,280,l),
(50,280,l)
);
}
);
width = 696;
}
);
unicode = 35;
}
{
glyphname = dollar;
layers = (
{
anchors = (
{
name = bottom;
pos = (338,0);
},
{
name = top;
pos = (326,700);
}
);
background = {
anchors = (
{
name = bottom;
pos = (338,0);
},
{
name = top;
pos = (326,700);
}
);
shapes = (
{
closed = 1;
nodes = (
(297,16,l),
(297,-95,l),
(355,-95,l),
(355,16,l)
);
},
{
closed = 1;
nodes = (
(354,681,l),
(354,792,l),
(297,792,l),
(297,681,l)
);
},
{
closed = 1;
nodes = (
(355,16,l),
(355,681,l),
(297,681,l),
(297,16,l)
);
},
{
closed = 1;
nodes = (
(494,-9,o),
(594,67,o),
(594,183,cs),
(594,271,o),
(527,337,o),
(388,375,cs),
(289,402,ls),
(198,427,o),
(155,458,o),
(155,526,cs),
(155,597,o),
(225,644,o),
(325,644,cs),
(422,644,o),
(497,598,o),
(520,490,c),
(585,506,l),
(556,639,o),
(464,709,o),
(323,709,cs),
(181,709,o),
(84,631,o),
(84,519,cs),
(84,431,o),
(146,367,o),
(257,338,cs),
(357,312,ls),
(480,280,o),
(524,238,o),
(524,176,cs),
(524,102,o),
(451,56,o),
(338,56,cs),
(219,56,o),
(142,118,o),
(120,227,c),
(51,211,l),
(79,76,o),
(173,-9,o),
(338,-9,cs)
);
}
);
};
layerId = "9CA0F1F1-C419-4983-8E88-5CF3F967428B";
shapes = (
{
closed = 1;
nodes = (
(297,16,l),
(297,-91,l),
(355,-91,l),
(355,16,l)
);
},
{
closed = 1;
nodes = (
(354,681,l),
(354,786,l),
(297,786,l),
(297,681,l)
);
},
{
closed = 1;
nodes = (
(355,16,l,{
name = "🔥";
}),
(355,681,l),
(297,681,l,{
name = "🔥";
}),
(297,16,l,{
name = "🔥";
})
);
},
{
closed = 1;
nodes = (
(494,-9,o),
(594,67,o),
(594,183,cs),
(594,271,o),
(527,337,o),
(388,375,cs),
(289,402,ls),
(198,427,o),
(155,458,o),
(155,526,cs),
(155,597,o),
(225,644,o),
(325,644,cs),
(422,644,o),
(497,598,o),
(520,490,c),
(585,506,l),
(556,639,o),
(464,709,o),
(323,709,cs),
(181,709,o),
(84,631,o),
(84,519,cs),
(84,431,o),
(146,367,o),
(257,338,cs),
(357,312,ls),
(480,280,o),
(524,238,o),
(524,176,cs),
(524,102,o),
(451,56,o),
(338,56,cs),
(217,56,o),
(141,117,o),
(117,227,c),
(52,211,l),
(79,81,o),
(174,-9,o),
(338,-9,cs)
);
}
);
width = 650;
},
{
anchors = (
{
name = bottom;
pos = (332,0);
},
{
name = top;
pos = (333,700);
}
);
background = {
anchors = (
{
name = bottom;
pos = (332,0);
},
{
name = top;
pos = (333,700);
}
);
hints = (
{
horizontal = 1;
options = 4;
origin = (3,39);
target = (3,32);
type = TTStem;
},
{
horizontal = 1;
options = 4;
origin = (3,19);
target = (3,12);
type = TTStem;
},
{
horizontal = 1;
options = 4;
origin = (3,32);
other1 = (3,5);
target = (3,19);
type = TTInterpolate;
},
{
horizontal = 1;
options = 4;
origin = (3,39);
other1 = (3,25);
target = (3,12);
type = TTInterpolate;
},
{
horizontal = 1;
options = 4;
origin = (3,12);
other1 = (3,15);
target = (3,5);
type = TTInterpolate;
},
{
horizontal = 1;
options = 4;
origin = (3,32);
other1 = (3,35);
target = (3,25);
type = TTInterpolate;
}
);
shapes = (
{
closed = 1;
nodes = (
(273,46,l),
(273,-84,l),
(392,-84,l),
(392,46,l)
);
},
{
closed = 1;
nodes = (
(392,635,l),
(392,780,l),
(273,780,l),
(273,635,l)
);
},
{
closed = 1;
nodes = (
(384,86,l),
(384,595,l),
(281,595,l),
(281,86,l)
);
},
{
closed = 1;
nodes = (
(506,-13,o),
(613,73,o),
(613,203,cs),
(613,312,o),
(543,380,o),
(397,417,cs),
(331,434,ls),
(263,452,o),
(216,469,o),
(216,515,cs),
(216,553,o),
(255,578,o),
(325,578,cs),
(398,578,o),
(456,543,o),
(471,468,c),
(609,504,l),
(586,640,o),
(468,713,o),
(324,713,cs),
(165,713,o),
(57,628,o),
(57,507,cs),
(57,397,o),
(123,331,o),
(265,291,cs),
(330,273,ls),
(414,250,o),
(456,234,o),
(456,192,cs),
(456,150,o),
(408,122,o),
(330,122,cs),
(245,122,o),
(188,175,o),
(166,250,c),
(32,203,l),
(71,48,o),
(193,-13,o),
(330,-13,cs)
);
}
);
};
hints = (
{
horizontal = 1;
origin = (1,2);
type = TTSnap;
},
{
horizontal = 1;
origin = (0,1);
type = TTSnap;
},
{
horizontal = 1;
options = 4;
origin = (3,39);
target = (3,32);
type = TTStem;
},
{
horizontal = 1;
options = 4;
origin = (3,19);
target = (3,12);
type = TTStem;
},
{
horizontal = 1;
options = 4;
origin = (3,32);
other1 = (3,5);
target = (3,19);
type = TTInterpolate;
},
{
horizontal = 1;
options = 4;
origin = (3,39);
other1 = (3,25);
target = (3,12);
type = TTInterpolate;
},
{
horizontal = 1;
options = 4;
origin = (3,12);
other1 = (3,15);
target = (3,5);
type = TTInterpolate;
},
{
horizontal = 1;
options = 4;
origin = (3,32);
other1 = (3,35);
target = (3,25);
type = TTInterpolate;
},
{
horizontal = 1;
options = 4;
origin = (3,19);
target = (3,18);
type = TTShift;
},
{
horizontal = 1;
options = 4;
origin = (3,19);
target = (3,20);
type = TTShift;
},
{
horizontal = 1;
options = 4;
origin = (3,12);
target = (3,13);
type = TTShift;
},
{
horizontal = 1;
options = 4;
origin = (3,12);
target = (3,11);
type = TTShift;
},
{
horizontal = 1;
options = 4;
origin = (3,5);
target = (3,7);
type = TTShift;
},
{
horizontal = 1;
options = 4;
origin = (3,25);
target = (3,27);
type = TTShift;
},
{
horizontal = 1;
options = 4;
origin = (3,39);
target = (3,0);
type = TTShift;
},
{
horizontal = 1;
options = 4;
origin = (3,39);
target = (3,38);
type = TTShift;
},
{
horizontal = 1;
options = 4;
origin = (3,32);
target = (3,31);
type = TTShift;
},
{
horizontal = 1;
options = 4;
origin = (3,32);
target = (3,33);
type = TTShift;
}
);
layerId = "5500A485-9BC9-4FA7-853B-8075021C5598";
shapes = (
{
closed = 1;
nodes = (
(273,46,l),
(273,-79,l),
(392,-79,l),
(392,46,l)
);
},
{
closed = 1;
nodes = (
(392,635,l),
(392,776,l),
(273,776,l),
(273,635,l)
);
},
{
closed = 1;
nodes = (
(384,86,l),
(384,595,l),
(281,595,l),
(281,86,l)
);
},
{
closed = 1;
nodes = (
(506,-13,o),
(613,73,o),
(613,203,cs),
(613,312,o),
(543,380,o),
(397,417,cs),
(331,434,ls),
(263,452,o),
(216,469,o),
(216,515,cs),
(216,553,o),
(255,578,o),
(325,578,cs),
(398,578,o),
(456,543,o),
(471,468,c),
(609,504,l),
(586,640,o),
(468,713,o),
(324,713,cs),
(165,713,o),
(57,628,o),
(57,507,cs),
(57,397,o),
(123,331,o),
(265,291,cs),
(330,273,ls),
(414,250,o),
(456,234,o),
(456,192,cs),
(456,150,o),
(408,122,o),
(330,122,cs),
(245,122,o),
(188,175,o),
(166,250,c),
(32,203,l),
(71,48,o),
(193,-13,o),
(330,-13,cs)
);
}
);
width = 650;
},
{
anchors = (
{
name = bottom;
pos = (307,0);
},
{
name = top;
pos = (395,700);
}
);
associatedMasterId = "9CA0F1F1-C419-4983-8E88-5CF3F967428B";
background = {
anchors = (
{
name = bottom;
pos = (307,0);
},
{
name = top;
pos = (395,700);
}
);
shapes = (
{
closed = 1;
nodes = (
(231,16,l),
(203,-95,l),
(265,-95,l),
(293,16,l)
);
},
{
closed = 1;
nodes = (
(458,681,l),
(485,792,l),
(424,792,l),
(397,681,l)
);
},
{
closed = 1;
nodes = (
(292,16,l),
(458,681,l),
(397,681,l),
(231,16,l)
);
},
{
closed = 1;
nodes = (
(483,-9,o),
(577,76,o),
(577,190,cs),
(577,301,o),
(478,348,o),
(398,377,cs),
(331,401,ls),
(245,432,o),
(208,471,o),
(208,523,cs),
(208,603,o),
(276,644,o),
(368,644,cs),
(474,644,o),
(550,585,o),
(566,490,c),
(632,502,l),
(617,627,o),
(516,709,o),
(375,709,cs),
(236,709,o),
(136,632,o),
(136,517,cs),
(136,420,o),
(221,368,o),
(303,339,cs),
(370,315,ls),
(443,289,o),
(505,253,o),
(505,182,cs),
(505,100,o),
(432,56,o),
(324,56,cs),
(201,56,o),
(129,113,o),
(107,228,c),
(40,215,l),
(61,73,o),
(164,-9,o),
(322,-9,cs)
);
}
);
};
layerId = "B8B1B9F7-57AD-40F6-8824-2C22876E3A5C";
name = "new Layer";
shapes = (
{
closed = 1;
nodes = (
(231,16,l),
(204,-91,l),
(266,-91,l),
(293,16,l)
);
},
{
closed = 1;
nodes = (
(458,681,l),
(484,786,l),
(423,786,l),
(397,681,l)
);
},
{
closed = 1;
nodes = (
(292,16,l),
(458,681,l),
(397,681,l),
(231,16,l)
);
},
{
closed = 1;
nodes = (
(483,-9,o),
(577,76,o),
(577,190,cs),
(577,301,o),
(478,348,o),
(398,377,cs),
(331,401,ls),
(245,432,o),
(208,471,o),
(208,523,cs),
(208,603,o),
(276,644,o),
(368,644,cs),
(474,644,o),
(550,585,o),
(566,490,c),
(632,502,l),
(617,627,o),
(516,709,o),
(375,709,cs),
(236,709,o),
(136,632,o),
(136,517,cs),
(136,420,o),
(221,368,o),
(303,339,cs),
(370,315,ls),
(443,289,o),
(505,253,o),
(505,182,cs),
(505,100,o),
(432,56,o),
(324,56,cs),
(201,56,o),
(129,113,o),
(107,228,c),
(40,215,l),
(61,73,o),
(164,-9,o),
(322,-9,cs)
);
}
);
width = 650;
},
{
anchors = (
{
name = bottom;
pos = (296,0);
},
{
name = top;
pos = (393,700);
}
);
associatedMasterId = "9CA0F1F1-C419-4983-8E88-5CF3F967428B";
background = {
anchors = (
{
name = bottom;
pos = (296,0);
},
{
name = top;
pos = (393,700);
}
);
shapes = (
{
closed = 1;
nodes = (
(211,46,l),
(179,-84,l),
(300,-84,l),
(332,46,l)
);
},
{
closed = 1;
nodes = (
(479,635,l),
(515,780,l),
(394,780,l),
(358,635,l)
);
},
{
closed = 1;
nodes = (
(333,86,l),
(460,595,l),
(356,595,l),
(229,86,l)
);
},
{
closed = 1;
nodes = (
(502,-13,o),
(599,93,o),
(599,215,cs),
(599,338,o),
(500,382,o),
(410,413,cs),
(363,429,ls),
(307,448,o),
(264,471,o),
(264,511,cs),
(264,551,o),
(306,578,o),
(364,578,cs),
(442,578,o),
(488,536,o),
(494,470,c),
(635,493,l),
(625,629,o),
(532,713,o),
(374,713,cs),
(216,713,o),
(103,625,o),
(103,490,cs),
(103,367,o),
(197,322,o),
(285,292,cs),
(332,276,ls),
(388,257,o),
(433,235,o),
(433,191,cs),
(433,147,o),
(388,122,o),
(323,122,cs),
(234,122,o),
(177,169,o),
(162,250,c),
(22,227,l),
(40,74,o),
(144,-13,o),
(314,-13,cs)
);
}
);
};
layerId = "2275FDE9-41F5-43D3-856B-3453FC30E713";
name = "new Layer";
shapes = (
{
closed = 1;
nodes = (
(212,46,l),
(181,-79,l),
(302,-79,l),
(333,46,l)
);
},
{
closed = 1;
nodes = (
(480,635,l),
(515,776,l),
(394,776,l),
(359,635,l)
);
},
{
closed = 1;
nodes = (
(334,86,l),
(461,595,l),
(357,595,l),
(230,86,l)
);
},
{
closed = 1;
nodes = (
(502,-13,o),
(599,93,o),
(599,215,cs),
(599,338,o),
(500,382,o),
(410,413,cs),
(363,429,ls),
(307,448,o),
(264,471,o),
(264,511,cs),
(264,551,o),
(306,578,o),
(364,578,cs),
(442,578,o),
(488,536,o),
(494,470,c),
(635,493,l),
(625,629,o),
(532,713,o),
(374,713,cs),
(216,713,o),
(103,625,o),
(103,490,cs),
(103,367,o),
(197,322,o),
(285,292,cs),
(332,276,ls),
(388,257,o),
(433,235,o),
(433,191,cs),
(433,147,o),
(388,122,o),
(323,122,cs),
(234,122,o),
(177,169,o),
(162,250,c),
(22,227,l),
(40,74,o),
(144,-13,o),
(314,-13,cs)
);
}
);
width = 650;
},
{
anchors = (
{
name = bottom;
pos = (358,0);
},
{
name = top;
pos = (346,700);
}
);
background = {
anchors = (
{
name = bottom;
pos = (358,0);
},
{
name = top;
pos = (346,700);
}
);
shapes = (
{
closed = 1;
nodes = (
(317,16,l),
(317,-95,l),
(375,-95,l),
(375,16,l)
);
},
{
closed = 1;
nodes = (
(374,681,l),
(374,792,l),
(317,792,l),
(317,681,l)
);
},
{
closed = 1;
nodes = (
(375,16,l),
(375,681,l),
(317,681,l),
(317,16,l)
);
},
{
closed = 1;
nodes = (
(514,-9,o),
(614,67,o),
(614,183,cs),
(614,271,o),
(547,337,o),
(408,375,cs),
(309,402,ls),
(218,427,o),
(175,458,o),
(175,526,cs),
(175,597,o),
(245,644,o),
(345,644,cs),
(442,644,o),
(517,598,o),
(540,490,c),
(605,506,l),
(576,639,o),
(484,709,o),
(343,709,cs),
(201,709,o),
(104,631,o),
(104,519,cs),
(104,431,o),
(166,367,o),
(277,338,cs),
(377,312,ls),
(500,280,o),
(544,238,o),
(544,176,cs),
(544,102,o),
(471,56,o),
(358,56,cs),
(239,56,o),
(162,118,o),
(140,227,c),
(71,211,l),
(99,76,o),
(193,-9,o),
(358,-9,cs)
);
}
);
};
layerId = "CAEAD647-A533-4D72-9ACE-F5DE50C4DBD4";
shapes = (
{
closed = 1;
nodes = (
(317,16,l),
(317,-91,l),
(375,-91,l),
(375,16,l)
);
},
{
closed = 1;
nodes = (
(374,681,l),
(374,786,l),
(317,786,l),
(317,681,l)
);
},
{
closed = 1;
nodes = (
(375,16,l,{
name = "🔥";
}),
(375,681,l),
(317,681,l,{
name = "🔥";
}),
(317,16,l,{
name = "🔥";
})
);
},
{
closed = 1;
nodes = (
(514,-9,o),
(614,67,o),
(614,183,cs),
(614,271,o),
(547,337,o),
(408,375,cs),
(309,402,ls),
(218,427,o),
(175,458,o),
(175,526,cs),
(175,597,o),
(245,644,o),
(345,644,cs),
(442,644,o),
(517,598,o),
(540,490,c),
(605,506,l),
(576,639,o),
(484,709,o),
(343,709,cs),
(201,709,o),
(104,631,o),
(104,519,cs),
(104,431,o),
(166,367,o),
(277,338,cs),
(377,312,ls),
(500,280,o),
(544,238,o),
(544,176,cs),
(544,102,o),
(471,56,o),
(358,56,cs),
(237,56,o),
(161,117,o),
(137,227,c),
(72,211,l),
(99,81,o),
(194,-9,o),
(358,-9,cs)
);
}
);
width = 690;
},
{
anchors = (
{
name = bottom;
pos = (307,0);
},
{
name = top;
pos = (395,700);
}
);
associatedMasterId = "CAEAD647-A533-4D72-9ACE-F5DE50C4DBD4";
background = {
anchors = (
{
name = bottom;
pos = (307,0);
},
{
name = top;
pos = (395,700);
}
);
shapes = (
{
closed = 1;
nodes = (
(231,16,l),
(203,-95,l),
(265,-95,l),
(293,16,l)
);
},
{
closed = 1;
nodes = (
(458,681,l),
(485,792,l),
(424,792,l),
(397,681,l)
);
},
{
closed = 1;
nodes = (
(292,16,l),
(458,681,l),
(397,681,l),
(231,16,l)
);
},
{
closed = 1;
nodes = (
(483,-9,o),
(577,76,o),
(577,190,cs),
(577,301,o),
(478,348,o),
(398,377,cs),
(331,401,ls),
(245,432,o),
(208,471,o),
(208,523,cs),
(208,603,o),
(276,644,o),
(368,644,cs),
(474,644,o),
(550,585,o),
(566,490,c),
(632,502,l),
(617,627,o),
(516,709,o),
(375,709,cs),
(236,709,o),
(136,632,o),
(136,517,cs),
(136,420,o),
(221,368,o),
(303,339,cs),
(370,315,ls),
(443,289,o),
(505,253,o),
(505,182,cs),
(505,100,o),
(432,56,o),
(324,56,cs),
(201,56,o),
(129,113,o),
(107,228,c),
(40,215,l),
(61,73,o),
(164,-9,o),
(322,-9,cs)
);
}
);
};
layerId = "E0E7295F-D871-422E-87AE-8A23692DB2D8";
name = "new Layer";
shapes = (
{
closed = 1;
nodes = (
(231,16,l),
(204,-91,l),
(266,-91,l),
(293,16,l)
);
},
{
closed = 1;
nodes = (
(458,681,l),
(484,786,l),
(423,786,l),
(397,681,l)
);
},
{
closed = 1;
nodes = (
(292,16,l),
(458,681,l),
(397,681,l),
(231,16,l)
);
},
{
closed = 1;
nodes = (
(483,-9,o),
(577,76,o),
(577,190,cs),
(577,301,o),
(478,348,o),
(398,377,cs),
(331,401,ls),
(245,432,o),
(208,471,o),
(208,523,cs),
(208,603,o),
(276,644,o),
(368,644,cs),
(474,644,o),
(550,585,o),
(566,490,c),
(632,502,l),
(617,627,o),
(516,709,o),
(375,709,cs),
(236,709,o),
(136,632,o),
(136,517,cs),
(136,420,o),
(221,368,o),
(303,339,cs),
(370,315,ls),
(443,289,o),
(505,253,o),
(505,182,cs),
(505,100,o),
(432,56,o),
(324,56,cs),
(201,56,o),
(129,113,o),
(107,228,c),
(40,215,l),
(61,73,o),
(164,-9,o),
(322,-9,cs)
);
}
);
width = 650;
},
{
anchors = (
{
name = bottom;
pos = (296,0);
},
{
name = top;
pos = (393,700);
}
);
associatedMasterId = "CAEAD647-A533-4D72-9ACE-F5DE50C4DBD4";
background = {
anchors = (
{
name = bottom;
pos = (296,0);
},
{
name = top;
pos = (393,700);
}
);
shapes = (
{
closed = 1;
nodes = (
(211,46,l),
(179,-84,l),
(300,-84,l),
(332,46,l)
);
},
{
closed = 1;
nodes = (
(479,635,l),
(515,780,l),
(394,780,l),
(358,635,l)
);
},
{
closed = 1;
nodes = (
(333,86,l),
(460,595,l),
(356,595,l),
(229,86,l)
);
},
{
closed = 1;
nodes = (
(502,-13,o),
(599,93,o),
(599,215,cs),
(599,338,o),
(500,382,o),
(410,413,cs),
(363,429,ls),
(307,448,o),
(264,471,o),
(264,511,cs),
(264,551,o),
(306,578,o),
(364,578,cs),
(442,578,o),
(488,536,o),
(494,470,c),
(635,493,l),
(625,629,o),
(532,713,o),
(374,713,cs),
(216,713,o),
(103,625,o),
(103,490,cs),
(103,367,o),
(197,322,o),
(285,292,cs),
(332,276,ls),
(388,257,o),
(433,235,o),
(433,191,cs),
(433,147,o),
(388,122,o),
(323,122,cs),
(234,122,o),
(177,169,o),
(162,250,c),
(22,227,l),
(40,74,o),
(144,-13,o),
(314,-13,cs)
);
}
);
};
layerId = "F208EEBF-1047-435E-8CC0-F31769AAF881";
name = "new Layer";
shapes = (
{
closed = 1;
nodes = (
(212,46,l),
(181,-79,l),
(302,-79,l),
(333,46,l)
);
},
{
closed = 1;
nodes = (
(480,635,l),
(515,776,l),
(394,776,l),
(359,635,l)
);
},
{
closed = 1;
nodes = (
(334,86,l),
(461,595,l),
(357,595,l),
(230,86,l)
);
},
{
closed = 1;
nodes = (
(502,-13,o),
(599,93,o),
(599,215,cs),
(599,338,o),
(500,382,o),
(410,413,cs),
(363,429,ls),
(307,448,o),
(264,471,o),
(264,511,cs),
(264,551,o),
(306,578,o),
(364,578,cs),
(442,578,o),
(488,536,o),
(494,470,c),
(635,493,l),
(625,629,o),
(532,713,o),
(374,713,cs),
(216,713,o),
(103,625,o),
(103,490,cs),
(103,367,o),
(197,322,o),
(285,292,cs),
(332,276,ls),
(388,257,o),
(433,235,o),
(433,191,cs),
(433,147,o),
(388,122,o),
(323,122,cs),
(234,122,o),
(177,169,o),
(162,250,c),
(22,227,l),
(40,74,o),
(144,-13,o),
(314,-13,cs)
);
}
);
width = 650;
},
{
anchors = (
{
name = bottom;
pos = (352,0);
},
{
name = top;
pos = (353,700);
}
);
background = {
anchors = (
{
name = bottom;
pos = (352,0);
},
{
name = top;
pos = (353,700);
}
);
hints = (
{
horizontal = 1;
options = 4;
origin = (3,39);
target = (3,32);
type = TTStem;
},
{
horizontal = 1;
options = 4;
origin = (3,19);
target = (3,12);
type = TTStem;
},
{
horizontal = 1;
options = 4;
origin = (3,32);
other1 = (3,5);
target = (3,19);
type = TTInterpolate;
},
{
horizontal = 1;
options = 4;
origin = (3,39);
other1 = (3,25);
target = (3,12);
type = TTInterpolate;
},
{
horizontal = 1;
options = 4;
origin = (3,12);
other1 = (3,15);
target = (3,5);
type = TTInterpolate;
},
{
horizontal = 1;
options = 4;
origin = (3,32);
other1 = (3,35);
target = (3,25);
type = TTInterpolate;
}
);
shapes = (
{
closed = 1;
nodes = (
(293,46,l),
(293,-84,l),
(412,-84,l),
(412,46,l)
);
},
{
closed = 1;
nodes = (
(412,635,l),
(412,780,l),
(293,780,l),
(293,635,l)
);
},
{
closed = 1;
nodes = (
(404,86,l),
(404,595,l),
(301,595,l),
(301,86,l)
);
},
{
closed = 1;
nodes = (
(526,-13,o),
(633,73,o),
(633,203,cs),
(633,312,o),
(563,380,o),
(417,417,cs),
(351,434,ls),
(283,452,o),
(236,469,o),
(236,515,cs),
(236,553,o),
(275,578,o),
(345,578,cs),
(418,578,o),
(476,543,o),
(491,468,c),
(629,504,l),
(606,640,o),
(488,713,o),
(344,713,cs),
(185,713,o),
(77,628,o),
(77,507,cs),
(77,397,o),
(143,331,o),
(285,291,cs),
(350,273,ls),
(434,250,o),
(476,234,o),
(476,192,cs),
(476,150,o),
(428,122,o),
(350,122,cs),
(265,122,o),
(208,175,o),
(186,250,c),
(52,203,l),
(91,48,o),
(213,-13,o),
(350,-13,cs)
);
}
);
};
hints = (
{
horizontal = 1;
origin = (1,2);
type = TTSnap;
},
{
horizontal = 1;
origin = (0,1);
type = TTSnap;
},
{
horizontal = 1;
options = 4;
origin = (3,39);
target = (3,32);
type = TTStem;
},
{
horizontal = 1;
options = 4;
origin = (3,19);
target = (3,12);
type = TTStem;
},
{
horizontal = 1;
options = 4;
origin = (3,32);
other1 = (3,5);
target = (3,19);
type = TTInterpolate;
},
{
horizontal = 1;
options = 4;
origin = (3,39);
other1 = (3,25);
target = (3,12);
type = TTInterpolate;
},
{
horizontal = 1;
options = 4;
origin = (3,12);
other1 = (3,15);
target = (3,5);
type = TTInterpolate;
},
{
horizontal = 1;
options = 4;
origin = (3,32);
other1 = (3,35);
target = (3,25);
type = TTInterpolate;
},
{
horizontal = 1;
options = 4;
origin = (3,19);
target = (3,18);
type = TTShift;
},
{
horizontal = 1;
options = 4;
origin = (3,19);
target = (3,20);
type = TTShift;
},
{
horizontal = 1;
options = 4;
origin = (3,12);
target = (3,13);
type = TTShift;
},
{
horizontal = 1;
options = 4;
origin = (3,12);
target = (3,11);
type = TTShift;
},
{
horizontal = 1;
options = 4;
origin = (3,5);
target = (3,7);
type = TTShift;
},
{
horizontal = 1;
options = 4;
origin = (3,25);
target = (3,27);
type = TTShift;
},
{
horizontal = 1;
options = 4;
origin = (3,39);
target = (3,0);
type = TTShift;
},
{
horizontal = 1;
options = 4;
origin = (3,39);
target = (3,38);
type = TTShift;
},
{
horizontal = 1;
options = 4;
origin = (3,32);
target = (3,31);
type = TTShift;
},
{
horizontal = 1;
options = 4;
origin = (3,32);
target = (3,33);
type = TTShift;
}
);
layerId = "474EAD97-6F36-4C8E-8A0A-83C4F7DF9055";
shapes = (
{
closed = 1;
nodes = (
(293,46,l),
(293,-79,l),
(412,-79,l),
(412,46,l)
);
},
{
closed = 1;
nodes = (
(412,635,l),
(412,776,l),
(293,776,l),
(293,635,l)
);
},
{
closed = 1;
nodes = (
(404,86,l),
(404,595,l),
(301,595,l),
(301,86,l)
);
},
{
closed = 1;
nodes = (
(526,-13,o),
(633,73,o),
(633,203,cs),
(633,312,o),
(563,380,o),
(417,417,cs),
(351,434,ls),
(283,452,o),
(236,469,o),
(236,515,cs),
(236,553,o),
(275,578,o),
(345,578,cs),
(418,578,o),
(476,543,o),
(491,468,c),
(629,504,l),
(606,640,o),
(488,713,o),
(344,713,cs),
(185,713,o),
(77,628,o),
(77,507,cs),
(77,397,o),
(143,331,o),
(285,291,cs),
(350,273,ls),
(434,250,o),
(476,234,o),
(476,192,cs),
(476,150,o),
(428,122,o),
(350,122,cs),
(265,122,o),
(208,175,o),
(186,250,c),
(52,203,l),
(91,48,o),
(213,-13,o),
(350,-13,cs)
);
}
);
width = 690;
}
);
unicode = 36;
}
{
glyphname = percent;
kernLeft = percent;
layers = (
{
background = {
shapes = (
{
closed = 1;
nodes = (
(168,0,l),
(618,700,l),
(553,700,l),
(103,0,l)
);
},
{
closed = 1;
nodes = (
(628,-9,o),
(694,57,o),
(694,146,cs),
(694,234,o),
(628,301,o),
(539,301,cs),
(452,301,o),
(386,234,o),
(386,146,cs),
(386,57,o),
(452,-9,o),
(539,-9,cs)
);
},
{
closed = 1;
nodes = (
(485,45,o),
(444,87,o),
(444,146,cs),
(444,203,o),
(485,246,o),
(539,246,cs),
(595,246,o),
(637,203,o),
(637,146,cs),
(637,87,o),
(595,45,o),
(539,45,cs)
);
},
{
closed = 1;
nodes = (
(268,399,o),
(334,465,o),
(334,554,cs),
(334,642,o),
(268,709,o),
(179,709,cs),
(92,709,o),
(26,642,o),
(26,554,cs),
(26,465,o),
(92,399,o),
(179,399,cs)
);
},
{
closed = 1;
nodes = (
(125,453,o),
(84,495,o),
(84,554,cs),
(84,611,o),
(125,654,o),
(179,654,cs),
(235,654,o),
(277,611,o),
(277,554,cs),
(277,495,o),
(235,453,o),
(179,453,cs)
);
}
);
};
layerId = "9CA0F1F1-C419-4983-8E88-5CF3F967428B";
shapes = (
{
closed = 1;
nodes = (
(168,0,l),
(618,700,l),
(553,700,l),
(103,0,l)
);
},
{
closed = 1;
nodes = (
(628,-9,o),
(694,57,o),
(694,146,cs),
(694,234,o),
(628,301,o),
(539,301,cs),
(452,301,o),
(386,234,o),
(386,146,cs),
(386,57,o),
(452,-9,o),
(539,-9,cs)
);
},
{
closed = 1;
nodes = (
(485,45,o),
(444,87,o),
(444,146,cs),
(444,203,o),
(485,246,o),
(539,246,cs),
(595,246,o),
(637,203,o),
(637,146,cs),
(637,87,o),
(595,45,o),
(539,45,cs)
);
},
{
closed = 1;
nodes = (
(268,399,o),
(334,465,o),
(334,554,cs),
(334,642,o),
(268,709,o),
(179,709,cs),
(92,709,o),
(26,642,o),
(26,554,cs),
(26,465,o),
(92,399,o),
(179,399,cs)
);
},
{
closed = 1;
nodes = (
(125,453,o),
(84,495,o),
(84,554,cs),
(84,611,o),
(125,654,o),
(179,654,cs),
(235,654,o),
(277,611,o),
(277,554,cs),
(277,495,o),
(235,453,o),
(179,453,cs)
);
}
);
width = 720;
},
{
background = {
shapes = (
{
closed = 1;
nodes = (
(229,0,l),
(716,700,l),
(584,700,l),
(97,0,l)
);
},
{
closed = 1;
nodes = (
(717,-13,o),
(790,60,o),
(790,159,cs),
(790,257,o),
(717,330,o),
(618,330,cs),
(518,330,o),
(444,257,o),
(444,159,cs),
(444,60,o),
(518,-13,o),
(618,-13,cs)
);
},
{
closed = 1;
nodes = (
(579,87,o),
(550,118,o),
(550,159,cs),
(550,199,o),
(579,229,o),
(618,229,cs),
(656,229,o),
(685,199,o),
(685,159,cs),
(685,118,o),
(656,87,o),
(618,87,cs)
);
},
{
closed = 1;
nodes = (
(296,370,o),
(369,443,o),
(369,542,cs),
(369,640,o),
(296,713,o),
(197,713,cs),
(97,713,o),
(23,640,o),
(23,542,cs),
(23,443,o),
(97,370,o),
(197,370,cs)
);
},
{
closed = 1;
nodes = (
(158,470,o),
(129,501,o),
(129,542,cs),
(129,582,o),
(158,612,o),
(197,612,cs),
(235,612,o),
(264,582,o),
(264,542,cs),
(264,501,o),
(235,470,o),
(197,470,cs)
);
}
);
};
hints = (
{
horizontal = 1;
origin = (0,1);
type = TTSnap;
},
{
horizontal = 1;
origin = (0,3);
type = TTSnap;
},
{
horizontal = 1;
options = 4;
origin = (3,5);
stem = 2;
target = (4,5);
type = TTStem;
},
{
horizontal = 1;
options = 4;
origin = (4,5);
target = (3,11);
type = TTShift;
},
{
horizontal = 1;
options = 8;
origin = (3,11);
stem = 2;
target = (4,11);
type = TTStem;
},
{
horizontal = 1;
options = 4;
origin = (1,11);
stem = 2;
target = (2,11);
type = TTStem;
},
{
horizontal = 1;
options = 4;
origin = (2,11);
target = (1,5);
type = TTShift;
},
{
horizontal = 1;
options = 8;
origin = (1,5);
stem = 2;
target = (2,5);
type = TTStem;
},
{
horizontal = 1;
origin = (3,11);
settings = {
deltaV = {
"{0, 176, 0, 0, 0, 0}" = {
"10" = 2;
};
"{0, 230, 0, 0, 0, 0}" = {
"10" = 2;
};
"{1, 176, 0, 0, 0, 0}" = {
"10" = 2;
};
"{1, 230, 0, 0, 0, 0}" = {
"10" = 1;
};
};
};
type = TTDelta;
},
{
horizontal = 1;
origin = (1,5);
settings = {
deltaV = {
"{0, 176, 0, 0, 0, 0}" = {
"10" = -2;
};
"{0, 230, 0, 0, 0, 0}" = {
"10" = -1;
};
"{1, 176, 0, 0, 0, 0}" = {
"10" = -2;
};
"{1, 230, 0, 0, 0, 0}" = {
"10" = -1;
};
};
};
type = TTDelta;
}
);
layerId = "5500A485-9BC9-4FA7-853B-8075021C5598";
shapes = (
{
closed = 1;
nodes = (
(229,0,l),
(716,700,l),
(584,700,l),
(97,0,l)
);
},
{
closed = 1;
nodes = (
(717,-13,o),
(790,60,o),
(790,159,cs),
(790,257,o),
(717,330,o),
(618,330,cs),
(518,330,o),
(444,257,o),
(444,159,cs),
(444,60,o),
(518,-13,o),
(618,-13,cs)
);
},
{
closed = 1;
nodes = (
(579,87,o),
(550,118,o),
(550,159,cs),
(550,199,o),
(579,229,o),
(618,229,cs),
(656,229,o),
(685,199,o),
(685,159,cs),
(685,118,o),
(656,87,o),
(618,87,cs)
);
},
{
closed = 1;
nodes = (
(296,370,o),
(369,443,o),
(369,542,cs),
(369,640,o),
(296,713,o),
(197,713,cs),
(97,713,o),
(23,640,o),
(23,542,cs),
(23,443,o),
(97,370,o),
(197,370,cs)
);
},
{
closed = 1;
nodes = (
(158,470,o),
(129,501,o),
(129,542,cs),
(129,582,o),
(158,612,o),
(197,612,cs),
(235,612,o),
(264,582,o),
(264,542,cs),
(264,501,o),
(235,470,o),
(197,470,cs)
);
}
);
width = 813;
},
{
associatedMasterId = "9CA0F1F1-C419-4983-8E88-5CF3F967428B";
background = {
shapes = (
{
closed = 1;
nodes = (
(117,0,l),
(741,700,l),
(670,700,l),
(46,0,l)
);
},
{
closed = 1;
nodes = (
(634,-9,o),
(697,57,o),
(697,146,cs),
(697,234,o),
(634,301,o),
(550,301,cs),
(468,301,o),
(405,234,o),
(405,146,cs),
(405,57,o),
(468,-9,o),
(550,-9,cs)
);
},
{
closed = 1;
nodes = (
(501,45,o),
(463,87,o),
(463,146,cs),
(463,203,o),
(501,246,o),
(550,246,cs),
(601,246,o),
(640,203,o),
(640,146,cs),
(640,87,o),
(601,45,o),
(550,45,cs)
);
},
{
closed = 1;
nodes = (
(323,399,o),
(386,465,o),
(386,554,cs),
(386,642,o),
(323,709,o),
(239,709,cs),
(157,709,o),
(94,642,o),
(94,554,cs),
(94,465,o),
(157,399,o),
(239,399,cs)
);
},
{
closed = 1;
nodes = (
(190,453,o),
(152,495,o),
(152,554,cs),
(152,611,o),
(190,654,o),
(239,654,cs),
(290,654,o),
(329,611,o),
(329,554,cs),
(329,495,o),
(290,453,o),
(239,453,cs)
);
}
);
};
layerId = "B8B1B9F7-57AD-40F6-8824-2C22876E3A5C";
name = "new Layer";
shapes = (
{
closed = 1;
nodes = (
(117,0,l),
(741,700,l),
(670,700,l),
(46,0,l)
);
},
{
closed = 1;
nodes = (
(634,-9,o),
(697,57,o),
(697,146,cs),
(697,234,o),
(634,301,o),
(550,301,cs),
(468,301,o),
(405,234,o),
(405,146,cs),
(405,57,o),
(468,-9,o),
(550,-9,cs)
);
},
{
closed = 1;
nodes = (
(501,45,o),
(463,87,o),
(463,146,cs),
(463,203,o),
(501,246,o),
(550,246,cs),
(601,246,o),
(640,203,o),
(640,146,cs),
(640,87,o),
(601,45,o),
(550,45,cs)
);
},
{
closed = 1;
nodes = (
(323,399,o),
(386,465,o),
(386,554,cs),
(386,642,o),
(323,709,o),
(239,709,cs),
(157,709,o),
(94,642,o),
(94,554,cs),
(94,465,o),
(157,399,o),
(239,399,cs)
);
},
{
closed = 1;
nodes = (
(190,453,o),
(152,495,o),
(152,554,cs),
(152,611,o),
(190,654,o),
(239,654,cs),
(290,654,o),
(329,611,o),
(329,554,cs),
(329,495,o),
(290,453,o),
(239,453,cs)
);
}
);
width = 744;
},
{
associatedMasterId = "9CA0F1F1-C419-4983-8E88-5CF3F967428B";
background = {
shapes = (
{
closed = 1;
nodes = (
(202,0,l),
(863,700,l),
(720,700,l),
(59,0,l)
);
},
{
closed = 1;
nodes = (
(757,-13,o),
(829,60,o),
(829,159,cs),
(829,257,o),
(757,330,o),
(660,330,cs),
(562,330,o),
(489,257,o),
(489,159,cs),
(489,60,o),
(562,-13,o),
(660,-13,cs)
);
},
{
closed = 1;
nodes = (
(623,87,o),
(595,118,o),
(595,159,cs),
(595,199,o),
(623,229,o),
(660,229,cs),
(696,229,o),
(724,199,o),
(724,159,cs),
(724,118,o),
(696,87,o),
(660,87,cs)
);
},
{
closed = 1;
nodes = (
(355,370,o),
(427,443,o),
(427,542,cs),
(427,640,o),
(355,713,o),
(258,713,cs),
(160,713,o),
(87,640,o),
(87,542,cs),
(87,443,o),
(160,370,o),
(258,370,cs)
);
},
{
closed = 1;
nodes = (
(221,470,o),
(193,501,o),
(193,542,cs),
(193,582,o),
(221,612,o),
(258,612,cs),
(294,612,o),
(322,582,o),
(322,542,cs),
(322,501,o),
(294,470,o),
(258,470,cs)
);
}
);
};
layerId = "2275FDE9-41F5-43D3-856B-3453FC30E713";
name = "new Layer";
shapes = (
{
closed = 1;
nodes = (
(202,0,l),
(863,700,l),
(720,700,l),
(59,0,l)
);
},
{
closed = 1;
nodes = (
(757,-13,o),
(829,60,o),
(829,159,cs),
(829,257,o),
(757,330,o),
(660,330,cs),
(562,330,o),
(489,257,o),
(489,159,cs),
(489,60,o),
(562,-13,o),
(660,-13,cs)
);
},
{
closed = 1;
nodes = (
(623,87,o),
(595,118,o),
(595,159,cs),
(595,199,o),
(623,229,o),
(660,229,cs),
(696,229,o),
(724,199,o),
(724,159,cs),
(724,118,o),
(696,87,o),
(660,87,cs)
);
},
{
closed = 1;
nodes = (
(355,370,o),
(427,443,o),
(427,542,cs),
(427,640,o),
(355,713,o),
(258,713,cs),
(160,713,o),
(87,640,o),
(87,542,cs),
(87,443,o),
(160,370,o),
(258,370,cs)
);
},
{
closed = 1;
nodes = (
(221,470,o),
(193,501,o),
(193,542,cs),
(193,582,o),
(221,612,o),
(258,612,cs),
(294,612,o),
(322,582,o),
(322,542,cs),
(322,501,o),
(294,470,o),
(258,470,cs)
);
}
);
width = 876;
},
{
background = {
shapes = (
{
closed = 1;
nodes = (
(188,0,l),
(638,700,l),
(573,700,l),
(123,0,l)
);
},
{
closed = 1;
nodes = (
(648,-9,o),
(714,57,o),
(714,146,cs),
(714,234,o),
(648,301,o),
(559,301,cs),
(472,301,o),
(406,234,o),
(406,146,cs),
(406,57,o),
(472,-9,o),
(559,-9,cs)
);
},
{
closed = 1;
nodes = (
(505,45,o),
(464,87,o),
(464,146,cs),
(464,203,o),
(505,246,o),
(559,246,cs),
(615,246,o),
(657,203,o),
(657,146,cs),
(657,87,o),
(615,45,o),
(559,45,cs)
);
},
{
closed = 1;
nodes = (
(288,399,o),
(354,465,o),
(354,554,cs),
(354,642,o),
(288,709,o),
(199,709,cs),
(112,709,o),
(46,642,o),
(46,554,cs),
(46,465,o),
(112,399,o),
(199,399,cs)
);
},
{
closed = 1;
nodes = (
(145,453,o),
(104,495,o),
(104,554,cs),
(104,611,o),
(145,654,o),
(199,654,cs),
(255,654,o),
(297,611,o),
(297,554,cs),
(297,495,o),
(255,453,o),
(199,453,cs)
);
}
);
};
layerId = "CAEAD647-A533-4D72-9ACE-F5DE50C4DBD4";
shapes = (
{
closed = 1;
nodes = (
(188,0,l),
(638,700,l),
(573,700,l),
(123,0,l)
);
},
{
closed = 1;
nodes = (
(648,-9,o),
(714,57,o),
(714,146,cs),
(714,234,o),
(648,301,o),
(559,301,cs),
(472,301,o),
(406,234,o),
(406,146,cs),
(406,57,o),
(472,-9,o),
(559,-9,cs)
);
},
{
closed = 1;
nodes = (
(505,45,o),
(464,87,o),
(464,146,cs),
(464,203,o),
(505,246,o),
(559,246,cs),
(615,246,o),
(657,203,o),
(657,146,cs),
(657,87,o),
(615,45,o),
(559,45,cs)
);
},
{
closed = 1;
nodes = (
(288,399,o),
(354,465,o),
(354,554,cs),
(354,642,o),
(288,709,o),
(199,709,cs),
(112,709,o),
(46,642,o),
(46,554,cs),
(46,465,o),
(112,399,o),
(199,399,cs)
);
},
{
closed = 1;
nodes = (
(145,453,o),
(104,495,o),
(104,554,cs),
(104,611,o),
(145,654,o),
(199,654,cs),
(255,654,o),
(297,611,o),
(297,554,cs),
(297,495,o),
(255,453,o),
(199,453,cs)
);
}
);
width = 760;
},
{
associatedMasterId = "CAEAD647-A533-4D72-9ACE-F5DE50C4DBD4";
background = {
shapes = (
{
closed = 1;
nodes = (
(117,0,l),
(741,700,l),
(670,700,l),
(46,0,l)
);
},
{
closed = 1;
nodes = (
(634,-9,o),
(697,57,o),
(697,146,cs),
(697,234,o),
(634,301,o),
(550,301,cs),
(468,301,o),
(405,234,o),
(405,146,cs),
(405,57,o),
(468,-9,o),
(550,-9,cs)
);
},
{
closed = 1;
nodes = (
(501,45,o),
(463,87,o),
(463,146,cs),
(463,203,o),
(501,246,o),
(550,246,cs),
(601,246,o),
(640,203,o),
(640,146,cs),
(640,87,o),
(601,45,o),
(550,45,cs)
);
},
{
closed = 1;
nodes = (
(323,399,o),
(386,465,o),
(386,554,cs),
(386,642,o),
(323,709,o),
(239,709,cs),
(157,709,o),
(94,642,o),
(94,554,cs),
(94,465,o),
(157,399,o),
(239,399,cs)
);
},
{
closed = 1;
nodes = (
(190,453,o),
(152,495,o),
(152,554,cs),
(152,611,o),
(190,654,o),
(239,654,cs),
(290,654,o),
(329,611,o),
(329,554,cs),
(329,495,o),
(290,453,o),
(239,453,cs)
);
}
);
};
layerId = "CFED45E4-9390-497A-A98F-1825D13FE028";
name = "new Layer";
shapes = (
{
closed = 1;
nodes = (
(117,0,l),
(741,700,l),
(670,700,l),
(46,0,l)
);
},
{
closed = 1;
nodes = (
(634,-9,o),
(697,57,o),
(697,146,cs),
(697,234,o),
(634,301,o),
(550,301,cs),
(468,301,o),
(405,234,o),
(405,146,cs),
(405,57,o),
(468,-9,o),
(550,-9,cs)
);
},
{
closed = 1;
nodes = (
(501,45,o),
(463,87,o),
(463,146,cs),
(463,203,o),
(501,246,o),
(550,246,cs),
(601,246,o),
(640,203,o),
(640,146,cs),
(640,87,o),
(601,45,o),
(550,45,cs)
);
},
{
closed = 1;
nodes = (
(323,399,o),
(386,465,o),
(386,554,cs),
(386,642,o),
(323,709,o),
(239,709,cs),
(157,709,o),
(94,642,o),
(94,554,cs),
(94,465,o),
(157,399,o),
(239,399,cs)
);
},
{
closed = 1;
nodes = (
(190,453,o),
(152,495,o),
(152,554,cs),
(152,611,o),
(190,654,o),
(239,654,cs),
(290,654,o),
(329,611,o),
(329,554,cs),
(329,495,o),
(290,453,o),
(239,453,cs)
);
}
);
width = 744;
},
{
associatedMasterId = "CAEAD647-A533-4D72-9ACE-F5DE50C4DBD4";
background = {
shapes = (
{
closed = 1;
nodes = (
(202,0,l),
(863,700,l),
(720,700,l),
(59,0,l)
);
},
{
closed = 1;
nodes = (
(757,-13,o),
(829,60,o),
(829,159,cs),
(829,257,o),
(757,330,o),
(660,330,cs),
(562,330,o),
(489,257,o),
(489,159,cs),
(489,60,o),
(562,-13,o),
(660,-13,cs)
);
},
{
closed = 1;
nodes = (
(623,87,o),
(595,118,o),
(595,159,cs),
(595,199,o),
(623,229,o),
(660,229,cs),
(696,229,o),
(724,199,o),
(724,159,cs),
(724,118,o),
(696,87,o),
(660,87,cs)
);
},
{
closed = 1;
nodes = (
(355,370,o),
(427,443,o),
(427,542,cs),
(427,640,o),
(355,713,o),
(258,713,cs),
(160,713,o),
(87,640,o),
(87,542,cs),
(87,443,o),
(160,370,o),
(258,370,cs)
);
},
{
closed = 1;
nodes = (
(221,470,o),
(193,501,o),
(193,542,cs),
(193,582,o),
(221,612,o),
(258,612,cs),
(294,612,o),
(322,582,o),
(322,542,cs),
(322,501,o),
(294,470,o),
(258,470,cs)
);
}
);
};
layerId = "4E6DB7FF-7D32-421A-A844-28375EAB285E";
name = "new Layer";
shapes = (
{
closed = 1;
nodes = (
(202,0,l),
(863,700,l),
(720,700,l),
(59,0,l)
);
},
{
closed = 1;
nodes = (
(757,-13,o),
(829,60,o),
(829,159,cs),
(829,257,o),
(757,330,o),
(660,330,cs),
(562,330,o),
(489,257,o),
(489,159,cs),
(489,60,o),
(562,-13,o),
(660,-13,cs)
);
},
{
closed = 1;
nodes = (
(623,87,o),
(595,118,o),
(595,159,cs),
(595,199,o),
(623,229,o),
(660,229,cs),
(696,229,o),
(724,199,o),
(724,159,cs),
(724,118,o),
(696,87,o),
(660,87,cs)
);
},
{
closed = 1;
nodes = (
(355,370,o),
(427,443,o),
(427,542,cs),
(427,640,o),
(355,713,o),
(258,713,cs),
(160,713,o),
(87,640,o),
(87,542,cs),
(87,443,o),
(160,370,o),
(258,370,cs)
);
},
{
closed = 1;
nodes = (
(221,470,o),
(193,501,o),
(193,542,cs),
(193,582,o),
(221,612,o),
(258,612,cs),
(294,612,o),
(322,582,o),
(322,542,cs),
(322,501,o),
(294,470,o),
(258,470,cs)
);
}
);
width = 876;
},
{
background = {
shapes = (
{
closed = 1;
nodes = (
(249,0,l),
(736,700,l),
(604,700,l),
(117,0,l)
);
},
{
closed = 1;
nodes = (
(737,-13,o),
(810,60,o),
(810,159,cs),
(810,257,o),
(737,330,o),
(638,330,cs),
(538,330,o),
(464,257,o),
(464,159,cs),
(464,60,o),
(538,-13,o),
(638,-13,cs)
);
},
{
closed = 1;
nodes = (
(599,87,o),
(570,118,o),
(570,159,cs),
(570,199,o),
(599,229,o),
(638,229,cs),
(676,229,o),
(705,199,o),
(705,159,cs),
(705,118,o),
(676,87,o),
(638,87,cs)
);
},
{
closed = 1;
nodes = (
(316,370,o),
(389,443,o),
(389,542,cs),
(389,640,o),
(316,713,o),
(217,713,cs),
(117,713,o),
(43,640,o),
(43,542,cs),
(43,443,o),
(117,370,o),
(217,370,cs)
);
},
{
closed = 1;
nodes = (
(178,470,o),
(149,501,o),
(149,542,cs),
(149,582,o),
(178,612,o),
(217,612,cs),
(255,612,o),
(284,582,o),
(284,542,cs),
(284,501,o),
(255,470,o),
(217,470,cs)
);
}
);
};
hints = (
{
horizontal = 1;
origin = (0,1);
type = TTSnap;
},
{
horizontal = 1;
origin = (0,3);
type = TTSnap;
},
{
horizontal = 1;
options = 4;
origin = (3,5);
stem = 2;
target = (4,5);
type = TTStem;
},
{
horizontal = 1;
options = 4;
origin = (4,5);
target = (3,11);
type = TTShift;
},
{
horizontal = 1;
options = 8;
origin = (3,11);
stem = 2;
target = (4,11);
type = TTStem;
},
{
horizontal = 1;
options = 4;
origin = (1,11);
stem = 2;
target = (2,11);
type = TTStem;
},
{
horizontal = 1;
options = 4;
origin = (2,11);
target = (1,5);
type = TTShift;
},
{
horizontal = 1;
options = 8;
origin = (1,5);
stem = 2;
target = (2,5);
type = TTStem;
},
{
horizontal = 1;
origin = (3,11);
settings = {
deltaV = {
"{0, 176, 0, 0, 0, 0}" = {
"10" = 2;
};
"{0, 230, 0, 0, 0, 0}" = {
"10" = 2;
};
"{1, 176, 0, 0, 0, 0}" = {
"10" = 2;
};
"{1, 230, 0, 0, 0, 0}" = {
"10" = 1;
};
};
};
type = TTDelta;
},
{
horizontal = 1;
origin = (1,5);
settings = {
deltaV = {
"{0, 176, 0, 0, 0, 0}" = {
"10" = -2;
};
"{0, 230, 0, 0, 0, 0}" = {
"10" = -1;
};
"{1, 176, 0, 0, 0, 0}" = {
"10" = -2;
};
"{1, 230, 0, 0, 0, 0}" = {
"10" = -1;
};
};
};
type = TTDelta;
}
);
layerId = "474EAD97-6F36-4C8E-8A0A-83C4F7DF9055";
shapes = (
{
closed = 1;
nodes = (
(249,0,l),
(736,700,l),
(604,700,l),
(117,0,l)
);
},
{
closed = 1;
nodes = (
(737,-13,o),
(810,60,o),
(810,159,cs),
(810,257,o),
(737,330,o),
(638,330,cs),
(538,330,o),
(464,257,o),
(464,159,cs),
(464,60,o),
(538,-13,o),
(638,-13,cs)
);
},
{
closed = 1;
nodes = (
(599,87,o),
(570,118,o),
(570,159,cs),
(570,199,o),
(599,229,o),
(638,229,cs),
(676,229,o),
(705,199,o),
(705,159,cs),
(705,118,o),
(676,87,o),
(638,87,cs)
);
},
{
closed = 1;
nodes = (
(316,370,o),
(389,443,o),
(389,542,cs),
(389,640,o),
(316,713,o),
(217,713,cs),
(117,713,o),
(43,640,o),
(43,542,cs),
(43,443,o),
(117,370,o),
(217,370,cs)
);
},
{
closed = 1;
nodes = (
(178,470,o),
(149,501,o),
(149,542,cs),
(149,582,o),
(178,612,o),
(217,612,cs),
(255,612,o),
(284,582,o),
(284,542,cs),
(284,501,o),
(255,470,o),
(217,470,cs)
);
}
);
width = 853;
}
);
unicode = 37;
}
{
glyphname = ampersand;
kernLeft = ampersand;
kernRight = ampersand;
layers = (
{
background = {
shapes = (
{
closed = 1;
nodes = (
(614,0,l),
(329,308,ls),
(181,468,o),
(147,506,o),
(147,551,cs),
(147,607,o),
(185,649,o),
(241,649,cs),
(302,649,o),
(345,610,o),
(362,538,c),
(423,554,l),
(405,645,o),
(340,708,o),
(241,708,cs),
(147,708,o),
(80,639,o),
(80,555,cs),
(80,483,o),
(119,440,o),
(194,360,c),
(205,353,l),
(416,127,l),
(422,115,l),
(528,0,l)
);
},
{
closed = 1;
nodes = (
(322,-8,o),
(419,38,o),
(462,141,c),
(413,183,l),
(382,88,o),
(303,51,o),
(236,51,cs),
(159,51,o),
(105,97,o),
(105,165,cs),
(105,244,o),
(173,297,o),
(244,351,c),
(201,392,l),
(122,333,o),
(38,267,o),
(38,163,cs),
(38,58,o),
(114,-8,o),
(232,-8,cs)
);
},
{
closed = 1;
nodes = (
(423,425,l),
(423,288,ls),
(423,252,o),
(420,221,o),
(415,195,c),
(467,155,l),
(477,191,o),
(483,233,o),
(483,282,cs),
(483,366,l),
(596,366,l),
(596,425,l)
);
}
);
};
layerId = "9CA0F1F1-C419-4983-8E88-5CF3F967428B";
shapes = (
{
closed = 1;
nodes = (
(614,0,l),
(329,308,ls),
(181,468,o),
(147,506,o),
(147,551,cs),
(147,607,o),
(185,649,o),
(241,649,cs),
(302,649,o),
(345,610,o),
(362,538,c),
(423,554,l),
(405,645,o),
(340,708,o),
(241,708,cs),
(147,708,o),
(80,639,o),
(80,555,cs),
(80,483,o),
(119,440,o),
(194,360,c),
(205,353,l),
(416,127,l),
(422,115,l),
(528,0,l)
);
},
{
closed = 1;
nodes = (
(322,-8,o),
(419,38,o),
(462,141,c),
(413,183,l),
(382,88,o),
(303,51,o),
(236,51,cs),
(159,51,o),
(105,97,o),
(105,165,cs),
(105,244,o),
(173,297,o),
(244,351,c),
(201,392,l),
(122,333,o),
(38,267,o),
(38,163,cs),
(38,58,o),
(114,-8,o),
(232,-8,cs)
);
},
{
closed = 1;
nodes = (
(423,425,l),
(423,288,ls),
(423,252,o),
(420,221,o),
(415,195,c),
(467,155,l),
(477,191,o),
(483,233,o),
(483,282,cs),
(483,366,l),
(596,366,l),
(596,425,l)
);
}
);
width = 628;
},
{
background = {
shapes = (
{
closed = 1;
nodes = (
(694,0,l),
(377,329,ls),
(248,465,o),
(221,488,o),
(221,526,cs),
(221,562,o),
(243,584,o),
(280,584,cs),
(318,584,o),
(357,551,o),
(374,484,c),
(504,525,l),
(482,638,o),
(405,713,o),
(280,713,cs),
(156,713,o),
(74,638,o),
(74,532,cs),
(74,453,o),
(112,402,o),
(184,326,c),
(205,312,l),
(408,102,l),
(416,85,l),
(498,0,l)
);
},
{
closed = 1;
nodes = (
(337,-13,o),
(432,10,o),
(481,95,c),
(386,180,l),
(350,131,o),
(307,119,o),
(270,119,cs),
(223,119,o),
(192,145,o),
(192,188,cs),
(192,227,o),
(230,262,o),
(279,298,c),
(195,397,l),
(117,343,o),
(36,274,o),
(36,174,cs),
(36,61,o),
(118,-13,o),
(260,-13,cs)
);
},
{
closed = 1;
nodes = (
(444,437,l),
(444,319,ls),
(444,279,o),
(431,243,o),
(412,213,c),
(506,126,l),
(548,174,o),
(571,233,o),
(571,300,cs),
(571,311,l),
(667,311,l),
(667,437,l)
);
}
);
};
hints = (
{
horizontal = 1;
options = 4;
origin = (0,14);
target = (0,7);
type = TTStem;
},
{
horizontal = 1;
options = 4;
origin = (1,19);
target = (1,6);
type = TTStem;
},
{
horizontal = 1;
origin = (0,0);
type = TTSnap;
},
{
horizontal = 1;
options = 4;
origin = (0,7);
other1 = (2,0);
target = (1,6);
type = TTInterpolate;
},
{
horizontal = 1;
options = 8;
origin = (2,0);
target = (2,9);
type = TTStem;
},
{
horizontal = 1;
options = 4;
origin = (0,7);
other1 = (0,10);
target = (2,0);
type = TTInterpolate;
},
{
horizontal = 1;
options = 4;
origin = (0,7);
other1 = (0,22,1,12);
target = (1,19);
type = TTInterpolate;
}
);
layerId = "5500A485-9BC9-4FA7-853B-8075021C5598";
shapes = (
{
closed = 1;
nodes = (
(694,0,l),
(377,329,ls),
(248,465,o),
(221,488,o),
(221,526,cs),
(221,562,o),
(243,584,o),
(280,584,cs),
(318,584,o),
(357,551,o),
(374,484,c),
(504,525,l),
(482,638,o),
(405,713,o),
(280,713,cs),
(156,713,o),
(74,638,o),
(74,532,cs),
(74,453,o),
(112,402,o),
(184,326,c),
(205,312,l),
(408,102,l),
(416,85,l),
(498,0,l)
);
},
{
closed = 1;
nodes = (
(337,-13,o),
(432,10,o),
(481,95,c),
(386,180,l),
(350,131,o),
(307,119,o),
(270,119,cs),
(223,119,o),
(192,145,o),
(192,188,cs),
(192,227,o),
(230,262,o),
(279,298,c),
(195,397,l),
(117,343,o),
(36,274,o),
(36,174,cs),
(36,61,o),
(118,-13,o),
(260,-13,cs)
);
},
{
closed = 1;
nodes = (
(444,437,l),
(444,319,ls),
(444,279,o),
(431,243,o),
(412,213,c),
(506,126,l),
(548,174,o),
(571,233,o),
(571,300,cs),
(571,311,l),
(667,311,l),
(667,437,l)
);
}
);
width = 704;
},
{
associatedMasterId = "9CA0F1F1-C419-4983-8E88-5CF3F967428B";
background = {
shapes = (
{
closed = 1;
nodes = (
(547,0,l),
(345,309,ls),
(265,431,o),
(219,483,o),
(219,536,cs),
(219,600,o),
(266,649,o),
(329,649,cs),
(388,649,o),
(417,616,o),
(431,540,c),
(494,552,l),
(485,652,o),
(429,708,o),
(337,708,cs),
(233,708,o),
(150,630,o),
(150,532,cs),
(150,477,o),
(184,427,o),
(231,360,c),
(241,353,l),
(390,127,l),
(393,115,l),
(468,0,l)
);
},
{
closed = 1;
nodes = (
(278,-8,o),
(363,26,o),
(432,141,c),
(389,183,l),
(335,76,o),
(259,51,o),
(196,51,cs),
(131,51,o),
(88,93,o),
(88,148,cs),
(88,239,o),
(184,296,o),
(267,351,c),
(234,392,l),
(132,326,o),
(20,265,o),
(20,142,cs),
(20,57,o),
(90,-8,o),
(191,-8,cs)
);
},
{
closed = 1;
nodes = (
(460,425,l),
(426,288,ls),
(418,255,o),
(406,223,o),
(393,195,c),
(439,155,l),
(458,192,o),
(474,231,o),
(487,282,cs),
(509,366,l),
(607,366,l),
(622,425,l)
);
}
);
};
layerId = "B8B1B9F7-57AD-40F6-8824-2C22876E3A5C";
name = "new Layer";
shapes = (
{
closed = 1;
nodes = (
(547,0,l),
(345,309,ls),
(265,431,o),
(219,483,o),
(219,536,cs),
(219,600,o),
(266,649,o),
(329,649,cs),
(388,649,o),
(417,616,o),
(431,540,c),
(494,552,l),
(485,652,o),
(429,708,o),
(337,708,cs),
(233,708,o),
(150,630,o),
(150,532,cs),
(150,477,o),
(184,427,o),
(231,360,c),
(241,353,l),
(390,127,l),
(393,115,l),
(468,0,l)
);
},
{
closed = 1;
nodes = (
(278,-8,o),
(363,26,o),
(432,141,c),
(389,183,l),
(335,76,o),
(259,51,o),
(196,51,cs),
(131,51,o),
(88,93,o),
(88,148,cs),
(88,239,o),
(184,296,o),
(267,351,c),
(234,392,l),
(132,326,o),
(20,265,o),
(20,142,cs),
(20,57,o),
(90,-8,o),
(191,-8,cs)
);
},
{
closed = 1;
nodes = (
(460,425,l),
(426,288,ls),
(418,255,o),
(406,223,o),
(393,195,c),
(439,155,l),
(458,192,o),
(474,231,o),
(487,282,cs),
(509,366,l),
(607,366,l),
(622,425,l)
);
}
);
width = 617;
},
{
associatedMasterId = "9CA0F1F1-C419-4983-8E88-5CF3F967428B";
background = {
shapes = (
{
closed = 1;
nodes = (
(618,0,l),
(387,330,ls),
(304,448,o),
(278,487,o),
(278,519,cs),
(278,555,o),
(301,584,o),
(346,584,cs),
(382,584,o),
(413,552,o),
(423,491,c),
(560,522,l),
(549,642,o),
(470,713,o),
(346,713,cs),
(219,713,o),
(125,631,o),
(125,513,cs),
(125,450,o),
(164,389,o),
(213,326,c),
(231,312,l),
(376,102,l),
(383,85,l),
(444,0,l)
);
},
{
closed = 1;
nodes = (
(295,-13,o),
(366,6,o),
(435,91,c),
(356,180,l),
(308,131,o),
(269,119,o),
(237,119,cs),
(201,119,o),
(179,141,o),
(179,173,cs),
(179,222,o),
(220,256,o),
(285,298,c),
(225,397,l),
(122,336,o),
(16,272,o),
(16,152,cs),
(16,59,o),
(99,-13,o),
(222,-13,cs)
);
},
{
closed = 1;
nodes = (
(471,437,l),
(441,319,ls),
(431,279,o),
(408,243,o),
(381,213,c),
(468,126,l),
(516,170,o),
(553,234,o),
(569,300,cs),
(572,311,l),
(654,311,l),
(686,437,l)
);
}
);
};
layerId = "2275FDE9-41F5-43D3-856B-3453FC30E713";
name = "new Layer";
shapes = (
{
closed = 1;
nodes = (
(618,0,l),
(387,330,ls),
(304,448,o),
(278,487,o),
(278,519,cs),
(278,555,o),
(301,584,o),
(346,584,cs),
(382,584,o),
(413,552,o),
(423,491,c),
(560,522,l),
(549,642,o),
(470,713,o),
(346,713,cs),
(219,713,o),
(125,631,o),
(125,513,cs),
(125,450,o),
(164,389,o),
(213,326,c),
(231,312,l),
(376,102,l),
(383,85,l),
(444,0,l)
);
},
{
closed = 1;
nodes = (
(295,-13,o),
(366,6,o),
(435,91,c),
(356,180,l),
(308,131,o),
(269,119,o),
(237,119,cs),
(201,119,o),
(179,141,o),
(179,173,cs),
(179,222,o),
(220,256,o),
(285,298,c),
(225,397,l),
(122,336,o),
(16,272,o),
(16,152,cs),
(16,59,o),
(99,-13,o),
(222,-13,cs)
);
},
{
closed = 1;
nodes = (
(471,437,l),
(441,319,ls),
(431,279,o),
(408,243,o),
(381,213,c),
(468,126,l),
(516,170,o),
(553,234,o),
(569,300,cs),
(572,311,l),
(654,311,l),
(686,437,l)
);
}
);
width = 687;
},
{
background = {
shapes = (
{
closed = 1;
nodes = (
(634,0,l),
(349,308,ls),
(201,468,o),
(167,506,o),
(167,551,cs),
(167,607,o),
(205,649,o),
(261,649,cs),
(322,649,o),
(365,610,o),
(382,538,c),
(443,554,l),
(425,645,o),
(360,708,o),
(261,708,cs),
(167,708,o),
(100,639,o),
(100,555,cs),
(100,483,o),
(139,440,o),
(214,360,c),
(225,353,l),
(436,127,l),
(442,115,l),
(548,0,l)
);
},
{
closed = 1;
nodes = (
(342,-8,o),
(439,38,o),
(482,141,c),
(433,183,l),
(402,88,o),
(323,51,o),
(256,51,cs),
(179,51,o),
(125,97,o),
(125,165,cs),
(125,244,o),
(193,297,o),
(264,351,c),
(221,392,l),
(142,333,o),
(58,267,o),
(58,163,cs),
(58,58,o),
(134,-8,o),
(252,-8,cs)
);
},
{
closed = 1;
nodes = (
(443,425,l),
(443,288,ls),
(443,252,o),
(440,221,o),
(435,195,c),
(487,155,l),
(497,191,o),
(503,233,o),
(503,282,cs),
(503,366,l),
(616,366,l),
(616,425,l)
);
}
);
};
layerId = "CAEAD647-A533-4D72-9ACE-F5DE50C4DBD4";
shapes = (
{
closed = 1;
nodes = (
(634,0,l),
(349,308,ls),
(201,468,o),
(167,506,o),
(167,551,cs),
(167,607,o),
(205,649,o),
(261,649,cs),
(322,649,o),
(365,610,o),
(382,538,c),
(443,554,l),
(425,645,o),
(360,708,o),
(261,708,cs),
(167,708,o),
(100,639,o),
(100,555,cs),
(100,483,o),
(139,440,o),
(214,360,c),
(225,353,l),
(436,127,l),
(442,115,l),
(548,0,l)
);
},
{
closed = 1;
nodes = (
(342,-8,o),
(439,38,o),
(482,141,c),
(433,183,l),
(402,88,o),
(323,51,o),
(256,51,cs),
(179,51,o),
(125,97,o),
(125,165,cs),
(125,244,o),
(193,297,o),
(264,351,c),
(221,392,l),
(142,333,o),
(58,267,o),
(58,163,cs),
(58,58,o),
(134,-8,o),
(252,-8,cs)
);
},
{
closed = 1;
nodes = (
(443,425,l),
(443,288,ls),
(443,252,o),
(440,221,o),
(435,195,c),
(487,155,l),
(497,191,o),
(503,233,o),
(503,282,cs),
(503,366,l),
(616,366,l),
(616,425,l)
);
}
);
width = 672;
},
{
associatedMasterId = "CAEAD647-A533-4D72-9ACE-F5DE50C4DBD4";
background = {
shapes = (
{
closed = 1;
nodes = (
(547,0,l),
(442,161,l),
(460,196,o),
(474,234,o),
(487,282,cs),
(505,352,l),
(604,352,l),
(619,411,l),
(457,411,l),
(426,288,ls),
(419,261,o),
(411,235,o),
(402,211,c),
(399,211,l),
(393,227,o),
(374,265,o),
(345,309,cs),
(265,431,o),
(219,483,o),
(219,536,cs),
(219,600,o),
(266,649,o),
(329,649,cs),
(387,649,o),
(416,617,o),
(430,542,c),
(494,554,l),
(485,653,o),
(428,708,o),
(337,708,cs),
(233,708,o),
(150,630,o),
(150,532,cs),
(150,477,o),
(184,427,o),
(231,360,c),
(241,353,l),
(390,127,l),
(393,115,l),
(468,0,l)
);
},
{
closed = 1;
nodes = (
(278,-8,o),
(363,26,o),
(432,141,c),
(389,183,l),
(335,76,o),
(259,51,o),
(196,51,cs),
(131,51,o),
(88,93,o),
(88,148,cs),
(88,239,o),
(184,296,o),
(267,351,c),
(234,392,l),
(132,326,o),
(20,265,o),
(20,142,cs),
(20,57,o),
(90,-8,o),
(191,-8,cs)
);
}
);
};
color = 5;
layerId = "F4AF93EE-D560-4D7F-A7A7-D6F52AAFE99B";
name = "new Layer";
shapes = (
{
closed = 1;
nodes = (
(547,0,l),
(442,161,l),
(460,196,o),
(474,234,o),
(487,282,cs),
(505,352,l),
(604,352,l),
(619,411,l),
(457,411,l),
(426,288,ls),
(419,261,o),
(411,235,o),
(402,211,c),
(399,211,l),
(393,227,o),
(374,265,o),
(345,309,cs),
(265,431,o),
(219,483,o),
(219,536,cs),
(219,600,o),
(266,649,o),
(329,649,cs),
(387,649,o),
(416,617,o),
(430,542,c),
(494,554,l),
(485,653,o),
(428,708,o),
(337,708,cs),
(233,708,o),
(150,630,o),
(150,532,cs),
(150,477,o),
(184,427,o),
(231,360,c),
(241,353,l),
(390,127,l),
(393,115,l),
(468,0,l)
);
},
{
closed = 1;
nodes = (
(278,-8,o),
(363,26,o),
(432,141,c),
(389,183,l),
(335,76,o),
(259,51,o),
(196,51,cs),
(131,51,o),
(88,93,o),
(88,148,cs),
(88,239,o),
(184,296,o),
(267,351,c),
(234,392,l),
(132,326,o),
(20,265,o),
(20,142,cs),
(20,57,o),
(90,-8,o),
(191,-8,cs)
);
}
);
width = 618;
},
{
associatedMasterId = "CAEAD647-A533-4D72-9ACE-F5DE50C4DBD4";
background = {
shapes = (
{
closed = 1;
nodes = (
(618,0,l),
(504,164,l),
(534,200,o),
(556,244,o),
(568,292,cs),
(571,303,l),
(653,303,l),
(685,429,l),
(470,429,l),
(441,319,ls),
(436,302,o),
(431,277,o),
(422,258,c),
(418,258,l),
(416,275,o),
(411,295,o),
(387,330,cs),
(304,448,o),
(278,487,o),
(278,519,cs),
(278,555,o),
(301,584,o),
(346,584,cs),
(380,584,o),
(409,556,o),
(421,502,c),
(559,534,l),
(544,647,o),
(466,713,o),
(346,713,cs),
(219,713,o),
(125,631,o),
(125,513,cs),
(125,450,o),
(164,389,o),
(213,326,c),
(236,312,l),
(381,102,l),
(383,85,l),
(444,0,l)
);
},
{
closed = 1;
nodes = (
(295,-13,o),
(366,6,o),
(435,91,c),
(356,180,l),
(308,131,o),
(269,119,o),
(237,119,cs),
(201,119,o),
(179,141,o),
(179,173,cs),
(179,222,o),
(220,256,o),
(285,298,c),
(225,397,l),
(122,336,o),
(16,272,o),
(16,152,cs),
(16,59,o),
(99,-13,o),
(222,-13,cs)
);
}
);
};
layerId = "1913F634-3E6B-457B-8A2A-48C696E4A1E7";
name = "new Layer";
shapes = (
{
closed = 1;
nodes = (
(618,0,l),
(504,164,l),
(534,200,o),
(556,244,o),
(568,292,cs),
(571,303,l),
(653,303,l),
(685,429,l),
(470,429,l),
(441,319,ls),
(436,302,o),
(431,277,o),
(422,258,c),
(418,258,l),
(416,275,o),
(411,295,o),
(387,330,cs),
(304,448,o),
(278,487,o),
(278,519,cs),
(278,555,o),
(301,584,o),
(346,584,cs),
(380,584,o),
(409,556,o),
(421,502,c),
(559,534,l),
(544,647,o),
(466,713,o),
(346,713,cs),
(219,713,o),
(125,631,o),
(125,513,cs),
(125,450,o),
(164,389,o),
(213,326,c),
(236,312,l),
(381,102,l),
(383,85,l),
(444,0,l)
);
},
{
closed = 1;
nodes = (
(295,-13,o),
(366,6,o),
(435,91,c),
(356,180,l),
(308,131,o),
(269,119,o),
(237,119,cs),
(201,119,o),
(179,141,o),
(179,173,cs),
(179,222,o),
(220,256,o),
(285,298,c),
(225,397,l),
(122,336,o),
(16,272,o),
(16,152,cs),
(16,59,o),
(99,-13,o),
(222,-13,cs)
);
}
);
width = 686;
},
{
background = {
shapes = (
{
closed = 1;
nodes = (
(714,0,l),
(397,329,ls),
(268,465,o),
(241,488,o),
(241,526,cs),
(241,562,o),
(263,584,o),
(300,584,cs),
(338,584,o),
(377,551,o),
(394,484,c),
(524,525,l),
(502,638,o),
(425,713,o),
(300,713,cs),
(176,713,o),
(94,638,o),
(94,532,cs),
(94,453,o),
(132,402,o),
(204,326,c),
(225,312,l),
(428,102,l),
(436,85,l),
(518,0,l)
);
},
{
closed = 1;
nodes = (
(357,-13,o),
(452,10,o),
(501,95,c),
(406,180,l),
(370,131,o),
(327,119,o),
(290,119,cs),
(243,119,o),
(212,145,o),
(212,188,cs),
(212,227,o),
(250,262,o),
(299,298,c),
(215,397,l),
(137,343,o),
(56,274,o),
(56,174,cs),
(56,61,o),
(138,-13,o),
(280,-13,cs)
);
},
{
closed = 1;
nodes = (
(464,437,l),
(464,319,ls),
(464,279,o),
(451,243,o),
(432,213,c),
(526,126,l),
(568,174,o),
(591,233,o),
(591,300,cs),
(591,311,l),
(687,311,l),
(687,437,l)
);
}
);
};
hints = (
{
horizontal = 1;
options = 4;
origin = (0,14);
target = (0,7);
type = TTStem;
},
{
horizontal = 1;
options = 4;
origin = (1,19);
target = (1,6);
type = TTStem;
},
{
horizontal = 1;
origin = (0,0);
type = TTSnap;
},
{
horizontal = 1;
options = 4;
origin = (0,7);
other1 = (2,0);
target = (1,6);
type = TTInterpolate;
},
{
horizontal = 1;
options = 8;
origin = (2,0);
target = (2,9);
type = TTStem;
},
{
horizontal = 1;
options = 4;
origin = (0,7);
other1 = (0,10);
target = (2,0);
type = TTInterpolate;
},
{
horizontal = 1;
options = 4;
origin = (0,7);
other1 = (0,22,1,12);
target = (1,19);
type = TTInterpolate;
}
);
layerId = "474EAD97-6F36-4C8E-8A0A-83C4F7DF9055";
shapes = (
{
closed = 1;
nodes = (
(714,0,l),
(397,329,ls),
(268,465,o),
(241,488,o),
(241,526,cs),
(241,562,o),
(263,584,o),
(300,584,cs),
(338,584,o),
(377,551,o),
(394,484,c),
(524,525,l),
(502,638,o),
(425,713,o),
(300,713,cs),
(176,713,o),
(94,638,o),
(94,532,cs),
(94,453,o),
(132,402,o),
(204,326,c),
(225,312,l),
(428,102,l),
(436,85,l),
(518,0,l)
);
},
{
closed = 1;
nodes = (
(357,-13,o),
(452,10,o),
(501,95,c),
(406,180,l),
(370,131,o),
(327,119,o),
(290,119,cs),
(243,119,o),
(212,145,o),
(212,188,cs),
(212,227,o),
(250,262,o),
(299,298,c),
(215,397,l),
(137,343,o),
(56,274,o),
(56,174,cs),
(56,61,o),
(138,-13,o),
(280,-13,cs)
);
},
{
closed = 1;
nodes = (
(464,437,l),
(464,319,ls),
(464,279,o),
(451,243,o),
(432,213,c),
(526,126,l),
(568,174,o),
(591,233,o),
(591,300,cs),
(591,311,l),
(687,311,l),
(687,437,l)
);
}
);
width = 744;
}
);
note = "leicht optimiert";
unicode = 38;
}
{
glyphname = parenleft;
kernRight = parenleft;
layers = (
{
background = {
shapes = (
{
closed = 1;
nodes = (
(257,-116,l),
(160,-12,o),
(101,143,o),
(101,284,cs),
(101,425,o),
(160,580,o),
(257,684,c),
(213,725,l),
(106,616,o),
(35,447,o),
(35,284,cs),
(35,121,o),
(106,-48,o),
(213,-157,c)
);
}
);
};
layerId = "9CA0F1F1-C419-4983-8E88-5CF3F967428B";
shapes = (
{
closed = 1;
nodes = (
(257,-116,l),
(160,-12,o),
(101,143,o),
(101,284,cs),
(101,425,o),
(160,580,o),
(257,684,c),
(213,725,l),
(106,616,o),
(35,447,o),
(35,284,cs),
(35,121,o),
(106,-48,o),
(213,-157,c)
);
}
);
width = 265;
},
{
background = {
shapes = (
{
closed = 1;
nodes = (
(322,-59,l),
(227,33,o),
(185,150,o),
(185,284,cs),
(185,418,o),
(227,535,o),
(322,627,c),
(230,735,l),
(102,640,o),
(29,474,o),
(29,284,cs),
(29,94,o),
(102,-72,o),
(230,-167,c)
);
}
);
};
hints = (
{
horizontal = 1;
origin = (0,7);
type = TTSnap;
},
{
horizontal = 1;
origin = (0,13);
type = TTSnap;
}
);
layerId = "5500A485-9BC9-4FA7-853B-8075021C5598";
shapes = (
{
closed = 1;
nodes = (
(322,-59,l),
(227,33,o),
(185,150,o),
(185,284,cs),
(185,418,o),
(227,535,o),
(322,627,c),
(230,735,l),
(102,640,o),
(29,474,o),
(29,284,cs),
(29,94,o),
(102,-72,o),
(230,-167,c)
);
}
);
width = 336;
},
{
associatedMasterId = "9CA0F1F1-C419-4983-8E88-5CF3F967428B";
background = {
shapes = (
{
closed = 1;
nodes = (
(166,-123,l),
(116,-43,o),
(92,49,o),
(92,143,cs),
(92,337,o),
(189,534,o),
(360,681,c),
(319,726,l),
(135,563,o),
(27,354,o),
(27,154,cs),
(27,50,o),
(57,-63,o),
(116,-157,c)
);
}
);
};
layerId = "B8B1B9F7-57AD-40F6-8824-2C22876E3A5C";
name = "new Layer";
shapes = (
{
closed = 1;
nodes = (
(166,-123,l),
(116,-43,o),
(92,49,o),
(92,143,cs),
(92,337,o),
(189,534,o),
(360,681,c),
(319,726,l),
(135,563,o),
(27,354,o),
(27,154,cs),
(27,50,o),
(57,-63,o),
(116,-157,c)
);
}
);
width = 263;
},
{
associatedMasterId = "9CA0F1F1-C419-4983-8E88-5CF3F967428B";
background = {
shapes = (
{
closed = 1;
nodes = (
(247,-80,l),
(201,-16,o),
(175,69,o),
(175,154,cs),
(175,325,o),
(264,495,o),
(419,620,c),
(330,731,l),
(121,582,o),
(19,357,o),
(19,155,cs),
(19,37,o),
(60,-80,o),
(131,-164,c)
);
}
);
};
layerId = "2275FDE9-41F5-43D3-856B-3453FC30E713";
name = "new Layer";
shapes = (
{
closed = 1;
nodes = (
(247,-80,l),
(201,-16,o),
(175,69,o),
(175,154,cs),
(175,325,o),
(264,495,o),
(419,620,c),
(330,731,l),
(121,582,o),
(19,357,o),
(19,155,cs),
(19,37,o),
(60,-80,o),
(131,-164,c)
);
}
);
width = 342;
},
{
background = {
shapes = (
{
closed = 1;
nodes = (
(277,-116,l),
(180,-12,o),
(121,143,o),
(121,284,cs),
(121,425,o),
(180,580,o),
(277,684,c),
(233,725,l),
(126,616,o),
(55,447,o),
(55,284,cs),
(55,121,o),
(126,-48,o),
(233,-157,c)
);
}
);
};
layerId = "CAEAD647-A533-4D72-9ACE-F5DE50C4DBD4";
shapes = (
{
closed = 1;
nodes = (
(277,-116,l),
(180,-12,o),
(121,143,o),
(121,284,cs),
(121,425,o),
(180,580,o),
(277,684,c),
(233,725,l),
(126,616,o),
(55,447,o),
(55,284,cs),
(55,121,o),
(126,-48,o),
(233,-157,c)
);
}
);
width = 305;
},
{
associatedMasterId = "CAEAD647-A533-4D72-9ACE-F5DE50C4DBD4";
background = {
shapes = (
{
closed = 1;
nodes = (
(166,-123,l),
(116,-43,o),
(92,49,o),
(92,143,cs),
(92,337,o),
(189,534,o),
(360,681,c),
(319,726,l),
(135,563,o),
(27,354,o),
(27,154,cs),
(27,50,o),
(57,-63,o),
(116,-157,c)
);
}
);
};
layerId = "BE682BE9-4098-454D-AABF-65387EF94A28";
name = "new Layer";
shapes = (
{
closed = 1;
nodes = (
(166,-123,l),
(116,-43,o),
(92,49,o),
(92,143,cs),
(92,337,o),
(189,534,o),
(360,681,c),
(319,726,l),
(135,563,o),
(27,354,o),
(27,154,cs),
(27,50,o),
(57,-63,o),
(116,-157,c)
);
}
);
width = 263;
},
{
associatedMasterId = "CAEAD647-A533-4D72-9ACE-F5DE50C4DBD4";
background = {
shapes = (
{
closed = 1;
nodes = (
(247,-80,l),
(201,-16,o),
(175,69,o),
(175,154,cs),
(175,325,o),
(264,495,o),
(419,620,c),
(330,731,l),
(121,582,o),
(19,357,o),
(19,155,cs),
(19,37,o),
(60,-80,o),
(131,-164,c)
);
}
);
};
layerId = "B766C999-169C-4EFB-B90F-EAF28A0F4098";
name = "new Layer";
shapes = (
{
closed = 1;
nodes = (
(247,-80,l),
(201,-16,o),
(175,69,o),
(175,154,cs),
(175,325,o),
(264,495,o),
(419,620,c),
(330,731,l),
(121,582,o),
(19,357,o),
(19,155,cs),
(19,37,o),
(60,-80,o),
(131,-164,c)
);
}
);
width = 342;
},
{
background = {
shapes = (
{
closed = 1;
nodes = (
(342,-59,l),
(247,33,o),
(205,150,o),
(205,284,cs),
(205,418,o),
(247,535,o),
(342,627,c),
(250,735,l),
(122,640,o),
(49,474,o),
(49,284,cs),
(49,94,o),
(122,-72,o),
(250,-167,c)
);
}
);
};
hints = (
{
horizontal = 1;
origin = (0,7);
type = TTSnap;
},
{
horizontal = 1;
origin = (0,13);
type = TTSnap;
}
);
layerId = "474EAD97-6F36-4C8E-8A0A-83C4F7DF9055";
shapes = (
{
closed = 1;
nodes = (
(342,-59,l),
(247,33,o),
(205,150,o),
(205,284,cs),
(205,418,o),
(247,535,o),
(342,627,c),
(250,735,l),
(122,640,o),
(49,474,o),
(49,284,cs),
(49,94,o),
(122,-72,o),
(250,-167,c)
);
}
);
width = 376;
}
);
unicode = 40;
}
{
color = 6;
glyphname = parenright;
layers = (
{
background = {
shapes = (
{
closed = 1;
nodes = (
(7,685,l),
(104,581,o),
(163,426,o),
(163,285,cs),
(163,144,o),
(104,-11,o),
(7,-115,c),
(51,-156,l),
(158,-47,o),
(229,122,o),
(229,285,cs),
(229,448,o),
(158,617,o),
(51,726,c)
);
}
);
};
layerId = "9CA0F1F1-C419-4983-8E88-5CF3F967428B";
shapes = (
{
alignment = -1;
angle = 180;
pos = (264,569);
ref = parenleft;
}
);
width = 264;
},
{
background = {
hints = (
{
horizontal = 1;
origin = (0,7);
type = TTSnap;
},
{
horizontal = 1;
origin = (0,13);
type = TTSnap;
}
);
shapes = (
{
closed = 1;
nodes = (
(14,627,l),
(109,535,o),
(151,418,o),
(151,284,cs),
(151,150,o),
(109,33,o),
(14,-59,c),
(106,-167,l),
(234,-72,o),
(307,94,o),
(307,284,cs),
(307,474,o),
(234,640,o),
(106,735,c)
);
}
);
};
layerId = "5500A485-9BC9-4FA7-853B-8075021C5598";
shapes = (
{
alignment = -1;
angle = 180;
pos = (336,568);
ref = parenleft;
}
);
width = 336;
},
{
associatedMasterId = "9CA0F1F1-C419-4983-8E88-5CF3F967428B";
background = {
shapes = (
{
closed = 1;
nodes = (
(111,692,l),
(161,612,o),
(185,520,o),
(185,426,cs),
(185,232,o),
(88,35,o),
(-83,-112,c),
(-42,-157,l),
(142,6,o),
(250,215,o),
(250,415,cs),
(250,519,o),
(220,632,o),
(161,726,c)
);
}
);
};
layerId = "B8B1B9F7-57AD-40F6-8824-2C22876E3A5C";
name = "new Layer";
shapes = (
{
alignment = -1;
angle = 180;
pos = (277,569);
ref = parenleft;
}
);
width = 264;
},
{
associatedMasterId = "9CA0F1F1-C419-4983-8E88-5CF3F967428B";
background = {
shapes = (
{
closed = 1;
nodes = (
(103,648,l),
(149,584,o),
(175,499,o),
(175,414,cs),
(175,243,o),
(86,73,o),
(-69,-52,c),
(20,-163,l),
(229,-14,o),
(331,211,o),
(331,413,cs),
(331,531,o),
(290,648,o),
(219,732,c)
);
}
);
};
layerId = "2275FDE9-41F5-43D3-856B-3453FC30E713";
name = "new Layer";
shapes = (
{
alignment = -1;
angle = 180;
pos = (350,568);
ref = parenleft;
}
);
width = 343;
},
{
background = {
shapes = (
{
closed = 1;
nodes = (
(47,685,l),
(144,581,o),
(203,426,o),
(203,285,cs),
(203,144,o),
(144,-11,o),
(47,-115,c),
(91,-156,l),
(198,-47,o),
(269,122,o),
(269,285,cs),
(269,448,o),
(198,617,o),
(91,726,c)
);
}
);
};
layerId = "CAEAD647-A533-4D72-9ACE-F5DE50C4DBD4";
shapes = (
{
alignment = -1;
angle = 180;
pos = (304,569);
ref = parenleft;
}
);
width = 304;
},
{
associatedMasterId = "CAEAD647-A533-4D72-9ACE-F5DE50C4DBD4";
background = {
shapes = (
{
closed = 1;
nodes = (
(111,692,l),
(161,612,o),
(185,520,o),
(185,426,cs),
(185,232,o),
(88,35,o),
(-83,-112,c),
(-42,-157,l),
(142,6,o),
(250,215,o),
(250,415,cs),
(250,519,o),
(220,632,o),
(161,726,c)
);
}
);
};
layerId = "BD825E0B-9A8D-46B4-9B29-0D2E3AA34986";
name = "new Layer";
shapes = (
{
alignment = -1;
angle = 180;
pos = (277,569);
ref = parenleft;
}
);
width = 264;
},
{
associatedMasterId = "CAEAD647-A533-4D72-9ACE-F5DE50C4DBD4";
background = {
shapes = (
{
closed = 1;
nodes = (
(103,648,l),
(149,584,o),
(175,499,o),
(175,414,cs),
(175,243,o),
(86,73,o),
(-69,-52,c),
(20,-163,l),
(229,-14,o),
(331,211,o),
(331,413,cs),
(331,531,o),
(290,648,o),
(219,732,c)
);
}
);
};
layerId = "C9928392-7245-4E12-872F-CFA4C2E6B202";
name = "new Layer";
shapes = (
{
alignment = -1;
angle = 180;
pos = (350,568);
ref = parenleft;
}
);
width = 343;
},
{
background = {
hints = (
{
horizontal = 1;
origin = (0,7);
type = TTSnap;
},
{
horizontal = 1;
origin = (0,13);
type = TTSnap;
}
);
shapes = (
{
closed = 1;
nodes = (
(54,627,l),
(149,535,o),
(191,418,o),
(191,284,cs),
(191,150,o),
(149,33,o),
(54,-59,c),
(146,-167,l),
(274,-72,o),
(347,94,o),
(347,284,cs),
(347,474,o),
(274,640,o),
(146,735,c)
);
}
);
};
layerId = "474EAD97-6F36-4C8E-8A0A-83C4F7DF9055";
shapes = (
{
alignment = -1;
angle = 180;
pos = (376,568);
ref = parenleft;
}
);
width = 376;
}
);
unicode = 41;
}
{
glyphname = plus;
layers = (
{
background = {
shapes = (
{
closed = 1;
nodes = (
(115,305,l),
(115,248,l),
(485,248,l),
(485,305,l)
);
},
{
closed = 1;
nodes = (
(327,467,l),
(269,467,l),
(269,87,l),
(327,87,l)
);
}
);
};
layerId = "9CA0F1F1-C419-4983-8E88-5CF3F967428B";
shapes = (
{
closed = 1;
nodes = (
(115,305,l),
(115,248,l),
(485,248,l),
(485,305,l)
);
},
{
closed = 1;
nodes = (
(327,467,l),
(269,467,l),
(269,87,l),
(327,87,l)
);
}
);
width = 600;
},
{
background = {
shapes = (
{
closed = 1;
nodes = (
(115,347,l),
(115,225,l),
(485,225,l),
(485,347,l)
);
},
{
closed = 1;
nodes = (
(361,475,l),
(238,475,l),
(238,95,l),
(361,95,l)
);
}
);
};
hints = (
{
horizontal = 1;
options = 4;
origin = (0,1);
target = (0,0);
type = TTStem;
},
{
horizontal = 1;
options = 4;
origin = (0,0);
target = (0,3);
type = TTShift;
},
{
horizontal = 1;
options = 4;
origin = (0,1);
target = (0,2);
type = TTShift;
}
);
layerId = "5500A485-9BC9-4FA7-853B-8075021C5598";
shapes = (
{
closed = 1;
nodes = (
(115,347,l),
(115,225,l),
(485,225,l),
(485,347,l)
);
},
{
closed = 1;
nodes = (
(361,475,l),
(238,475,l),
(238,95,l),
(361,95,l)
);
}
);
width = 600;
},
{
associatedMasterId = "9CA0F1F1-C419-4983-8E88-5CF3F967428B";
background = {
shapes = (
{
closed = 1;
nodes = (
(130,305,l),
(116,248,l),
(479,248,l),
(493,305,l)
);
},
{
closed = 1;
nodes = (
(379,467,l),
(319,467,l),
(225,87,l),
(285,87,l)
);
}
);
};
layerId = "B8B1B9F7-57AD-40F6-8824-2C22876E3A5C";
name = "new Layer";
shapes = (
{
closed = 1;
nodes = (
(130,305,l),
(116,248,l),
(479,248,l),
(493,305,l)
);
},
{
closed = 1;
nodes = (
(379,467,l),
(319,467,l),
(225,87,l),
(285,87,l)
);
}
);
width = 600;
},
{
associatedMasterId = "9CA0F1F1-C419-4983-8E88-5CF3F967428B";
background = {
shapes = (
{
closed = 1;
nodes = (
(138,347,l),
(107,225,l),
(470,225,l),
(501,347,l)
);
},
{
closed = 1;
nodes = (
(413,475,l),
(287,475,l),
(193,95,l),
(319,95,l)
);
}
);
};
layerId = "2275FDE9-41F5-43D3-856B-3453FC30E713";
name = "new Layer";
shapes = (
{
closed = 1;
nodes = (
(138,347,l),
(107,225,l),
(470,225,l),
(501,347,l)
);
},
{
closed = 1;
nodes = (
(413,475,l),
(287,475,l),
(193,95,l),
(319,95,l)
);
}
);
width = 600;
},
{
background = {
shapes = (
{
closed = 1;
nodes = (
(135,305,l),
(135,248,l),
(505,248,l),
(505,305,l)
);
},
{
closed = 1;
nodes = (
(347,467,l),
(289,467,l),
(289,87,l),
(347,87,l)
);
}
);
};
layerId = "CAEAD647-A533-4D72-9ACE-F5DE50C4DBD4";
shapes = (
{
closed = 1;
nodes = (
(135,305,l),
(135,248,l),
(505,248,l),
(505,305,l)
);
},
{
closed = 1;
nodes = (
(347,467,l),
(289,467,l),
(289,87,l),
(347,87,l)
);
}
);
width = 640;
},
{
associatedMasterId = "CAEAD647-A533-4D72-9ACE-F5DE50C4DBD4";
background = {
shapes = (
{
closed = 1;
nodes = (
(130,305,l),
(116,248,l),
(479,248,l),
(493,305,l)
);
},
{
closed = 1;
nodes = (
(379,467,l),
(319,467,l),
(225,87,l),
(285,87,l)
);
}
);
};
layerId = "2FC7BA04-B91B-4008-81FD-0E5228E9129D";
name = "new Layer";
shapes = (
{
closed = 1;
nodes = (
(130,305,l),
(116,248,l),
(479,248,l),
(493,305,l)
);
},
{
closed = 1;
nodes = (
(379,467,l),
(319,467,l),
(225,87,l),
(285,87,l)
);
}
);
width = 600;
},
{
associatedMasterId = "CAEAD647-A533-4D72-9ACE-F5DE50C4DBD4";
background = {
shapes = (
{
closed = 1;
nodes = (
(138,347,l),
(107,225,l),
(470,225,l),
(501,347,l)
);
},
{
closed = 1;
nodes = (
(413,475,l),
(287,475,l),
(193,95,l),
(319,95,l)
);
}
);
};
layerId = "B7D28E0F-9150-4157-9191-E2EFE9735D5C";
name = "new Layer";
shapes = (
{
closed = 1;
nodes = (
(138,347,l),
(107,225,l),
(470,225,l),
(501,347,l)
);
},
{
closed = 1;
nodes = (
(413,475,l),
(287,475,l),
(193,95,l),
(319,95,l)
);
}
);
width = 600;
},
{
background = {
shapes = (
{
closed = 1;
nodes = (
(135,347,l),
(135,225,l),
(505,225,l),
(505,347,l)
);
},
{
closed = 1;
nodes = (
(381,475,l),
(258,475,l),
(258,95,l),
(381,95,l)
);
}
);
};
hints = (
{
horizontal = 1;
options = 4;
origin = (0,1);
target = (0,0);
type = TTStem;
},
{
horizontal = 1;
options = 4;
origin = (0,0);
target = (0,3);
type = TTShift;
},
{
horizontal = 1;
options = 4;
origin = (0,1);
target = (0,2);
type = TTShift;
}
);
layerId = "474EAD97-6F36-4C8E-8A0A-83C4F7DF9055";
shapes = (
{
closed = 1;
nodes = (
(135,347,l),
(135,225,l),
(505,225,l),
(505,347,l)
);
},
{
closed = 1;
nodes = (
(381,475,l),
(258,475,l),
(258,95,l),
(381,95,l)
);
}
);
width = 640;
}
);
unicode = 43;
}
{
glyphname = period;
kernLeft = period;
kernRight = period;
layers = (
{
background = {
shapes = (
{
closed = 1;
nodes = (
(115,-9,o),
(137,13,o),
(137,42,cs),
(137,70,o),
(115,92,o),
(86,92,cs),
(58,92,o),
(37,70,o),
(37,42,cs),
(37,13,o),
(58,-9,o),
(86,-9,cs)
);
}
);
};
layerId = "9CA0F1F1-C419-4983-8E88-5CF3F967428B";
shapes = (
{
closed = 1;
nodes = (
(115,-9,o),
(137,13,o),
(137,42,cs),
(137,70,o),
(115,92,o),
(86,92,cs),
(58,92,o),
(37,70,o),
(37,42,cs),
(37,13,o),
(58,-9,o),
(86,-9,cs)
);
}
);
width = 174;
},
{
background = {
shapes = (
{
closed = 1;
nodes = (
(180,-13,o),
(219,28,o),
(219,85,cs),
(219,142,o),
(180,182,o),
(124,182,cs),
(67,182,o),
(28,142,o),
(28,85,cs),
(28,28,o),
(67,-13,o),
(124,-13,cs)
);
}
);
};
hints = (
{
horizontal = 1;
options = 4;
origin = (0,11);
type = TTSnap;
},
{
horizontal = 1;
options = 4;
origin = (0,11);
stem = -1;
target = (0,5);
type = TTStem;
}
);
layerId = "5500A485-9BC9-4FA7-853B-8075021C5598";
shapes = (
{
closed = 1;
nodes = (
(180,-13,o),
(219,28,o),
(219,85,cs),
(219,142,o),
(180,182,o),
(124,182,cs),
(67,182,o),
(28,142,o),
(28,85,cs),
(28,28,o),
(67,-13,o),
(124,-13,cs)
);
}
);
width = 247;
},
{
associatedMasterId = "9CA0F1F1-C419-4983-8E88-5CF3F967428B";
background = {
shapes = (
{
closed = 1;
nodes = (
(72,-9,o),
(94,13,o),
(94,42,cs),
(94,70,o),
(72,92,o),
(43,92,cs),
(15,92,o),
(-6,70,o),
(-6,42,cs),
(-6,13,o),
(15,-9,o),
(43,-9,cs)
);
}
);
};
layerId = "B8B1B9F7-57AD-40F6-8824-2C22876E3A5C";
name = "new Layer";
shapes = (
{
closed = 1;
nodes = (
(72,-9,o),
(94,13,o),
(94,42,cs),
(94,70,o),
(72,92,o),
(43,92,cs),
(15,92,o),
(-6,70,o),
(-6,42,cs),
(-6,13,o),
(15,-9,o),
(43,-9,cs)
);
}
);
width = 174;
},
{
associatedMasterId = "9CA0F1F1-C419-4983-8E88-5CF3F967428B";
background = {
shapes = (
{
closed = 1;
nodes = (
(144,-13,o),
(183,28,o),
(183,85,cs),
(183,142,o),
(144,182,o),
(88,182,cs),
(31,182,o),
(-8,142,o),
(-8,85,cs),
(-8,28,o),
(31,-13,o),
(88,-13,cs)
);
}
);
};
layerId = "2275FDE9-41F5-43D3-856B-3453FC30E713";
name = "new Layer";
shapes = (
{
closed = 1;
nodes = (
(144,-13,o),
(183,28,o),
(183,85,cs),
(183,142,o),
(144,182,o),
(88,182,cs),
(31,182,o),
(-8,142,o),
(-8,85,cs),
(-8,28,o),
(31,-13,o),
(88,-13,cs)
);
}
);
width = 250;
},
{
background = {
shapes = (
{
closed = 1;
nodes = (
(135,-9,o),
(157,13,o),
(157,42,cs),
(157,70,o),
(135,92,o),
(106,92,cs),
(78,92,o),
(57,70,o),
(57,42,cs),
(57,13,o),
(78,-9,o),
(106,-9,cs)
);
}
);
};
layerId = "CAEAD647-A533-4D72-9ACE-F5DE50C4DBD4";
shapes = (
{
closed = 1;
nodes = (
(135,-9,o),
(157,13,o),
(157,42,cs),
(157,70,o),
(135,92,o),
(106,92,cs),
(78,92,o),
(57,70,o),
(57,42,cs),
(57,13,o),
(78,-9,o),
(106,-9,cs)
);
}
);
width = 214;
},
{
associatedMasterId = "CAEAD647-A533-4D72-9ACE-F5DE50C4DBD4";
background = {
shapes = (
{
closed = 1;
nodes = (
(72,-9,o),
(94,13,o),
(94,42,cs),
(94,70,o),
(72,92,o),
(43,92,cs),
(15,92,o),
(-6,70,o),
(-6,42,cs),
(-6,13,o),
(15,-9,o),
(43,-9,cs)
);
}
);
};
layerId = "34A88C40-1724-4E2E-892D-C462BED1214C";
name = "new Layer";
shapes = (
{
closed = 1;
nodes = (
(72,-9,o),
(94,13,o),
(94,42,cs),
(94,70,o),
(72,92,o),
(43,92,cs),
(15,92,o),
(-6,70,o),
(-6,42,cs),
(-6,13,o),
(15,-9,o),
(43,-9,cs)
);
}
);
width = 174;
},
{
associatedMasterId = "CAEAD647-A533-4D72-9ACE-F5DE50C4DBD4";
background = {
shapes = (
{
closed = 1;
nodes = (
(144,-13,o),
(183,28,o),
(183,85,cs),
(183,142,o),
(144,182,o),
(88,182,cs),
(31,182,o),
(-8,142,o),
(-8,85,cs),
(-8,28,o),
(31,-13,o),
(88,-13,cs)
);
}
);
};
layerId = "B7C6BF76-94FA-44E7-BDC4-4A7C05DE3373";
name = "new Layer";
shapes = (
{
closed = 1;
nodes = (
(144,-13,o),
(183,28,o),
(183,85,cs),
(183,142,o),
(144,182,o),
(88,182,cs),
(31,182,o),
(-8,142,o),
(-8,85,cs),
(-8,28,o),
(31,-13,o),
(88,-13,cs)
);
}
);
width = 250;
},
{
background = {
shapes = (
{
closed = 1;
nodes = (
(200,-13,o),
(239,28,o),
(239,85,cs),
(239,142,o),
(200,182,o),
(144,182,cs),
(87,182,o),
(48,142,o),
(48,85,cs),
(48,28,o),
(87,-13,o),
(144,-13,cs)
);
}
);
};
hints = (
{
horizontal = 1;
options = 4;
origin = (0,11);
type = TTSnap;
},
{
horizontal = 1;
options = 4;
origin = (0,11);
stem = -1;
target = (0,5);
type = TTStem;
}
);
layerId = "474EAD97-6F36-4C8E-8A0A-83C4F7DF9055";
shapes = (
{
closed = 1;
nodes = (
(200,-13,o),
(239,28,o),
(239,85,cs),
(239,142,o),
(200,182,o),
(144,182,cs),
(87,182,o),
(48,142,o),
(48,85,cs),
(48,28,o),
(87,-13,o),
(144,-13,cs)
);
}
);
width = 287;
}
);
unicode = 46;
}
{
glyphname = zero;
kernLeft = zero;
kernRight = zero;
layers = (
{
background = {
shapes = (
{
closed = 1;
nodes = (
(148,709,o),
(42,581,o),
(42,350,cs),
(42,119,o),
(148,-9,o),
(300,-9,cs),
(452,-9,o),
(558,119,o),
(558,350,cs),
(558,581,o),
(452,709,o),
(300,709,cs)
);
},
{
closed = 1;
nodes = (
(409,646,o),
(490,560,o),
(490,350,cs),
(490,140,o),
(409,54,o),
(300,54,cs),
(191,54,o),
(110,140,o),
(110,350,cs),
(110,560,o),
(191,646,o),
(300,646,cs)
);
}
);
};
layerId = "9CA0F1F1-C419-4983-8E88-5CF3F967428B";
shapes = (
{
closed = 1;
nodes = (
(148,709,o),
(42,581,o),
(42,350,cs),
(42,119,o),
(148,-9,o),
(300,-9,cs),
(452,-9,o),
(558,119,o),
(558,350,cs),
(558,581,o),
(452,709,o),
(300,709,cs)
);
},
{
closed = 1;
nodes = (
(409,646,o),
(490,560,o),
(490,350,cs),
(490,140,o),
(409,54,o),
(300,54,cs),
(191,54,o),
(110,140,o),
(110,350,cs),
(110,560,o),
(191,646,o),
(300,646,cs)
);
}
);
width = 600;
},
{
background = {
shapes = (
{
closed = 1;
nodes = (
(155,713,o),
(36,596,o),
(36,349,cs),
(36,104,o),
(155,-13,o),
(314,-13,cs),
(473,-13,o),
(592,104,o),
(592,349,cs),
(592,596,o),
(473,713,o),
(314,713,cs)
);
},
{
closed = 1;
nodes = (
(402,576,o),
(433,493,o),
(433,350,cs),
(433,207,o),
(402,124,o),
(314,124,cs),
(226,124,o),
(195,207,o),
(195,350,cs),
(195,493,o),
(226,576,o),
(314,576,cs)
);
}
);
};
hints = (
{
horizontal = 1;
options = 4;
origin = (0,5);
stem = 0;
target = (1,5);
type = TTStem;
},
{
horizontal = 1;
options = 4;
origin = (0,11);
stem = 0;
target = (1,11);
type = TTStem;
}
);
layerId = "5500A485-9BC9-4FA7-853B-8075021C5598";
shapes = (
{
closed = 1;
nodes = (
(155,713,o),
(36,596,o),
(36,349,cs),
(36,104,o),
(155,-13,o),
(314,-13,cs),
(473,-13,o),
(592,104,o),
(592,349,cs),
(592,596,o),
(473,713,o),
(314,713,cs)
);
},
{
closed = 1;
nodes = (
(402,576,o),
(433,493,o),
(433,350,cs),
(433,207,o),
(402,124,o),
(314,124,cs),
(226,124,o),
(195,207,o),
(195,350,cs),
(195,493,o),
(226,576,o),
(314,576,cs)
);
}
);
width = 628;
},
{
associatedMasterId = "9CA0F1F1-C419-4983-8E88-5CF3F967428B";
background = {
shapes = (
{
closed = 1;
nodes = (
(237,709,o),
(114,581,o),
(67,350,cs),
(21,119,o),
(106,-9,o),
(255,-9,cs),
(404,-9,o),
(527,119,o),
(574,350,cs),
(620,581,o),
(535,709,o),
(386,709,cs)
);
},
{
closed = 1;
nodes = (
(485,646,o),
(546,560,o),
(504,350,cs),
(462,140,o),
(366,54,o),
(261,54,cs),
(156,54,o),
(95,140,o),
(137,350,cs),
(179,560,o),
(275,646,o),
(380,646,cs)
);
}
);
};
layerId = "B8B1B9F7-57AD-40F6-8824-2C22876E3A5C";
name = "new Layer";
shapes = (
{
closed = 1;
nodes = (
(237,709,o),
(114,581,o),
(67,350,cs),
(21,119,o),
(106,-9,o),
(255,-9,cs),
(404,-9,o),
(527,119,o),
(574,350,cs),
(620,581,o),
(535,709,o),
(386,709,cs)
);
},
{
closed = 1;
nodes = (
(485,646,o),
(546,560,o),
(504,350,cs),
(462,140,o),
(366,54,o),
(261,54,cs),
(156,54,o),
(95,140,o),
(137,350,cs),
(179,560,o),
(275,646,o),
(380,646,cs)
);
}
);
width = 594;
},
{
associatedMasterId = "9CA0F1F1-C419-4983-8E88-5CF3F967428B";
background = {
shapes = (
{
closed = 1;
nodes = (
(226,713,o),
(107,596,o),
(57,350,cs),
(8,104,o),
(120,-13,o),
(275,-13,cs),
(436,-13,o),
(555,104,o),
(605,350,cs),
(654,596,o),
(542,713,o),
(387,713,cs)
);
},
{
closed = 1;
nodes = (
(461,575,o),
(469,493,o),
(440,350,cs),
(412,207,o),
(369,125,o),
(285,125,cs),
(201,125,o),
(193,207,o),
(222,350,cs),
(250,493,o),
(293,575,o),
(377,575,cs)
);
}
);
};
layerId = "2275FDE9-41F5-43D3-856B-3453FC30E713";
name = "new Layer";
shapes = (
{
closed = 1;
nodes = (
(226,713,o),
(107,596,o),
(57,350,cs),
(8,104,o),
(120,-13,o),
(275,-13,cs),
(436,-13,o),
(555,104,o),
(605,350,cs),
(654,596,o),
(542,713,o),
(387,713,cs)
);
},
{
closed = 1;
nodes = (
(461,575,o),
(469,493,o),
(440,350,cs),
(412,207,o),
(369,125,o),
(285,125,cs),
(201,125,o),
(193,207,o),
(222,350,cs),
(250,493,o),
(293,575,o),
(377,575,cs)
);
}
);
width = 622;
},
{
background = {
shapes = (
{
closed = 1;
nodes = (
(168,709,o),
(62,581,o),
(62,350,cs),
(62,119,o),
(168,-9,o),
(320,-9,cs),
(472,-9,o),
(578,119,o),
(578,350,cs),
(578,581,o),
(472,709,o),
(320,709,cs)
);
},
{
closed = 1;
nodes = (
(429,646,o),
(510,560,o),
(510,350,cs),
(510,140,o),
(429,54,o),
(320,54,cs),
(211,54,o),
(130,140,o),
(130,350,cs),
(130,560,o),
(211,646,o),
(320,646,cs)
);
}
);
};
layerId = "CAEAD647-A533-4D72-9ACE-F5DE50C4DBD4";
shapes = (
{
closed = 1;
nodes = (
(168,709,o),
(62,581,o),
(62,350,cs),
(62,119,o),
(168,-9,o),
(320,-9,cs),
(472,-9,o),
(578,119,o),
(578,350,cs),
(578,581,o),
(472,709,o),
(320,709,cs)
);
},
{
closed = 1;
nodes = (
(429,646,o),
(510,560,o),
(510,350,cs),
(510,140,o),
(429,54,o),
(320,54,cs),
(211,54,o),
(130,140,o),
(130,350,cs),
(130,560,o),
(211,646,o),
(320,646,cs)
);
}
);
width = 640;
},
{
associatedMasterId = "CAEAD647-A533-4D72-9ACE-F5DE50C4DBD4";
background = {
shapes = (
{
closed = 1;
nodes = (
(237,709,o),
(114,581,o),
(67,350,cs),
(21,119,o),
(106,-9,o),
(255,-9,cs),
(404,-9,o),
(527,119,o),
(574,350,cs),
(620,581,o),
(535,709,o),
(386,709,cs)
);
},
{
closed = 1;
nodes = (
(485,646,o),
(546,560,o),
(504,350,cs),
(462,140,o),
(366,54,o),
(261,54,cs),
(156,54,o),
(95,140,o),
(137,350,cs),
(179,560,o),
(275,646,o),
(380,646,cs)
);
}
);
};
layerId = "1B5F1A3B-DBBD-4E7D-93AB-0B152656376F";
name = "new Layer";
shapes = (
{
closed = 1;
nodes = (
(237,709,o),
(114,581,o),
(67,350,cs),
(21,119,o),
(106,-9,o),
(255,-9,cs),
(404,-9,o),
(527,119,o),
(574,350,cs),
(620,581,o),
(535,709,o),
(386,709,cs)
);
},
{
closed = 1;
nodes = (
(485,646,o),
(546,560,o),
(504,350,cs),
(462,140,o),
(366,54,o),
(261,54,cs),
(156,54,o),
(95,140,o),
(137,350,cs),
(179,560,o),
(275,646,o),
(380,646,cs)
);
}
);
width = 594;
},
{
associatedMasterId = "CAEAD647-A533-4D72-9ACE-F5DE50C4DBD4";
background = {
shapes = (
{
closed = 1;
nodes = (
(226,713,o),
(107,596,o),
(57,350,cs),
(8,104,o),
(120,-13,o),
(275,-13,cs),
(436,-13,o),
(555,104,o),
(605,350,cs),
(654,596,o),
(542,713,o),
(387,713,cs)
);
},
{
closed = 1;
nodes = (
(461,575,o),
(469,493,o),
(440,350,cs),
(412,207,o),
(369,125,o),
(285,125,cs),
(201,125,o),
(193,207,o),
(222,350,cs),
(250,493,o),
(293,575,o),
(377,575,cs)
);
}
);
};
layerId = "887EC4B1-0A4B-4BB1-AACB-F13B96D1E32C";
name = "new Layer";
shapes = (
{
closed = 1;
nodes = (
(226,713,o),
(107,596,o),
(57,350,cs),
(8,104,o),
(120,-13,o),
(275,-13,cs),
(436,-13,o),
(555,104,o),
(605,350,cs),
(654,596,o),
(542,713,o),
(387,713,cs)
);
},
{
closed = 1;
nodes = (
(461,575,o),
(469,493,o),
(440,350,cs),
(412,207,o),
(369,125,o),
(285,125,cs),
(201,125,o),
(193,207,o),
(222,350,cs),
(250,493,o),
(293,575,o),
(377,575,cs)
);
}
);
width = 622;
},
{
background = {
shapes = (
{
closed = 1;
nodes = (
(175,713,o),
(56,596,o),
(56,349,cs),
(56,104,o),
(175,-13,o),
(334,-13,cs),
(493,-13,o),
(612,104,o),
(612,349,cs),
(612,596,o),
(493,713,o),
(334,713,cs)
);
},
{
closed = 1;
nodes = (
(422,576,o),
(453,493,o),
(453,350,cs),
(453,207,o),
(422,124,o),
(334,124,cs),
(246,124,o),
(215,207,o),
(215,350,cs),
(215,493,o),
(246,576,o),
(334,576,cs)
);
}
);
};
hints = (
{
horizontal = 1;
options = 4;
origin = (0,5);
stem = 0;
target = (1,5);
type = TTStem;
},
{
horizontal = 1;
options = 4;
origin = (0,11);
stem = 0;
target = (1,11);
type = TTStem;
}
);
layerId = "474EAD97-6F36-4C8E-8A0A-83C4F7DF9055";
shapes = (
{
closed = 1;
nodes = (
(175,713,o),
(56,596,o),
(56,349,cs),
(56,104,o),
(175,-13,o),
(334,-13,cs),
(493,-13,o),
(612,104,o),
(612,349,cs),
(612,596,o),
(493,713,o),
(334,713,cs)
);
},
{
closed = 1;
nodes = (
(422,576,o),
(453,493,o),
(453,350,cs),
(453,207,o),
(422,124,o),
(334,124,cs),
(246,124,o),
(215,207,o),
(215,350,cs),
(215,493,o),
(246,576,o),
(334,576,cs)
);
}
);
width = 668;
}
);
note = "{\"weight\":[-5,-10]}";
unicode = 48;
}
{
glyphname = four;
kernLeft = four;
kernRight = four;
layers = (
{
background = {
shapes = (
{
closed = 1;
nodes = (
(513,187,l),
(513,248,l),
(62,248,l),
(62,225,l),
(381,641,l),
(393,700,l),
(353,700,l),
(15,258,l),
(15,187,l)
);
},
{
closed = 1;
nodes = (
(411,0,l),
(411,700,l),
(352,700,l),
(346,646,l),
(346,0,l)
);
}
);
};
layerId = "9CA0F1F1-C419-4983-8E88-5CF3F967428B";
shapes = (
{
closed = 1;
nodes = (
(513,187,l),
(513,248,l),
(62,248,l),
(62,225,l),
(381,641,l),
(393,700,l),
(353,700,l),
(15,258,l),
(15,187,l)
);
},
{
closed = 1;
nodes = (
(411,0,l),
(411,700,l),
(352,700,l),
(346,646,l),
(346,0,l)
);
}
);
width = 535;
},
{
background = {
shapes = (
{
closed = 1;
nodes = (
(565,147,l),
(565,281,l),
(129,281,l),
(130,226,l),
(436,616,l),
(431,700,l),
(337,700,l),
(18,292,l),
(18,147,l)
);
},
{
closed = 1;
nodes = (
(478,0,l),
(478,700,l),
(359,700,l),
(327,583,l),
(327,0,l)
);
}
);
};
hints = (
{
horizontal = 1;
origin = (1,0);
type = TTSnap;
},
{
horizontal = 1;
origin = (1,1);
type = TTSnap;
},
{
horizontal = 1;
origin = (1,0);
other1 = (0,0);
target = (1,1);
type = TTInterpolate;
},
{
horizontal = 1;
origin = (0,0);
stem = 0;
target = (0,1);
type = TTStem;
},
{
horizontal = 1;
options = 4;
origin = (0,0);
target = (0,0,1,4);
type = TTShift;
},
{
horizontal = 1;
options = 4;
origin = (0,1);
target = (0,2,1,4);
type = TTShift;
},
{
horizontal = 1;
options = 4;
origin = (0,1);
target = (0,7);
type = TTShift;
},
{
horizontal = 1;
options = 4;
origin = (1,1);
other1 = (0,4,1,4);
target = (0,1);
type = TTInterpolate;
}
);
layerId = "5500A485-9BC9-4FA7-853B-8075021C5598";
shapes = (
{
closed = 1;
nodes = (
(565,147,l),
(565,281,l),
(129,281,l),
(130,226,l),
(436,616,l),
(431,700,l),
(337,700,l),
(18,292,l),
(18,147,l)
);
},
{
closed = 1;
nodes = (
(478,0,l),
(478,700,l),
(359,700,l),
(327,583,l),
(327,0,l)
);
}
);
width = 596;
},
{
associatedMasterId = "9CA0F1F1-C419-4983-8E88-5CF3F967428B";
background = {
shapes = (
{
closed = 1;
nodes = (
(499,187,l),
(515,248,l),
(73,248,l),
(70,225,l),
(477,638,l),
(503,700,l),
(462,700,l),
(27,258,l),
(9,187,l)
);
},
{
closed = 1;
nodes = (
(353,0,l),
(527,700,l),
(467,700,l),
(448,646,l),
(287,0,l)
);
}
);
};
layerId = "B8B1B9F7-57AD-40F6-8824-2C22876E3A5C";
name = "new Layer";
shapes = (
{
closed = 1;
nodes = (
(499,187,l),
(515,248,l),
(73,248,l),
(70,225,l),
(477,638,l),
(503,700,l),
(462,700,l),
(27,258,l),
(9,187,l)
);
},
{
closed = 1;
nodes = (
(353,0,l),
(527,700,l),
(467,700,l),
(448,646,l),
(287,0,l)
);
}
);
width = 539;
},
{
associatedMasterId = "9CA0F1F1-C419-4983-8E88-5CF3F967428B";
background = {
shapes = (
{
closed = 1;
nodes = (
(542,147,l),
(576,281,l),
(150,281,l),
(147,226,l),
(525,616,l),
(543,700,l),
(436,700,l),
(39,292,l),
(2,147,l)
);
},
{
closed = 1;
nodes = (
(422,0,l),
(596,700,l),
(474,700,l),
(412,583,l),
(267,0,l)
);
}
);
};
layerId = "2275FDE9-41F5-43D3-856B-3453FC30E713";
name = "new Layer";
shapes = (
{
closed = 1;
nodes = (
(542,147,l),
(576,281,l),
(150,281,l),
(147,226,l),
(525,616,l),
(543,700,l),
(436,700,l),
(39,292,l),
(2,147,l)
);
},
{
closed = 1;
nodes = (
(422,0,l),
(596,700,l),
(474,700,l),
(412,583,l),
(267,0,l)
);
}
);
width = 604;
},
{
background = {
shapes = (
{
closed = 1;
nodes = (
(533,187,l),
(533,248,l),
(82,248,l),
(82,225,l),
(401,641,l),
(413,700,l),
(373,700,l),
(35,258,l),
(35,187,l)
);
},
{
closed = 1;
nodes = (
(431,0,l),
(431,700,l),
(372,700,l),
(366,646,l),
(366,0,l)
);
}
);
};
layerId = "CAEAD647-A533-4D72-9ACE-F5DE50C4DBD4";
shapes = (
{
closed = 1;
nodes = (
(533,187,l),
(533,248,l),
(82,248,l),
(82,225,l),
(401,641,l),
(413,700,l),
(373,700,l),
(35,258,l),
(35,187,l)
);
},
{
closed = 1;
nodes = (
(431,0,l),
(431,700,l),
(372,700,l),
(366,646,l),
(366,0,l)
);
}
);
width = 575;
},
{
associatedMasterId = "CAEAD647-A533-4D72-9ACE-F5DE50C4DBD4";
background = {
shapes = (
{
closed = 1;
nodes = (
(534,700,l),
(469,700,l),
(34,258,l),
(17,187,l),
(341,187,l),
(294,0,l),
(360,0,l),
(407,187,l),
(506,187,l),
(522,248,l),
(422,248,l)
);
},
{
closed = 1;
nodes = (
(356,248,l),
(166,248,ls),
(133,248,o),
(99,246,o),
(85,240,c),
(85,244,l),
(98,250,o),
(127,276,o),
(154,303,cs),
(376,528,ls),
(409,562,o),
(441,599,o),
(449,611,c),
(452,610,l),
(445,596,o),
(432,554,o),
(421,511,cs)
);
}
);
};
color = 5;
layerId = "FE739B2A-390B-4EAA-B23A-C7D7A37A2A37";
name = "new Layer";
shapes = (
{
closed = 1;
nodes = (
(534,700,l),
(469,700,l),
(34,258,l),
(17,187,l),
(341,187,l),
(294,0,l),
(360,0,l),
(407,187,l),
(506,187,l),
(522,248,l),
(422,248,l)
);
},
{
closed = 1;
nodes = (
(356,248,l),
(166,248,ls),
(133,248,o),
(99,246,o),
(85,240,c),
(85,244,l),
(98,250,o),
(127,276,o),
(154,303,cs),
(376,528,ls),
(409,562,o),
(441,599,o),
(449,611,c),
(452,610,l),
(445,596,o),
(432,554,o),
(421,511,cs)
);
}
);
width = 546;
},
{
associatedMasterId = "CAEAD647-A533-4D72-9ACE-F5DE50C4DBD4";
background = {
shapes = (
{
closed = 1;
nodes = (
(596,700,l),
(436,700,l),
(39,292,l),
(2,147,l),
(304,147,l),
(267,0,l),
(422,0,l),
(459,147,l),
(542,147,l),
(576,281,l),
(492,281,l)
);
},
{
closed = 1;
nodes = (
(337,281,l),
(266,281,ls),
(231,281,o),
(196,279,o),
(180,273,c),
(180,276,l),
(195,283,o),
(225,306,o),
(252,334,cs),
(316,401,ls),
(354,440,o),
(385,478,o),
(393,493,c),
(396,492,l),
(388,477,o),
(374,430,o),
(362,383,cs)
);
}
);
};
layerId = "00350692-CEAD-4632-8453-14C15E2C7B71";
name = "new Layer";
shapes = (
{
closed = 1;
nodes = (
(596,700,l),
(436,700,l),
(39,292,l),
(2,147,l),
(304,147,l),
(267,0,l),
(422,0,l),
(459,147,l),
(542,147,l),
(576,281,l),
(492,281,l)
);
},
{
closed = 1;
nodes = (
(337,281,l),
(266,281,ls),
(231,281,o),
(196,279,o),
(180,273,c),
(180,276,l),
(195,283,o),
(225,306,o),
(252,334,cs),
(316,401,ls),
(354,440,o),
(385,478,o),
(393,493,c),
(396,492,l),
(388,477,o),
(374,430,o),
(362,383,cs)
);
}
);
width = 604;
},
{
background = {
shapes = (
{
closed = 1;
nodes = (
(585,147,l),
(585,281,l),
(149,281,l),
(150,226,l),
(456,616,l),
(451,700,l),
(357,700,l),
(38,292,l),
(38,147,l)
);
},
{
closed = 1;
nodes = (
(498,0,l),
(498,700,l),
(379,700,l),
(347,583,l),
(347,0,l)
);
}
);
};
hints = (
{
horizontal = 1;
origin = (1,0);
type = TTSnap;
},
{
horizontal = 1;
origin = (1,1);
type = TTSnap;
},
{
horizontal = 1;
origin = (1,0);
other1 = (0,0);
target = (1,1);
type = TTInterpolate;
},
{
horizontal = 1;
origin = (0,0);
stem = 0;
target = (0,1);
type = TTStem;
},
{
horizontal = 1;
options = 4;
origin = (0,0);
target = (0,0,1,4);
type = TTShift;
},
{
horizontal = 1;
options = 4;
origin = (0,1);
target = (0,2,1,4);
type = TTShift;
},
{
horizontal = 1;
options = 4;
origin = (0,1);
target = (0,7);
type = TTShift;
},
{
horizontal = 1;
options = 4;
origin = (1,1);
other1 = (0,4,1,4);
target = (0,1);
type = TTInterpolate;
}
);
layerId = "474EAD97-6F36-4C8E-8A0A-83C4F7DF9055";
shapes = (
{
closed = 1;
nodes = (
(585,147,l),
(585,281,l),
(149,281,l),
(150,226,l),
(456,616,l),
(451,700,l),
(357,700,l),
(38,292,l),
(38,147,l)
);
},
{
closed = 1;
nodes = (
(498,0,l),
(498,700,l),
(379,700,l),
(347,583,l),
(347,0,l)
);
}
);
width = 636;
}
);
unicode = 52;
}
{
glyphname = five;
kernRight = five;
layers = (
{
background = {
shapes = (
{
closed = 1;
nodes = (
(390,-8,o),
(496,80,o),
(496,212,cs),
(496,348,o),
(393,439,o),
(273,439,cs),
(213,439,o),
(143,415,o),
(120,359,c),
(134,361,l),
(188,669,l),
(163,639,l),
(476,639,l),
(476,700,l),
(132,700,l),
(65,313,l),
(118,313,l),
(160,369,o),
(215,376,o),
(262,376,cs),
(367,376,o),
(429,303,o),
(429,213,cs),
(429,125,o),
(364,55,o),
(254,55,cs),
(179,55,o),
(104,93,o),
(65,180,c),
(13,147,l),
(67,37,o),
(156,-8,o),
(252,-8,cs)
);
}
);
};
layerId = "9CA0F1F1-C419-4983-8E88-5CF3F967428B";
shapes = (
{
closed = 1;
nodes = (
(390,-8,o),
(496,80,o),
(496,212,cs),
(496,348,o),
(393,439,o),
(273,439,cs),
(213,439,o),
(143,415,o),
(120,359,c),
(134,361,l),
(188,669,l),
(163,639,l),
(476,639,l),
(476,700,l),
(132,700,l),
(65,313,l),
(118,313,l),
(160,369,o),
(215,376,o),
(262,376,cs),
(367,376,o),
(429,303,o),
(429,213,cs),
(429,125,o),
(364,55,o),
(254,55,cs),
(173,55,o),
(92,99,o),
(56,202,c),
(90,196,l),
(-12,131,l),
(3,169,l),
(56,43,o),
(150,-8,o),
(252,-8,cs)
);
}
);
width = 530;
},
{
background = {
shapes = (
{
closed = 1;
nodes = (
(414,-13,o),
(540,72,o),
(540,232,cs),
(540,330,o),
(477,454,o),
(325,454,cs),
(252,454,o),
(205,421,o),
(164,357,c),
(210,346,l),
(255,627,l),
(185,566,l),
(523,566,l),
(523,700,l),
(129,700,l),
(61,274,l),
(183,274,l),
(206,309,o),
(239,326,o),
(277,326,cs),
(341,326,o),
(381,287,o),
(381,225,cs),
(381,164,o),
(341,125,o),
(274,125,cs),
(214,125,o),
(176,158,o),
(137,223,c),
(18,144,l),
(75,40,o),
(157,-13,o),
(276,-13,cs)
);
}
);
};
hints = (
{
horizontal = 1;
options = 4;
origin = (0,34);
stem = 0;
target = (0,25);
type = TTStem;
},
{
horizontal = 1;
options = 4;
origin = (0,14);
stem = 0;
target = (0,11);
type = TTStem;
},
{
horizontal = 1;
options = 4;
origin = (0,25);
other1 = (0,5);
target = (0,11);
type = TTInterpolate;
},
{
horizontal = 1;
options = 8;
origin = (0,5);
stem = 0;
target = (0,19);
type = TTStem;
},
{
horizontal = 1;
options = 4;
origin = (0,25);
other1 = (0,28,0,30);
target = (0,19);
type = TTInterpolate;
},
{
horizontal = 1;
options = 4;
origin = (0,19);
other1 = (0,16);
target = (0,28,0,30);
type = TTInterpolate;
},
{
horizontal = 1;
origin = (0,16);
settings = {
deltaV = {
"{0, 310, 0, 0, 0, 0}" = {
"13" = 3;
};
};
};
type = TTDelta;
}
);
layerId = "5500A485-9BC9-4FA7-853B-8075021C5598";
shapes = (
{
closed = 1;
nodes = (
(414,-13,o),
(540,72,o),
(540,232,cs),
(540,330,o),
(477,454,o),
(325,454,cs),
(252,454,o),
(205,421,o),
(164,357,c),
(210,346,l),
(255,627,l),
(185,566,l),
(523,566,l),
(523,700,l),
(129,700,l),
(61,274,l),
(183,274,l),
(206,309,o),
(239,326,o),
(277,326,cs),
(341,326,o),
(381,287,o),
(381,225,cs),
(381,164,o),
(341,125,o),
(274,125,cs),
(198,125,o),
(158,178,o),
(106,281,c),
(195,262,l),
(-40,105,l),
(-5,193,l),
(52,57,o),
(139,-13,o),
(276,-13,cs)
);
}
);
width = 573;
},
{
associatedMasterId = "9CA0F1F1-C419-4983-8E88-5CF3F967428B";
background = {
guides = (
{
angle = 38;
pos = (547,700);
}
);
shapes = (
{
closed = 1;
nodes = (
(369,-8,o),
(484,111,o),
(484,249,cs),
(484,366,o),
(401,439,o),
(297,439,cs),
(238,439,o),
(171,415,o),
(138,359,c),
(155,361,l),
(261,669,l),
(229,639,l),
(532,639,l),
(547,700,l),
(208,700,l),
(75,313,l),
(129,313,l),
(179,370,o),
(237,377,o),
(272,377,cs),
(369,377,o),
(416,318,o),
(416,245,cs),
(416,138,o),
(329,55,o),
(216,55,cs),
(143,55,o),
(81,90,o),
(54,178,c),
(-3,154,l),
(32,50,o),
(106,-8,o),
(214,-8,cs)
);
}
);
};
guides = (
{
angle = 76;
pos = (547,700);
}
);
layerId = "B8B1B9F7-57AD-40F6-8824-2C22876E3A5C";
name = "new Layer";
shapes = (
{
closed = 1;
nodes = (
(369,-8,o),
(484,111,o),
(484,249,cs),
(484,366,o),
(401,439,o),
(297,439,cs),
(238,439,o),
(171,415,o),
(138,359,c),
(155,361,l),
(261,669,l),
(229,639,l),
(532,639,l),
(547,700,l),
(208,700,l),
(75,313,l),
(129,313,l),
(179,370,o),
(237,377,o),
(272,377,cs),
(369,377,o),
(416,318,o),
(416,245,cs),
(416,138,o),
(329,55,o),
(216,55,cs),
(137,55,o),
(72,96,o),
(48,199,c),
(85,191,l),
(-35,140,l),
(-8,171,l),
(24,57,o),
(100,-8,o),
(214,-8,cs)
);
}
);
width = 520;
},
{
associatedMasterId = "9CA0F1F1-C419-4983-8E88-5CF3F967428B";
background = {
guides = (
{
angle = 38;
pos = (586,700);
}
);
shapes = (
{
closed = 1;
nodes = (
(404,-13,o),
(527,103,o),
(527,262,cs),
(527,353,o),
(476,454,o),
(347,454,cs),
(285,454,o),
(232,424,o),
(175,355,c),
(221,346,l),
(314,627,l),
(229,566,l),
(553,566,l),
(586,700,l),
(196,700,l),
(55,274,l),
(180,274,l),
(208,309,o),
(244,326,o),
(280,326,cs),
(334,326,o),
(365,297,o),
(365,248,cs),
(365,179,o),
(316,125,o),
(241,125,cs),
(184,125,o),
(148,156,o),
(121,220,c),
(-7,150,l),
(31,46,o),
(119,-13,o),
(240,-13,cs)
);
}
);
};
guides = (
{
angle = 76;
pos = (586,700);
}
);
layerId = "2275FDE9-41F5-43D3-856B-3453FC30E713";
name = "new Layer";
shapes = (
{
closed = 1;
nodes = (
(404,-13,o),
(527,103,o),
(527,262,cs),
(527,353,o),
(476,454,o),
(347,454,cs),
(285,454,o),
(232,424,o),
(175,355,c),
(221,346,l),
(314,627,l),
(229,566,l),
(553,566,l),
(586,700,l),
(196,700,l),
(55,274,l),
(180,274,l),
(208,309,o),
(244,326,o),
(280,326,cs),
(334,326,o),
(365,297,o),
(365,248,cs),
(365,179,o),
(316,125,o),
(241,125,cs),
(168,125,o),
(130,175,o),
(101,280,c),
(194,260,l),
(-77,111,l),
(-20,195,l),
(8,63,o),
(102,-13,o),
(240,-13,cs)
);
}
);
width = 562;
},
{
background = {
shapes = (
{
closed = 1;
nodes = (
(411,-8,o),
(517,80,o),
(517,212,cs),
(517,348,o),
(414,439,o),
(294,439,cs),
(234,439,o),
(164,415,o),
(141,359,c),
(155,361,l),
(209,669,l),
(184,639,l),
(497,639,l),
(497,700,l),
(153,700,l),
(86,313,l),
(139,313,l),
(181,369,o),
(236,376,o),
(283,376,cs),
(388,376,o),
(450,303,o),
(450,213,cs),
(450,125,o),
(385,55,o),
(275,55,cs),
(200,55,o),
(125,93,o),
(86,180,c),
(34,147,l),
(88,37,o),
(177,-8,o),
(273,-8,cs)
);
}
);
};
layerId = "CAEAD647-A533-4D72-9ACE-F5DE50C4DBD4";
shapes = (
{
closed = 1;
nodes = (
(411,-8,o),
(517,80,o),
(517,212,cs),
(517,348,o),
(414,439,o),
(294,439,cs),
(234,439,o),
(164,415,o),
(141,359,c),
(155,361,l),
(209,669,l),
(184,639,l),
(497,639,l),
(497,700,l),
(153,700,l),
(86,313,l),
(139,313,l),
(181,369,o),
(236,376,o),
(283,376,cs),
(388,376,o),
(450,303,o),
(450,213,cs),
(450,125,o),
(385,55,o),
(275,55,cs),
(194,55,o),
(113,99,o),
(77,202,c),
(111,196,l),
(9,131,l),
(24,169,l),
(77,43,o),
(171,-8,o),
(273,-8,cs)
);
}
);
width = 571;
},
{
associatedMasterId = "CAEAD647-A533-4D72-9ACE-F5DE50C4DBD4";
background = {
shapes = (
{
closed = 1;
nodes = (
(365,-8,o),
(480,111,o),
(480,249,cs),
(480,366,o),
(397,439,o),
(293,439,cs),
(234,439,o),
(167,415,o),
(134,359,c),
(151,361,l),
(257,669,l),
(225,639,l),
(528,639,l),
(543,700,l),
(204,700,l),
(71,313,l),
(125,313,l),
(175,370,o),
(233,377,o),
(268,377,cs),
(365,377,o),
(412,318,o),
(412,245,cs),
(412,138,o),
(325,55,o),
(212,55,cs),
(142,55,o),
(83,87,o),
(54,166,c),
(0,134,l),
(38,43,o),
(109,-8,o),
(210,-8,cs)
);
}
);
};
color = 5;
layerId = "57448EE6-DA40-45BC-80F3-4404546BFE64";
name = "new Layer";
shapes = (
{
closed = 1;
nodes = (
(365,-8,o),
(480,111,o),
(480,249,cs),
(480,366,o),
(397,439,o),
(293,439,cs),
(234,439,o),
(167,415,o),
(134,359,c),
(151,361,l),
(257,669,l),
(225,639,l),
(528,639,l),
(543,700,l),
(204,700,l),
(71,313,l),
(125,313,l),
(175,370,o),
(233,377,o),
(268,377,cs),
(365,377,o),
(412,318,o),
(412,245,cs),
(412,138,o),
(325,55,o),
(212,55,cs),
(133,55,o),
(68,96,o),
(44,199,c),
(81,182,l),
(-39,111,l),
(-12,171,l),
(20,57,o),
(96,-8,o),
(210,-8,cs)
);
}
);
width = 516;
},
{
associatedMasterId = "CAEAD647-A533-4D72-9ACE-F5DE50C4DBD4";
background = {
shapes = (
{
closed = 1;
nodes = (
(389,-13,o),
(514,103,o),
(514,262,cs),
(514,353,o),
(463,454,o),
(334,454,cs),
(272,454,o),
(219,424,o),
(162,355,c),
(208,346,l),
(301,627,l),
(216,566,l),
(540,566,l),
(573,700,l),
(183,700,l),
(45,282,l),
(174,282,l),
(201,312,o),
(234,326,o),
(267,326,cs),
(321,326,o),
(352,297,o),
(352,248,cs),
(352,179,o),
(301,125,o),
(223,125,cs),
(172,125,o),
(138,148,o),
(110,195,c),
(-6,110,l),
(38,31,o),
(118,-13,o),
(222,-13,cs)
);
}
);
};
layerId = "22EFCAC3-08B6-4DF5-917A-DF3E1C231134";
name = "new Layer";
shapes = (
{
closed = 1;
nodes = (
(389,-13,o),
(514,103,o),
(514,262,cs),
(514,353,o),
(463,454,o),
(334,454,cs),
(272,454,o),
(219,424,o),
(162,355,c),
(208,346,l),
(301,627,l),
(216,566,l),
(540,566,l),
(573,700,l),
(183,700,l),
(45,282,l),
(174,282,l),
(201,312,o),
(234,326,o),
(267,326,cs),
(321,326,o),
(352,297,o),
(352,248,cs),
(352,179,o),
(301,125,o),
(223,125,cs),
(148,125,o),
(110,175,o),
(71,280,c),
(173,242,l),
(-98,43,l),
(-37,195,l),
(-9,63,o),
(85,-13,o),
(222,-13,cs)
);
}
);
width = 549;
},
{
background = {
shapes = (
{
closed = 1;
nodes = (
(432,-13,o),
(558,72,o),
(558,232,cs),
(558,330,o),
(495,454,o),
(343,454,cs),
(270,454,o),
(223,421,o),
(182,357,c),
(228,346,l),
(273,627,l),
(203,566,l),
(541,566,l),
(541,700,l),
(147,700,l),
(79,274,l),
(201,274,l),
(224,309,o),
(257,326,o),
(295,326,cs),
(359,326,o),
(399,287,o),
(399,225,cs),
(399,164,o),
(359,125,o),
(292,125,cs),
(232,125,o),
(194,158,o),
(155,223,c),
(36,144,l),
(93,40,o),
(175,-13,o),
(294,-13,cs)
);
}
);
};
hints = (
{
horizontal = 1;
options = 4;
origin = (0,34);
stem = 0;
target = (0,25);
type = TTStem;
},
{
horizontal = 1;
options = 4;
origin = (0,14);
stem = 0;
target = (0,11);
type = TTStem;
},
{
horizontal = 1;
options = 4;
origin = (0,25);
other1 = (0,5);
target = (0,11);
type = TTInterpolate;
},
{
horizontal = 1;
options = 8;
origin = (0,5);
stem = 0;
target = (0,19);
type = TTStem;
},
{
horizontal = 1;
options = 4;
origin = (0,25);
other1 = (0,28,0,30);
target = (0,19);
type = TTInterpolate;
},
{
horizontal = 1;
options = 4;
origin = (0,19);
other1 = (0,16);
target = (0,28,0,30);
type = TTInterpolate;
},
{
horizontal = 1;
origin = (0,16);
settings = {
deltaV = {
"{0, 310, 0, 0, 0, 0}" = {
"13" = 3;
};
};
};
type = TTDelta;
}
);
layerId = "474EAD97-6F36-4C8E-8A0A-83C4F7DF9055";
shapes = (
{
closed = 1;
nodes = (
(432,-13,o),
(558,72,o),
(558,232,cs),
(558,330,o),
(495,454,o),
(343,454,cs),
(270,454,o),
(223,421,o),
(182,357,c),
(228,346,l),
(273,627,l),
(203,566,l),
(541,566,l),
(541,700,l),
(147,700,l),
(79,274,l),
(201,274,l),
(224,309,o),
(257,326,o),
(295,326,cs),
(359,326,o),
(399,287,o),
(399,225,cs),
(399,164,o),
(359,125,o),
(292,125,cs),
(216,125,o),
(176,178,o),
(124,281,c),
(213,262,l),
(-22,105,l),
(13,193,l),
(70,57,o),
(157,-13,o),
(294,-13,cs)
);
}
);
width = 611;
}
);
unicode = 53;
}
{
glyphname = seven;
kernLeft = seven;
kernRight = seven;
layers = (
{
background = {
shapes = (
{
closed = 1;
nodes = (
(24,700,l),
(24,639,l),
(411,639,l),
(395,666,l),
(33,0,l),
(106,0,l),
(458,651,l),
(458,700,l)
);
}
);
};
layerId = "9CA0F1F1-C419-4983-8E88-5CF3F967428B";
shapes = (
{
closed = 1;
nodes = (
(24,700,l),
(24,639,l),
(411,639,l),
(395,666,l),
(33,0,l),
(106,0,l),
(458,651,l),
(458,700,l)
);
}
);
width = 472;
},
{
background = {
shapes = (
{
closed = 1;
nodes = (
(27,700,l),
(27,566,l),
(387,566,l),
(348,621,l),
(22,0,l),
(191,0,l),
(497,582,l),
(497,700,l)
);
}
);
};
hints = (
{
horizontal = 1;
options = 4;
origin = (0,4);
type = TTSnap;
},
{
horizontal = 1;
options = 4;
origin = (0,0);
stem = 0;
target = (0,1);
type = TTStem;
},
{
horizontal = 1;
options = 4;
origin = (0,1);
target = (0,6);
type = TTShift;
}
);
layerId = "5500A485-9BC9-4FA7-853B-8075021C5598";
shapes = (
{
closed = 1;
nodes = (
(27,700,l),
(27,566,l),
(387,566,l),
(348,621,l),
(22,0,l),
(191,0,l),
(497,582,l),
(497,700,l)
);
}
);
width = 514;
},
{
associatedMasterId = "9CA0F1F1-C419-4983-8E88-5CF3F967428B";
background = {
shapes = (
{
closed = 1;
nodes = (
(121,700,l),
(106,639,l),
(485,639,l),
(474,666,l),
(15,0,l),
(90,0,l),
(536,651,l),
(548,700,l)
);
}
);
};
layerId = "B8B1B9F7-57AD-40F6-8824-2C22876E3A5C";
name = "new Layer";
shapes = (
{
closed = 1;
nodes = (
(121,700,l),
(106,639,l),
(485,639,l),
(474,666,l),
(15,0,l),
(90,0,l),
(536,651,l),
(548,700,l)
);
}
);
width = 457;
},
{
associatedMasterId = "9CA0F1F1-C419-4983-8E88-5CF3F967428B";
background = {
shapes = (
{
closed = 1;
nodes = (
(125,700,l),
(92,566,l),
(443,566,l),
(412,621,l),
(-4,0,l),
(175,0,l),
(560,582,l),
(589,700,l)
);
}
);
};
layerId = "2275FDE9-41F5-43D3-856B-3453FC30E713";
name = "new Layer";
shapes = (
{
closed = 1;
nodes = (
(125,700,l),
(92,566,l),
(443,566,l),
(412,621,l),
(-4,0,l),
(175,0,l),
(560,582,l),
(589,700,l)
);
}
);
width = 504;
},
{
background = {
shapes = (
{
closed = 1;
nodes = (
(44,700,l),
(44,639,l),
(431,639,l),
(415,666,l),
(53,0,l),
(126,0,l),
(478,651,l),
(478,700,l)
);
}
);
};
layerId = "CAEAD647-A533-4D72-9ACE-F5DE50C4DBD4";
shapes = (
{
closed = 1;
nodes = (
(44,700,l),
(44,639,l),
(431,639,l),
(415,666,l),
(53,0,l),
(126,0,l),
(478,651,l),
(478,700,l)
);
}
);
width = 512;
},
{
associatedMasterId = "CAEAD647-A533-4D72-9ACE-F5DE50C4DBD4";
background = {
shapes = (
{
closed = 1;
nodes = (
(401,639,ls),
(429,639,o),
(459,641,o),
(473,648,c),
(474,645,l),
(460,637,o),
(438,614,o),
(419,587,cs),
(15,0,l),
(90,0,l),
(536,651,l),
(548,700,l),
(121,700,l),
(106,639,l)
);
}
);
};
color = 5;
layerId = "E302BD94-A972-403A-B425-A5C065C6534C";
name = "new Layer";
shapes = (
{
closed = 1;
nodes = (
(401,639,ls),
(429,639,o),
(459,641,o),
(473,648,c),
(474,645,l),
(460,637,o),
(438,614,o),
(419,587,cs),
(15,0,l),
(90,0,l),
(536,651,l),
(548,700,l),
(121,700,l),
(106,639,l)
);
}
);
width = 457;
},
{
associatedMasterId = "CAEAD647-A533-4D72-9ACE-F5DE50C4DBD4";
background = {
shapes = (
{
closed = 1;
nodes = (
(317,566,ls),
(345,566,o),
(373,568,o),
(386,575,c),
(388,572,l),
(376,564,o),
(355,537,o),
(340,514,cs),
(-4,0,l),
(175,0,l),
(560,582,l),
(589,700,l),
(125,700,l),
(92,566,l)
);
}
);
};
layerId = "4E5DE285-CEB0-485A-BE4A-C9AEC0FE5EA7";
name = "new Layer";
shapes = (
{
closed = 1;
nodes = (
(317,566,ls),
(345,566,o),
(373,568,o),
(386,575,c),
(388,572,l),
(376,564,o),
(355,537,o),
(340,514,cs),
(-4,0,l),
(175,0,l),
(560,582,l),
(589,700,l),
(125,700,l),
(92,566,l)
);
}
);
width = 504;
},
{
background = {
shapes = (
{
closed = 1;
nodes = (
(47,700,l),
(47,566,l),
(407,566,l),
(368,621,l),
(42,0,l),
(211,0,l),
(517,582,l),
(517,700,l)
);
}
);
};
hints = (
{
horizontal = 1;
options = 4;
origin = (0,4);
type = TTSnap;
},
{
horizontal = 1;
options = 4;
origin = (0,0);
stem = 0;
target = (0,1);
type = TTStem;
},
{
horizontal = 1;
options = 4;
origin = (0,1);
target = (0,6);
type = TTShift;
}
);
layerId = "474EAD97-6F36-4C8E-8A0A-83C4F7DF9055";
shapes = (
{
closed = 1;
nodes = (
(47,700,l),
(47,566,l),
(407,566,l),
(368,621,l),
(42,0,l),
(211,0,l),
(517,582,l),
(517,700,l)
);
}
);
width = 554;
}
);
unicode = 55;
}
{
glyphname = eight;
layers = (
{
background = {
shapes = (
{
closed = 1;
nodes = (
(422,-8,o),
(531,64,o),
(531,194,cs),
(531,334,o),
(402,389,o),
(286,389,cs),
(169,389,o),
(40,334,o),
(40,194,cs),
(40,64,o),
(150,-8,o),
(286,-8,cs)
);
},
{
closed = 1;
nodes = (
(188,53,o),
(107,103,o),
(107,198,cs),
(107,290,o),
(188,341,o),
(286,341,cs),
(384,341,o),
(464,290,o),
(464,198,cs),
(464,103,o),
(384,53,o),
(286,53,cs)
);
},
{
closed = 1;
nodes = (
(200,402,o),
(130,444,o),
(130,526,cs),
(130,604,o),
(200,647,o),
(286,647,cs),
(371,647,o),
(441,604,o),
(441,526,cs),
(441,444,o),
(371,402,o),
(286,402,cs)
);
},
{
closed = 1;
nodes = (
(392,352,o),
(507,404,o),
(507,528,cs),
(507,643,o),
(408,708,o),
(286,708,cs),
(163,708,o),
(64,643,o),
(64,528,cs),
(64,404,o),
(180,352,o),
(286,352,cs)
);
}
);
};
layerId = "9CA0F1F1-C419-4983-8E88-5CF3F967428B";
shapes = (
{
closed = 1;
nodes = (
(422,-8,o),
(531,64,o),
(531,194,cs),
(531,334,o),
(402,389,o),
(286,389,cs),
(169,389,o),
(40,334,o),
(40,194,cs),
(40,64,o),
(150,-8,o),
(286,-8,cs)
);
},
{
closed = 1;
nodes = (
(188,53,o),
(107,103,o),
(107,198,cs),
(107,290,o),
(188,341,o),
(286,341,cs),
(384,341,o),
(464,290,o),
(464,198,cs),
(464,103,o),
(384,53,o),
(286,53,cs)
);
},
{
closed = 1;
nodes = (
(200,402,o),
(130,444,o),
(130,526,cs),
(130,604,o),
(200,647,o),
(286,647,cs),
(371,647,o),
(441,604,o),
(441,526,cs),
(441,444,o),
(371,402,o),
(286,402,cs)
);
},
{
closed = 1;
nodes = (
(392,352,o),
(507,404,o),
(507,528,cs),
(507,643,o),
(408,708,o),
(286,708,cs),
(163,708,o),
(64,643,o),
(64,528,cs),
(64,404,o),
(180,352,o),
(286,352,cs)
);
}
);
width = 571;
},
{
background = {
shapes = (
{
closed = 1;
nodes = (
(436,-13,o),
(552,68,o),
(552,199,cs),
(552,350,o),
(402,396,o),
(292,396,cs),
(183,396,o),
(32,350,o),
(32,199,cs),
(32,68,o),
(149,-13,o),
(292,-13,cs)
);
},
{
closed = 1;
nodes = (
(239,119,o),
(190,150,o),
(190,213,cs),
(190,276,o),
(239,307,o),
(292,307,cs),
(346,307,o),
(395,276,o),
(395,213,cs),
(395,150,o),
(346,119,o),
(292,119,cs)
);
},
{
closed = 1;
nodes = (
(248,429,o),
(212,456,o),
(212,505,cs),
(212,554,o),
(248,581,o),
(292,581,cs),
(337,581,o),
(372,554,o),
(372,505,cs),
(372,456,o),
(337,429,o),
(292,429,cs)
);
},
{
closed = 1;
nodes = (
(393,335,o),
(526,378,o),
(526,516,cs),
(526,636,o),
(420,713,o),
(292,713,cs),
(164,713,o),
(58,636,o),
(58,516,cs),
(58,378,o),
(191,335,o),
(292,335,cs)
);
}
);
};
hints = (
{
horizontal = 1;
options = 4;
origin = (0,11);
stem = 0;
target = (1,11);
type = TTStem;
},
{
horizontal = 1;
options = 4;
origin = (3,5);
stem = 0;
target = (2,5);
type = TTStem;
},
{
horizontal = 1;
options = 4;
origin = (1,11);
other1 = (1,5);
target = (2,5);
type = TTInterpolate;
},
{
horizontal = 1;
options = 8;
origin = (1,5);
stem = 0;
target = (2,11);
type = TTStem;
},
{
horizontal = 1;
options = 4;
origin = (2,11);
other1 = (0,5,3,2);
target = (1,5);
type = TTInterpolate;
},
{
horizontal = 1;
options = 4;
origin = (2,11);
other1 = (0,8,3,11);
target = (1,5);
type = TTInterpolate;
}
);
layerId = "5500A485-9BC9-4FA7-853B-8075021C5598";
shapes = (
{
closed = 1;
nodes = (
(436,-13,o),
(552,68,o),
(552,199,cs),
(552,350,o),
(402,396,o),
(292,396,cs),
(183,396,o),
(32,350,o),
(32,199,cs),
(32,68,o),
(149,-13,o),
(292,-13,cs)
);
},
{
closed = 1;
nodes = (
(239,119,o),
(190,150,o),
(190,213,cs),
(190,276,o),
(239,307,o),
(292,307,cs),
(346,307,o),
(395,276,o),
(395,213,cs),
(395,150,o),
(346,119,o),
(292,119,cs)
);
},
{
closed = 1;
nodes = (
(248,429,o),
(212,456,o),
(212,505,cs),
(212,554,o),
(248,581,o),
(292,581,cs),
(337,581,o),
(372,554,o),
(372,505,cs),
(372,456,o),
(337,429,o),
(292,429,cs)
);
},
{
closed = 1;
nodes = (
(393,335,o),
(526,378,o),
(526,516,cs),
(526,636,o),
(420,713,o),
(292,713,cs),
(164,713,o),
(58,636,o),
(58,516,cs),
(58,378,o),
(191,335,o),
(292,335,cs)
);
}
);
width = 584;
},
{
associatedMasterId = "9CA0F1F1-C419-4983-8E88-5CF3F967428B";
background = {
shapes = (
{
closed = 1;
nodes = (
(401,-8,o),
(510,102,o),
(510,222,cs),
(510,328,o),
(427,389,o),
(299,389,cs),
(137,389,o),
(24,292,o),
(24,166,cs),
(24,55,o),
(112,-8,o),
(237,-8,cs)
);
},
{
closed = 1;
nodes = (
(157,53,o),
(91,92,o),
(91,173,cs),
(91,265,o),
(175,341,o),
(292,341,cs),
(377,341,o),
(442,300,o),
(442,220,cs),
(442,131,o),
(362,53,o),
(242,53,cs)
);
},
{
closed = 1;
nodes = (
(250,402,o),
(193,435,o),
(193,506,cs),
(193,587,o),
(266,647,o),
(366,647,cs),
(439,647,o),
(497,614,o),
(497,544,cs),
(497,463,o),
(420,402,o),
(322,402,cs)
);
},
{
closed = 1;
nodes = (
(461,352,o),
(565,435,o),
(565,549,cs),
(565,653,o),
(480,708,o),
(371,708,cs),
(227,708,o),
(126,613,o),
(126,505,cs),
(126,410,o),
(205,352,o),
(322,352,cs)
);
}
);
};
layerId = "B8B1B9F7-57AD-40F6-8824-2C22876E3A5C";
name = "new Layer";
shapes = (
{
closed = 1;
nodes = (
(401,-8,o),
(510,102,o),
(510,222,cs),
(510,328,o),
(427,389,o),
(299,389,cs),
(137,389,o),
(24,292,o),
(24,166,cs),
(24,55,o),
(112,-8,o),
(237,-8,cs)
);
},
{
closed = 1;
nodes = (
(157,53,o),
(91,92,o),
(91,173,cs),
(91,265,o),
(175,341,o),
(292,341,cs),
(377,341,o),
(442,300,o),
(442,220,cs),
(442,131,o),
(362,53,o),
(242,53,cs)
);
},
{
closed = 1;
nodes = (
(250,402,o),
(193,435,o),
(193,506,cs),
(193,587,o),
(266,647,o),
(366,647,cs),
(439,647,o),
(497,614,o),
(497,544,cs),
(497,463,o),
(420,402,o),
(322,402,cs)
);
},
{
closed = 1;
nodes = (
(461,352,o),
(565,435,o),
(565,549,cs),
(565,653,o),
(480,708,o),
(371,708,cs),
(227,708,o),
(126,613,o),
(126,505,cs),
(126,410,o),
(205,352,o),
(322,352,cs)
);
}
);
width = 563;
},
{
associatedMasterId = "9CA0F1F1-C419-4983-8E88-5CF3F967428B";
background = {
shapes = (
{
closed = 1;
nodes = (
(408,-13,o),
(527,88,o),
(527,217,cs),
(527,354,o),
(392,396,o),
(287,396,cs),
(140,396,o),
(17,314,o),
(17,176,cs),
(17,57,o),
(121,-13,o),
(251,-13,cs)
);
},
{
closed = 1;
nodes = (
(217,119,o),
(179,143,o),
(179,197,cs),
(179,257,o),
(227,307,o),
(290,307,cs),
(333,307,o),
(372,283,o),
(372,229,cs),
(372,170,o),
(324,119,o),
(260,119,cs)
);
},
{
closed = 1;
nodes = (
(293,429,o),
(268,449,o),
(268,491,cs),
(268,543,o),
(306,581,o),
(355,581,cs),
(390,581,o),
(415,561,o),
(415,521,cs),
(415,475,o),
(381,429,o),
(328,429,cs)
);
},
{
closed = 1;
nodes = (
(460,335,o),
(571,409,o),
(571,541,cs),
(571,648,o),
(479,713,o),
(365,713,cs),
(228,713,o),
(115,620,o),
(115,499,cs),
(115,378,o),
(227,335,o),
(328,335,cs)
);
}
);
};
layerId = "2275FDE9-41F5-43D3-856B-3453FC30E713";
name = "new Layer";
shapes = (
{
closed = 1;
nodes = (
(408,-13,o),
(527,88,o),
(527,217,cs),
(527,354,o),
(392,396,o),
(287,396,cs),
(140,396,o),
(17,314,o),
(17,176,cs),
(17,57,o),
(121,-13,o),
(251,-13,cs)
);
},
{
closed = 1;
nodes = (
(217,119,o),
(179,143,o),
(179,197,cs),
(179,257,o),
(227,307,o),
(290,307,cs),
(333,307,o),
(372,283,o),
(372,229,cs),
(372,170,o),
(324,119,o),
(260,119,cs)
);
},
{
closed = 1;
nodes = (
(293,429,o),
(268,449,o),
(268,491,cs),
(268,543,o),
(306,581,o),
(355,581,cs),
(390,581,o),
(415,561,o),
(415,521,cs),
(415,475,o),
(381,429,o),
(328,429,cs)
);
},
{
closed = 1;
nodes = (
(460,335,o),
(571,409,o),
(571,541,cs),
(571,648,o),
(479,713,o),
(365,713,cs),
(228,713,o),
(115,620,o),
(115,499,cs),
(115,378,o),
(227,335,o),
(328,335,cs)
);
}
);
width = 577;
},
{
background = {
shapes = (
{
closed = 1;
nodes = (
(442,-8,o),
(551,64,o),
(551,194,cs),
(551,334,o),
(422,389,o),
(306,389,cs),
(189,389,o),
(60,334,o),
(60,194,cs),
(60,64,o),
(170,-8,o),
(306,-8,cs)
);
},
{
closed = 1;
nodes = (
(208,53,o),
(127,103,o),
(127,198,cs),
(127,290,o),
(208,341,o),
(306,341,cs),
(404,341,o),
(484,290,o),
(484,198,cs),
(484,103,o),
(404,53,o),
(306,53,cs)
);
},
{
closed = 1;
nodes = (
(220,402,o),
(150,444,o),
(150,526,cs),
(150,604,o),
(220,647,o),
(306,647,cs),
(391,647,o),
(461,604,o),
(461,526,cs),
(461,444,o),
(391,402,o),
(306,402,cs)
);
},
{
closed = 1;
nodes = (
(412,352,o),
(527,404,o),
(527,528,cs),
(527,643,o),
(428,708,o),
(306,708,cs),
(183,708,o),
(84,643,o),
(84,528,cs),
(84,404,o),
(200,352,o),
(306,352,cs)
);
}
);
};
layerId = "CAEAD647-A533-4D72-9ACE-F5DE50C4DBD4";
shapes = (
{
closed = 1;
nodes = (
(442,-8,o),
(551,64,o),
(551,194,cs),
(551,334,o),
(422,389,o),
(306,389,cs),
(189,389,o),
(60,334,o),
(60,194,cs),
(60,64,o),
(170,-8,o),
(306,-8,cs)
);
},
{
closed = 1;
nodes = (
(208,53,o),
(127,103,o),
(127,198,cs),
(127,290,o),
(208,341,o),
(306,341,cs),
(404,341,o),
(484,290,o),
(484,198,cs),
(484,103,o),
(404,53,o),
(306,53,cs)
);
},
{
closed = 1;
nodes = (
(220,402,o),
(150,444,o),
(150,526,cs),
(150,604,o),
(220,647,o),
(306,647,cs),
(391,647,o),
(461,604,o),
(461,526,cs),
(461,444,o),
(391,402,o),
(306,402,cs)
);
},
{
closed = 1;
nodes = (
(412,352,o),
(527,404,o),
(527,528,cs),
(527,643,o),
(428,708,o),
(306,708,cs),
(183,708,o),
(84,643,o),
(84,528,cs),
(84,404,o),
(200,352,o),
(306,352,cs)
);
}
);
width = 611;
},
{
associatedMasterId = "CAEAD647-A533-4D72-9ACE-F5DE50C4DBD4";
background = {
shapes = (
{
closed = 1;
nodes = (
(401,-8,o),
(510,102,o),
(510,222,cs),
(510,328,o),
(427,389,o),
(299,389,cs),
(137,389,o),
(24,292,o),
(24,166,cs),
(24,55,o),
(112,-8,o),
(237,-8,cs)
);
},
{
closed = 1;
nodes = (
(157,53,o),
(91,92,o),
(91,173,cs),
(91,265,o),
(175,341,o),
(292,341,cs),
(377,341,o),
(442,300,o),
(442,220,cs),
(442,131,o),
(362,53,o),
(242,53,cs)
);
},
{
closed = 1;
nodes = (
(250,402,o),
(193,435,o),
(193,506,cs),
(193,587,o),
(266,647,o),
(366,647,cs),
(439,647,o),
(497,614,o),
(497,544,cs),
(497,463,o),
(420,402,o),
(322,402,cs)
);
},
{
closed = 1;
nodes = (
(461,352,o),
(565,435,o),
(565,549,cs),
(565,653,o),
(480,708,o),
(371,708,cs),
(227,708,o),
(126,613,o),
(126,505,cs),
(126,410,o),
(205,352,o),
(322,352,cs)
);
}
);
};
layerId = "E79878FF-EB5F-453B-A543-200886AF5489";
name = "new Layer";
shapes = (
{
closed = 1;
nodes = (
(401,-8,o),
(510,102,o),
(510,222,cs),
(510,328,o),
(427,389,o),
(299,389,cs),
(137,389,o),
(24,292,o),
(24,166,cs),
(24,55,o),
(112,-8,o),
(237,-8,cs)
);
},
{
closed = 1;
nodes = (
(157,53,o),
(91,92,o),
(91,173,cs),
(91,265,o),
(175,341,o),
(292,341,cs),
(377,341,o),
(442,300,o),
(442,220,cs),
(442,131,o),
(362,53,o),
(242,53,cs)
);
},
{
closed = 1;
nodes = (
(250,402,o),
(193,435,o),
(193,506,cs),
(193,587,o),
(266,647,o),
(366,647,cs),
(439,647,o),
(497,614,o),
(497,544,cs),
(497,463,o),
(420,402,o),
(322,402,cs)
);
},
{
closed = 1;
nodes = (
(461,352,o),
(565,435,o),
(565,549,cs),
(565,653,o),
(480,708,o),
(371,708,cs),
(227,708,o),
(126,613,o),
(126,505,cs),
(126,410,o),
(205,352,o),
(322,352,cs)
);
}
);
width = 563;
},
{
associatedMasterId = "CAEAD647-A533-4D72-9ACE-F5DE50C4DBD4";
background = {
shapes = (
{
closed = 1;
nodes = (
(408,-13,o),
(527,88,o),
(527,217,cs),
(527,354,o),
(392,396,o),
(287,396,cs),
(140,396,o),
(17,314,o),
(17,176,cs),
(17,57,o),
(121,-13,o),
(251,-13,cs)
);
},
{
closed = 1;
nodes = (
(217,119,o),
(179,143,o),
(179,197,cs),
(179,257,o),
(227,307,o),
(290,307,cs),
(333,307,o),
(372,283,o),
(372,229,cs),
(372,170,o),
(324,119,o),
(260,119,cs)
);
},
{
closed = 1;
nodes = (
(293,429,o),
(268,449,o),
(268,491,cs),
(268,543,o),
(306,581,o),
(355,581,cs),
(390,581,o),
(415,561,o),
(415,521,cs),
(415,475,o),
(381,429,o),
(328,429,cs)
);
},
{
closed = 1;
nodes = (
(460,335,o),
(571,409,o),
(571,541,cs),
(571,648,o),
(479,713,o),
(365,713,cs),
(228,713,o),
(115,620,o),
(115,499,cs),
(115,378,o),
(227,335,o),
(328,335,cs)
);
}
);
};
layerId = "BB5C0702-6FEC-4974-A5DA-1962CDF0FD84";
name = "new Layer";
shapes = (
{
closed = 1;
nodes = (
(408,-13,o),
(527,88,o),
(527,217,cs),
(527,354,o),
(392,396,o),
(287,396,cs),
(140,396,o),
(17,314,o),
(17,176,cs),
(17,57,o),
(121,-13,o),
(251,-13,cs)
);
},
{
closed = 1;
nodes = (
(217,119,o),
(179,143,o),
(179,197,cs),
(179,257,o),
(227,307,o),
(290,307,cs),
(333,307,o),
(372,283,o),
(372,229,cs),
(372,170,o),
(324,119,o),
(260,119,cs)
);
},
{
closed = 1;
nodes = (
(293,429,o),
(268,449,o),
(268,491,cs),
(268,543,o),
(306,581,o),
(355,581,cs),
(390,581,o),
(415,561,o),
(415,521,cs),
(415,475,o),
(381,429,o),
(328,429,cs)
);
},
{
closed = 1;
nodes = (
(460,335,o),
(571,409,o),
(571,541,cs),
(571,648,o),
(479,713,o),
(365,713,cs),
(228,713,o),
(115,620,o),
(115,499,cs),
(115,378,o),
(227,335,o),
(328,335,cs)
);
}
);
width = 577;
},
{
background = {
shapes = (
{
closed = 1;
nodes = (
(456,-13,o),
(572,68,o),
(572,199,cs),
(572,350,o),
(422,396,o),
(312,396,cs),
(203,396,o),
(52,350,o),
(52,199,cs),
(52,68,o),
(169,-13,o),
(312,-13,cs)
);
},
{
closed = 1;
nodes = (
(259,119,o),
(210,150,o),
(210,213,cs),
(210,276,o),
(259,307,o),
(312,307,cs),
(366,307,o),
(415,276,o),
(415,213,cs),
(415,150,o),
(366,119,o),
(312,119,cs)
);
},
{
closed = 1;
nodes = (
(268,429,o),
(232,456,o),
(232,505,cs),
(232,554,o),
(268,581,o),
(312,581,cs),
(357,581,o),
(392,554,o),
(392,505,cs),
(392,456,o),
(357,429,o),
(312,429,cs)
);
},
{
closed = 1;
nodes = (
(413,335,o),
(546,378,o),
(546,516,cs),
(546,636,o),
(440,713,o),
(312,713,cs),
(184,713,o),
(78,636,o),
(78,516,cs),
(78,378,o),
(211,335,o),
(312,335,cs)
);
}
);
};
hints = (
{
horizontal = 1;
options = 4;
origin = (0,11);
stem = 0;
target = (1,11);
type = TTStem;
},
{
horizontal = 1;
options = 4;
origin = (3,5);
stem = 0;
target = (2,5);
type = TTStem;
},
{
horizontal = 1;
options = 4;
origin = (1,11);
other1 = (1,5);
target = (2,5);
type = TTInterpolate;
},
{
horizontal = 1;
options = 8;
origin = (1,5);
stem = 0;
target = (2,11);
type = TTStem;
},
{
horizontal = 1;
options = 4;
origin = (2,11);
other1 = (0,5,3,2);
target = (1,5);
type = TTInterpolate;
},
{
horizontal = 1;
options = 4;
origin = (2,11);
other1 = (0,8,3,11);
target = (1,5);
type = TTInterpolate;
}
);
layerId = "474EAD97-6F36-4C8E-8A0A-83C4F7DF9055";
shapes = (
{
closed = 1;
nodes = (
(456,-13,o),
(572,68,o),
(572,199,cs),
(572,350,o),
(422,396,o),
(312,396,cs),
(203,396,o),
(52,350,o),
(52,199,cs),
(52,68,o),
(169,-13,o),
(312,-13,cs)
);
},
{
closed = 1;
nodes = (
(259,119,o),
(210,150,o),
(210,213,cs),
(210,276,o),
(259,307,o),
(312,307,cs),
(366,307,o),
(415,276,o),
(415,213,cs),
(415,150,o),
(366,119,o),
(312,119,cs)
);
},
{
closed = 1;
nodes = (
(268,429,o),
(232,456,o),
(232,505,cs),
(232,554,o),
(268,581,o),
(312,581,cs),
(357,581,o),
(392,554,o),
(392,505,cs),
(392,456,o),
(357,429,o),
(312,429,cs)
);
},
{
closed = 1;
nodes = (
(413,335,o),
(546,378,o),
(546,516,cs),
(546,636,o),
(440,713,o),
(312,713,cs),
(184,713,o),
(78,636,o),
(78,516,cs),
(78,378,o),
(211,335,o),
(312,335,cs)
);
}
);
width = 624;
}
);
unicode = 56;
}
{
glyphname = colon;
kernLeft = colon;
kernRight = colon;
layers = (
{
background = {
shapes = (
{
closed = 1;
nodes = (
(133,407,o),
(155,429,o),
(155,458,cs),
(155,486,o),
(133,508,o),
(104,508,cs),
(76,508,o),
(55,486,o),
(55,458,cs),
(55,429,o),
(76,407,o),
(104,407,cs)
);
},
{
closed = 1;
nodes = (
(133,-9,o),
(155,13,o),
(155,42,cs),
(155,70,o),
(133,92,o),
(104,92,cs),
(76,92,o),
(55,70,o),
(55,42,cs),
(55,13,o),
(76,-9,o),
(104,-9,cs)
);
}
);
};
layerId = "9CA0F1F1-C419-4983-8E88-5CF3F967428B";
shapes = (
{
closed = 1;
nodes = (
(133,407,o),
(155,429,o),
(155,458,cs),
(155,486,o),
(133,508,o),
(104,508,cs),
(76,508,o),
(55,486,o),
(55,458,cs),
(55,429,o),
(76,407,o),
(104,407,cs)
);
},
{
closed = 1;
nodes = (
(133,-9,o),
(155,13,o),
(155,42,cs),
(155,70,o),
(133,92,o),
(104,92,cs),
(76,92,o),
(55,70,o),
(55,42,cs),
(55,13,o),
(76,-9,o),
(104,-9,cs)
);
}
);
width = 210;
},
{
background = {
hints = (
{
horizontal = 1;
options = 4;
origin = (0,11);
type = TTSnap;
},
{
horizontal = 1;
options = 4;
origin = (0,11);
stem = -1;
target = (0,5);
type = TTStem;
},
{
horizontal = 1;
options = 4;
origin = (1,11);
type = TTSnap;
},
{
horizontal = 1;
options = 4;
origin = (1,11);
stem = -1;
target = (1,5);
type = TTStem;
}
);
shapes = (
{
closed = 1;
nodes = (
(194,338,o),
(233,379,o),
(233,436,cs),
(233,493,o),
(194,533,o),
(138,533,cs),
(81,533,o),
(42,493,o),
(42,436,cs),
(42,379,o),
(81,338,o),
(138,338,cs)
);
},
{
closed = 1;
nodes = (
(194,-13,o),
(233,28,o),
(233,85,cs),
(233,142,o),
(194,182,o),
(138,182,cs),
(81,182,o),
(42,142,o),
(42,85,cs),
(42,28,o),
(81,-13,o),
(138,-13,cs)
);
}
);
};
hints = (
{
horizontal = 1;
options = 4;
origin = (0,5);
stem = -1;
target = (0,11);
type = TTStem;
},
{
horizontal = 1;
options = 4;
origin = (1,11);
stem = -1;
target = (1,5);
type = TTStem;
}
);
layerId = "5500A485-9BC9-4FA7-853B-8075021C5598";
shapes = (
{
closed = 1;
nodes = (
(194,338,o),
(233,379,o),
(233,436,cs),
(233,493,o),
(194,533,o),
(138,533,cs),
(81,533,o),
(42,493,o),
(42,436,cs),
(42,379,o),
(81,338,o),
(138,338,cs)
);
},
{
closed = 1;
nodes = (
(194,-13,o),
(233,28,o),
(233,85,cs),
(233,142,o),
(194,182,o),
(138,182,cs),
(81,182,o),
(42,142,o),
(42,85,cs),
(42,28,o),
(81,-13,o),
(138,-13,cs)
);
}
);
width = 275;
},
{
associatedMasterId = "9CA0F1F1-C419-4983-8E88-5CF3F967428B";
background = {
shapes = (
{
closed = 1;
nodes = (
(186,407,o),
(208,429,o),
(208,458,cs),
(208,486,o),
(186,508,o),
(157,508,cs),
(129,508,o),
(108,486,o),
(108,458,cs),
(108,429,o),
(129,407,o),
(157,407,cs)
);
},
{
closed = 1;
nodes = (
(82,-9,o),
(104,13,o),
(104,42,cs),
(104,70,o),
(82,92,o),
(53,92,cs),
(25,92,o),
(4,70,o),
(4,42,cs),
(4,13,o),
(25,-9,o),
(53,-9,cs)
);
}
);
};
layerId = "B8B1B9F7-57AD-40F6-8824-2C22876E3A5C";
name = "new Layer";
shapes = (
{
closed = 1;
nodes = (
(186,407,o),
(208,429,o),
(208,458,cs),
(208,486,o),
(186,508,o),
(157,508,cs),
(129,508,o),
(108,486,o),
(108,458,cs),
(108,429,o),
(129,407,o),
(157,407,cs)
);
},
{
closed = 1;
nodes = (
(82,-9,o),
(104,13,o),
(104,42,cs),
(104,70,o),
(82,92,o),
(53,92,cs),
(25,92,o),
(4,70,o),
(4,42,cs),
(4,13,o),
(25,-9,o),
(53,-9,cs)
);
}
);
width = 215;
},
{
associatedMasterId = "9CA0F1F1-C419-4983-8E88-5CF3F967428B";
background = {
shapes = (
{
closed = 1;
nodes = (
(238,338,o),
(277,379,o),
(277,436,cs),
(277,493,o),
(238,533,o),
(182,533,cs),
(125,533,o),
(86,493,o),
(86,436,cs),
(86,379,o),
(125,338,o),
(182,338,cs)
);
},
{
closed = 1;
nodes = (
(150,-13,o),
(189,28,o),
(189,85,cs),
(189,142,o),
(150,182,o),
(94,182,cs),
(37,182,o),
(-2,142,o),
(-2,85,cs),
(-2,28,o),
(37,-13,o),
(94,-13,cs)
);
}
);
};
layerId = "2275FDE9-41F5-43D3-856B-3453FC30E713";
name = "new Layer";
shapes = (
{
closed = 1;
nodes = (
(238,338,o),
(277,379,o),
(277,436,cs),
(277,493,o),
(238,533,o),
(182,533,cs),
(125,533,o),
(86,493,o),
(86,436,cs),
(86,379,o),
(125,338,o),
(182,338,cs)
);
},
{
closed = 1;
nodes = (
(150,-13,o),
(189,28,o),
(189,85,cs),
(189,142,o),
(150,182,o),
(94,182,cs),
(37,182,o),
(-2,142,o),
(-2,85,cs),
(-2,28,o),
(37,-13,o),
(94,-13,cs)
);
}
);
width = 279;
},
{
background = {
shapes = (
{
closed = 1;
nodes = (
(153,407,o),
(175,429,o),
(175,458,cs),
(175,486,o),
(153,508,o),
(124,508,cs),
(96,508,o),
(75,486,o),
(75,458,cs),
(75,429,o),
(96,407,o),
(124,407,cs)
);
},
{
closed = 1;
nodes = (
(153,-9,o),
(175,13,o),
(175,42,cs),
(175,70,o),
(153,92,o),
(124,92,cs),
(96,92,o),
(75,70,o),
(75,42,cs),
(75,13,o),
(96,-9,o),
(124,-9,cs)
);
}
);
};
layerId = "CAEAD647-A533-4D72-9ACE-F5DE50C4DBD4";
shapes = (
{
closed = 1;
nodes = (
(153,407,o),
(175,429,o),
(175,458,cs),
(175,486,o),
(153,508,o),
(124,508,cs),
(96,508,o),
(75,486,o),
(75,458,cs),
(75,429,o),
(96,407,o),
(124,407,cs)
);
},
{
closed = 1;
nodes = (
(153,-9,o),
(175,13,o),
(175,42,cs),
(175,70,o),
(153,92,o),
(124,92,cs),
(96,92,o),
(75,70,o),
(75,42,cs),
(75,13,o),
(96,-9,o),
(124,-9,cs)
);
}
);
width = 250;
},
{
associatedMasterId = "CAEAD647-A533-4D72-9ACE-F5DE50C4DBD4";
background = {
shapes = (
{
closed = 1;
nodes = (
(186,407,o),
(208,429,o),
(208,458,cs),
(208,486,o),
(186,508,o),
(157,508,cs),
(129,508,o),
(108,486,o),
(108,458,cs),
(108,429,o),
(129,407,o),
(157,407,cs)
);
},
{
closed = 1;
nodes = (
(82,-9,o),
(104,13,o),
(104,42,cs),
(104,70,o),
(82,92,o),
(53,92,cs),
(25,92,o),
(4,70,o),
(4,42,cs),
(4,13,o),
(25,-9,o),
(53,-9,cs)
);
}
);
};
layerId = "D426165C-9EED-4811-870B-13253C65536A";
name = "new Layer";
shapes = (
{
closed = 1;
nodes = (
(186,407,o),
(208,429,o),
(208,458,cs),
(208,486,o),
(186,508,o),
(157,508,cs),
(129,508,o),
(108,486,o),
(108,458,cs),
(108,429,o),
(129,407,o),
(157,407,cs)
);
},
{
closed = 1;
nodes = (
(82,-9,o),
(104,13,o),
(104,42,cs),
(104,70,o),
(82,92,o),
(53,92,cs),
(25,92,o),
(4,70,o),
(4,42,cs),
(4,13,o),
(25,-9,o),
(53,-9,cs)
);
}
);
width = 215;
},
{
associatedMasterId = "CAEAD647-A533-4D72-9ACE-F5DE50C4DBD4";
background = {
shapes = (
{
closed = 1;
nodes = (
(238,338,o),
(277,379,o),
(277,436,cs),
(277,493,o),
(238,533,o),
(182,533,cs),
(125,533,o),
(86,493,o),
(86,436,cs),
(86,379,o),
(125,338,o),
(182,338,cs)
);
},
{
closed = 1;
nodes = (
(150,-13,o),
(189,28,o),
(189,85,cs),
(189,142,o),
(150,182,o),
(94,182,cs),
(37,182,o),
(-2,142,o),
(-2,85,cs),
(-2,28,o),
(37,-13,o),
(94,-13,cs)
);
}
);
};
layerId = "489AA21E-967F-4D01-9679-20AE1B598EF1";
name = "new Layer";
shapes = (
{
closed = 1;
nodes = (
(238,338,o),
(277,379,o),
(277,436,cs),
(277,493,o),
(238,533,o),
(182,533,cs),
(125,533,o),
(86,493,o),
(86,436,cs),
(86,379,o),
(125,338,o),
(182,338,cs)
);
},
{
closed = 1;
nodes = (
(150,-13,o),
(189,28,o),
(189,85,cs),
(189,142,o),
(150,182,o),
(94,182,cs),
(37,182,o),
(-2,142,o),
(-2,85,cs),
(-2,28,o),
(37,-13,o),
(94,-13,cs)
);
}
);
width = 279;
},
{
background = {
hints = (
{
horizontal = 1;
options = 4;
origin = (0,11);
type = TTSnap;
},
{
horizontal = 1;
options = 4;
origin = (0,11);
stem = -1;
target = (0,5);
type = TTStem;
},
{
horizontal = 1;
options = 4;
origin = (1,11);
type = TTSnap;
},
{
horizontal = 1;
options = 4;
origin = (1,11);
stem = -1;
target = (1,5);
type = TTStem;
}
);
shapes = (
{
closed = 1;
nodes = (
(214,338,o),
(253,379,o),
(253,436,cs),
(253,493,o),
(214,533,o),
(158,533,cs),
(101,533,o),
(62,493,o),
(62,436,cs),
(62,379,o),
(101,338,o),
(158,338,cs)
);
},
{
closed = 1;
nodes = (
(214,-13,o),
(253,28,o),
(253,85,cs),
(253,142,o),
(214,182,o),
(158,182,cs),
(101,182,o),
(62,142,o),
(62,85,cs),
(62,28,o),
(101,-13,o),
(158,-13,cs)
);
}
);
};
hints = (
{
horizontal = 1;
options = 4;
origin = (0,5);
stem = -1;
target = (0,11);
type = TTStem;
},
{
horizontal = 1;
options = 4;
origin = (1,11);
stem = -1;
target = (1,5);
type = TTStem;
}
);
layerId = "474EAD97-6F36-4C8E-8A0A-83C4F7DF9055";
shapes = (
{
closed = 1;
nodes = (
(214,338,o),
(253,379,o),
(253,436,cs),
(253,493,o),
(214,533,o),
(158,533,cs),
(101,533,o),
(62,493,o),
(62,436,cs),
(62,379,o),
(101,338,o),
(158,338,cs)
);
},
{
closed = 1;
nodes = (
(214,-13,o),
(253,28,o),
(253,85,cs),
(253,142,o),
(214,182,o),
(158,182,cs),
(101,182,o),
(62,142,o),
(62,85,cs),
(62,28,o),
(101,-13,o),
(158,-13,cs)
);
}
);
width = 315;
}
);
unicode = (58,1475);
}
{
glyphname = semicolon;
kernLeft = colon;
kernRight = colon;
layers = (
{
background = {
shapes = (
{
closed = 1;
nodes = (
(141,407,o),
(163,429,o),
(163,458,cs),
(163,486,o),
(141,508,o),
(112,508,cs),
(84,508,o),
(63,486,o),
(63,458,cs),
(63,429,o),
(84,407,o),
(112,407,cs)
);
},
{
closed = 1;
nodes = (
(149,-19,ls),
(161,9,o),
(166,21,o),
(166,41,cs),
(166,71,o),
(144,92,o),
(115,92,cs),
(87,92,o),
(66,71,o),
(66,42,cs),
(66,10,o),
(91,-13,o),
(124,-10,c),
(115,19,l),
(53,-131,l),
(95,-148,l)
);
}
);
};
layerId = "9CA0F1F1-C419-4983-8E88-5CF3F967428B";
shapes = (
{
closed = 1;
nodes = (
(141,407,o),
(163,429,o),
(163,458,cs),
(163,486,o),
(141,508,o),
(112,508,cs),
(84,508,o),
(63,486,o),
(63,458,cs),
(63,429,o),
(84,407,o),
(112,407,cs)
);
},
{
closed = 1;
nodes = (
(149,-19,ls),
(161,9,o),
(166,21,o),
(166,41,cs),
(166,71,o),
(144,92,o),
(115,92,cs),
(87,92,o),
(66,71,o),
(66,42,cs),
(66,10,o),
(91,-13,o),
(124,-10,c),
(115,19,l),
(53,-131,l),
(95,-148,l)
);
}
);
width = 225;
},
{
background = {
hints = (
{
horizontal = 1;
options = 4;
origin = (0,11);
type = TTSnap;
},
{
horizontal = 1;
options = 4;
origin = (0,11);
stem = -1;
target = (0,5);
type = TTStem;
},
{
horizontal = 1;
options = 4;
origin = (1,12);
stem = -1;
target = (1,6);
type = TTStem;
},
{
horizontal = 1;
options = 4;
origin = (1,12);
stem = -1;
target = (1,15);
type = TTStem;
}
);
shapes = (
{
closed = 1;
nodes = (
(194,338,o),
(233,379,o),
(233,436,cs),
(233,493,o),
(194,533,o),
(138,533,cs),
(81,533,o),
(42,493,o),
(42,436,cs),
(42,379,o),
(81,338,o),
(138,338,cs)
);
},
{
closed = 1;
nodes = (
(208,-18,ls),
(224,19,o),
(234,43,o),
(234,81,cs),
(234,138,o),
(195,182,o),
(139,182,cs),
(82,182,o),
(43,142,o),
(43,85,cs),
(43,23,o),
(91,-22,o),
(157,-10,c),
(141,57,l),
(57,-133,l),
(143,-170,l)
);
}
);
};
hints = (
{
horizontal = 1;
options = 4;
origin = (0,5);
stem = -1;
target = (0,11);
type = TTStem;
},
{
horizontal = 1;
options = 4;
origin = (1,12);
stem = -1;
target = (1,6);
type = TTStem;
},
{
horizontal = 1;
options = 4;
origin = (1,12);
stem = -1;
target = (1,15);
type = TTStem;
}
);
layerId = "5500A485-9BC9-4FA7-853B-8075021C5598";
shapes = (
{
closed = 1;
nodes = (
(194,338,o),
(233,379,o),
(233,436,cs),
(233,493,o),
(194,533,o),
(138,533,cs),
(81,533,o),
(42,493,o),
(42,436,cs),
(42,379,o),
(81,338,o),
(138,338,cs)
);
},
{
closed = 1;
nodes = (
(208,-18,ls),
(224,19,o),
(234,43,o),
(234,81,cs),
(234,138,o),
(195,182,o),
(139,182,cs),
(82,182,o),
(43,142,o),
(43,85,cs),
(43,23,o),
(91,-22,o),
(157,-10,c),
(141,57,l),
(57,-133,l),
(143,-170,l)
);
}
);
width = 277;
},
{
associatedMasterId = "9CA0F1F1-C419-4983-8E88-5CF3F967428B";
background = {
shapes = (
{
closed = 1;
nodes = (
(192,407,o),
(214,429,o),
(214,458,cs),
(214,486,o),
(192,508,o),
(163,508,cs),
(135,508,o),
(114,486,o),
(114,458,cs),
(114,429,o),
(135,407,o),
(163,407,cs)
);
},
{
closed = 1;
nodes = (
(91,-6,ls),
(105,15,o),
(110,28,o),
(110,42,cs),
(110,70,o),
(88,92,o),
(59,92,cs),
(31,92,o),
(10,70,o),
(10,42,cs),
(10,14,o),
(32,-9,o),
(58,-9,c),
(59,22,l),
(-40,-125,l),
(-3,-149,l)
);
}
);
};
layerId = "B8B1B9F7-57AD-40F6-8824-2C22876E3A5C";
name = "new Layer";
shapes = (
{
closed = 1;
nodes = (
(193,407,o),
(215,429,o),
(215,458,cs),
(215,486,o),
(193,508,o),
(164,508,cs),
(136,508,o),
(115,486,o),
(115,458,cs),
(115,429,o),
(136,407,o),
(164,407,cs)
);
},
{
closed = 1;
nodes = (
(91,-6,ls),
(105,15,o),
(110,28,o),
(110,42,cs),
(110,70,o),
(88,92,o),
(59,92,cs),
(31,92,o),
(10,70,o),
(10,42,cs),
(10,14,o),
(32,-9,o),
(58,-9,c),
(59,22,l),
(-40,-125,l),
(-3,-149,l)
);
}
);
width = 225;
},
{
associatedMasterId = "9CA0F1F1-C419-4983-8E88-5CF3F967428B";
background = {
shapes = (
{
closed = 1;
nodes = (
(238,338,o),
(277,379,o),
(277,436,cs),
(277,493,o),
(238,533,o),
(182,533,cs),
(125,533,o),
(86,493,o),
(86,436,cs),
(86,379,o),
(125,338,o),
(182,338,cs)
);
},
{
closed = 1;
nodes = (
(146,-18,ls),
(171,19,o),
(189,44,o),
(189,81,cs),
(189,138,o),
(150,182,o),
(94,182,cs),
(37,182,o),
(-2,142,o),
(-2,85,cs),
(-2,23,o),
(46,-22,o),
(112,-10,c),
(96,67,l),
(-35,-123,l),
(43,-170,l)
);
}
);
};
layerId = "2275FDE9-41F5-43D3-856B-3453FC30E713";
name = "new Layer";
shapes = (
{
closed = 1;
nodes = (
(238,338,o),
(277,379,o),
(277,436,cs),
(277,493,o),
(238,533,o),
(182,533,cs),
(125,533,o),
(86,493,o),
(86,436,cs),
(86,379,o),
(125,338,o),
(182,338,cs)
);
},
{
closed = 1;
nodes = (
(147,-18,ls),
(172,19,o),
(190,44,o),
(190,81,cs),
(190,138,o),
(151,182,o),
(95,182,cs),
(38,182,o),
(-1,142,o),
(-1,85,cs),
(-1,23,o),
(47,-22,o),
(113,-10,c),
(97,67,l),
(-34,-123,l),
(44,-170,l)
);
}
);
width = 279;
},
{
background = {
shapes = (
{
closed = 1;
nodes = (
(161,407,o),
(183,429,o),
(183,458,cs),
(183,486,o),
(161,508,o),
(132,508,cs),
(104,508,o),
(83,486,o),
(83,458,cs),
(83,429,o),
(104,407,o),
(132,407,cs)
);
},
{
closed = 1;
nodes = (
(169,-19,ls),
(181,9,o),
(186,21,o),
(186,41,cs),
(186,71,o),
(164,92,o),
(135,92,cs),
(107,92,o),
(86,71,o),
(86,42,cs),
(86,10,o),
(111,-13,o),
(144,-10,c),
(135,19,l),
(73,-131,l),
(115,-148,l)
);
}
);
};
layerId = "CAEAD647-A533-4D72-9ACE-F5DE50C4DBD4";
shapes = (
{
closed = 1;
nodes = (
(161,407,o),
(183,429,o),
(183,458,cs),
(183,486,o),
(161,508,o),
(132,508,cs),
(104,508,o),
(83,486,o),
(83,458,cs),
(83,429,o),
(104,407,o),
(132,407,cs)
);
},
{
closed = 1;
nodes = (
(169,-19,ls),
(181,9,o),
(186,21,o),
(186,41,cs),
(186,71,o),
(164,92,o),
(135,92,cs),
(107,92,o),
(86,71,o),
(86,42,cs),
(86,10,o),
(111,-13,o),
(144,-10,c),
(135,19,l),
(73,-131,l),
(115,-148,l)
);
}
);
width = 265;
},
{
associatedMasterId = "CAEAD647-A533-4D72-9ACE-F5DE50C4DBD4";
background = {
shapes = (
{
closed = 1;
nodes = (
(192,407,o),
(214,429,o),
(214,458,cs),
(214,486,o),
(192,508,o),
(163,508,cs),
(135,508,o),
(114,486,o),
(114,458,cs),
(114,429,o),
(135,407,o),
(163,407,cs)
);
},
{
closed = 1;
nodes = (
(91,-6,ls),
(105,15,o),
(110,28,o),
(110,42,cs),
(110,70,o),
(88,92,o),
(59,92,cs),
(31,92,o),
(10,70,o),
(10,42,cs),
(10,14,o),
(32,-9,o),
(58,-9,c),
(59,22,l),
(-40,-125,l),
(-3,-149,l)
);
}
);
};
layerId = "F91E0E87-FC48-4B8D-8805-4F989D687A42";
name = "new Layer";
shapes = (
{
closed = 1;
nodes = (
(193,407,o),
(215,429,o),
(215,458,cs),
(215,486,o),
(193,508,o),
(164,508,cs),
(136,508,o),
(115,486,o),
(115,458,cs),
(115,429,o),
(136,407,o),
(164,407,cs)
);
},
{
closed = 1;
nodes = (
(91,-6,ls),
(105,15,o),
(110,28,o),
(110,42,cs),
(110,70,o),
(88,92,o),
(59,92,cs),
(31,92,o),
(10,70,o),
(10,42,cs),
(10,14,o),
(32,-9,o),
(58,-9,c),
(59,22,l),
(-40,-125,l),
(-3,-149,l)
);
}
);
width = 225;
},
{
associatedMasterId = "CAEAD647-A533-4D72-9ACE-F5DE50C4DBD4";
background = {
shapes = (
{
closed = 1;
nodes = (
(238,338,o),
(277,379,o),
(277,436,cs),
(277,493,o),
(238,533,o),
(182,533,cs),
(125,533,o),
(86,493,o),
(86,436,cs),
(86,379,o),
(125,338,o),
(182,338,cs)
);
},
{
closed = 1;
nodes = (
(146,-18,ls),
(171,19,o),
(189,44,o),
(189,81,cs),
(189,138,o),
(150,182,o),
(94,182,cs),
(37,182,o),
(-2,142,o),
(-2,85,cs),
(-2,23,o),
(46,-22,o),
(112,-10,c),
(96,67,l),
(-35,-123,l),
(43,-170,l)
);
}
);
};
layerId = "BAF29933-A403-413C-B7FE-57866F469A00";
name = "new Layer";
shapes = (
{
closed = 1;
nodes = (
(238,338,o),
(277,379,o),
(277,436,cs),
(277,493,o),
(238,533,o),
(182,533,cs),
(125,533,o),
(86,493,o),
(86,436,cs),
(86,379,o),
(125,338,o),
(182,338,cs)
);
},
{
closed = 1;
nodes = (
(147,-18,ls),
(172,19,o),
(190,44,o),
(190,81,cs),
(190,138,o),
(151,182,o),
(95,182,cs),
(38,182,o),
(-1,142,o),
(-1,85,cs),
(-1,23,o),
(47,-22,o),
(113,-10,c),
(97,67,l),
(-34,-123,l),
(44,-170,l)
);
}
);
width = 279;
},
{
background = {
hints = (
{
horizontal = 1;
options = 4;
origin = (0,11);
type = TTSnap;
},
{
horizontal = 1;
options = 4;
origin = (0,11);
stem = -1;
target = (0,5);
type = TTStem;
},
{
horizontal = 1;
options = 4;
origin = (1,12);
stem = -1;
target = (1,6);
type = TTStem;
},
{
horizontal = 1;
options = 4;
origin = (1,12);
stem = -1;
target = (1,15);
type = TTStem;
}
);
shapes = (
{
closed = 1;
nodes = (
(214,338,o),
(253,379,o),
(253,436,cs),
(253,493,o),
(214,533,o),
(158,533,cs),
(101,533,o),
(62,493,o),
(62,436,cs),
(62,379,o),
(101,338,o),
(158,338,cs)
);
},
{
closed = 1;
nodes = (
(228,-18,ls),
(244,19,o),
(254,43,o),
(254,81,cs),
(254,138,o),
(215,182,o),
(159,182,cs),
(102,182,o),
(63,142,o),
(63,85,cs),
(63,23,o),
(111,-22,o),
(177,-10,c),
(161,57,l),
(77,-133,l),
(163,-170,l)
);
}
);
};
hints = (
{
horizontal = 1;
options = 4;
origin = (0,5);
stem = -1;
target = (0,11);
type = TTStem;
},
{
horizontal = 1;
options = 4;
origin = (1,12);
stem = -1;
target = (1,6);
type = TTStem;
},
{
horizontal = 1;
options = 4;
origin = (1,12);
stem = -1;
target = (1,15);
type = TTStem;
}
);
layerId = "474EAD97-6F36-4C8E-8A0A-83C4F7DF9055";
shapes = (
{
closed = 1;
nodes = (
(214,338,o),
(253,379,o),
(253,436,cs),
(253,493,o),
(214,533,o),
(158,533,cs),
(101,533,o),
(62,493,o),
(62,436,cs),
(62,379,o),
(101,338,o),
(158,338,cs)
);
},
{
closed = 1;
nodes = (
(228,-18,ls),
(244,19,o),
(254,43,o),
(254,81,cs),
(254,138,o),
(215,182,o),
(159,182,cs),
(102,182,o),
(63,142,o),
(63,85,cs),
(63,23,o),
(111,-22,o),
(177,-10,c),
(161,57,l),
(77,-133,l),
(163,-170,l)
);
}
);
width = 317;
}
);
unicode = 59;
}
{
glyphname = equal;
layers = (
{
background = {
shapes = (
{
closed = 1;
nodes = (
(115,217,l),
(115,159,l),
(484,159,l),
(484,217,l)
);
},
{
closed = 1;
nodes = (
(115,396,l),
(115,339,l),
(484,339,l),
(484,396,l)
);
}
);
};
layerId = "9CA0F1F1-C419-4983-8E88-5CF3F967428B";
shapes = (
{
closed = 1;
nodes = (
(115,217,l),
(115,159,l),
(484,159,l),
(484,217,l)
);
},
{
closed = 1;
nodes = (
(115,396,l),
(115,339,l),
(484,339,l),
(484,396,l)
);
}
);
width = 600;
},
{
background = {
shapes = (
{
closed = 1;
nodes = (
(115,236,l),
(115,114,l),
(485,114,l),
(485,236,l)
);
},
{
closed = 1;
nodes = (
(115,457,l),
(115,335,l),
(485,335,l),
(485,457,l)
);
}
);
};
hints = (
{
horizontal = 1;
origin = (0,1);
target = (0,0);
type = TTStem;
},
{
horizontal = 1;
options = 4;
origin = (1,0);
target = (1,3);
type = TTShift;
},
{
horizontal = 1;
options = 4;
origin = (1,1);
target = (1,2);
type = TTShift;
},
{
horizontal = 1;
options = 4;
origin = (0,0);
target = (0,3);
type = TTShift;
},
{
horizontal = 1;
options = 4;
origin = (0,1);
target = (0,2);
type = TTShift;
},
{
horizontal = 1;
origin = (0,0);
stem = -1;
target = (1,1);
type = TTStem;
},
{
horizontal = 1;
origin = (1,1);
target = (1,0);
type = TTStem;
},
{
horizontal = 1;
origin = (0,1);
type = TTSnap;
}
);
layerId = "5500A485-9BC9-4FA7-853B-8075021C5598";
shapes = (
{
closed = 1;
nodes = (
(115,236,l),
(115,114,l),
(485,114,l),
(485,236,l)
);
},
{
closed = 1;
nodes = (
(115,457,l),
(115,335,l),
(485,335,l),
(485,457,l)
);
}
);
width = 600;
},
{
associatedMasterId = "9CA0F1F1-C419-4983-8E88-5CF3F967428B";
background = {
shapes = (
{
closed = 1;
nodes = (
(108,217,l),
(94,159,l),
(456,159,l),
(470,217,l)
);
},
{
closed = 1;
nodes = (
(153,396,l),
(139,339,l),
(501,339,l),
(515,396,l)
);
}
);
};
layerId = "B8B1B9F7-57AD-40F6-8824-2C22876E3A5C";
name = "new Layer";
shapes = (
{
closed = 1;
nodes = (
(108,217,l),
(94,159,l),
(456,159,l),
(470,217,l)
);
},
{
closed = 1;
nodes = (
(153,396,l),
(139,339,l),
(501,339,l),
(515,396,l)
);
}
);
width = 600;
},
{
associatedMasterId = "9CA0F1F1-C419-4983-8E88-5CF3F967428B";
background = {
shapes = (
{
closed = 1;
nodes = (
(110,236,l),
(79,114,l),
(442,114,l),
(473,236,l)
);
},
{
closed = 1;
nodes = (
(165,457,l),
(135,335,l),
(498,335,l),
(528,457,l)
);
}
);
};
layerId = "2275FDE9-41F5-43D3-856B-3453FC30E713";
name = "new Layer";
shapes = (
{
closed = 1;
nodes = (
(110,236,l),
(79,114,l),
(442,114,l),
(473,236,l)
);
},
{
closed = 1;
nodes = (
(165,457,l),
(135,335,l),
(498,335,l),
(528,457,l)
);
}
);
width = 600;
},
{
background = {
shapes = (
{
closed = 1;
nodes = (
(135,217,l),
(135,159,l),
(504,159,l),
(504,217,l)
);
},
{
closed = 1;
nodes = (
(135,396,l),
(135,339,l),
(504,339,l),
(504,396,l)
);
}
);
};
layerId = "CAEAD647-A533-4D72-9ACE-F5DE50C4DBD4";
shapes = (
{
closed = 1;
nodes = (
(135,217,l),
(135,159,l),
(504,159,l),
(504,217,l)
);
},
{
closed = 1;
nodes = (
(135,396,l),
(135,339,l),
(504,339,l),
(504,396,l)
);
}
);
width = 640;
},
{
associatedMasterId = "CAEAD647-A533-4D72-9ACE-F5DE50C4DBD4";
background = {
shapes = (
{
closed = 1;
nodes = (
(108,217,l),
(94,159,l),
(456,159,l),
(470,217,l)
);
},
{
closed = 1;
nodes = (
(153,396,l),
(139,339,l),
(501,339,l),
(515,396,l)
);
}
);
};
layerId = "0441B3BD-5F0B-4F84-8D0A-3DADBC4A5B85";
name = "new Layer";
shapes = (
{
closed = 1;
nodes = (
(108,217,l),
(94,159,l),
(456,159,l),
(470,217,l)
);
},
{
closed = 1;
nodes = (
(153,396,l),
(139,339,l),
(501,339,l),
(515,396,l)
);
}
);
width = 600;
},
{
associatedMasterId = "CAEAD647-A533-4D72-9ACE-F5DE50C4DBD4";
background = {
shapes = (
{
closed = 1;
nodes = (
(110,236,l),
(79,114,l),
(442,114,l),
(473,236,l)
);
},
{
closed = 1;
nodes = (
(165,457,l),
(135,335,l),
(498,335,l),
(528,457,l)
);
}
);
};
layerId = "65B4A5ED-FE9F-48E1-A049-FBC09BE560F9";
name = "new Layer";
shapes = (
{
closed = 1;
nodes = (
(110,236,l),
(79,114,l),
(442,114,l),
(473,236,l)
);
},
{
closed = 1;
nodes = (
(165,457,l),
(135,335,l),
(498,335,l),
(528,457,l)
);
}
);
width = 600;
},
{
background = {
shapes = (
{
closed = 1;
nodes = (
(135,236,l),
(135,114,l),
(505,114,l),
(505,236,l)
);
},
{
closed = 1;
nodes = (
(135,457,l),
(135,335,l),
(505,335,l),
(505,457,l)
);
}
);
};
hints = (
{
horizontal = 1;
origin = (0,1);
target = (0,0);
type = TTStem;
},
{
horizontal = 1;
options = 4;
origin = (1,0);
target = (1,3);
type = TTShift;
},
{
horizontal = 1;
options = 4;
origin = (1,1);
target = (1,2);
type = TTShift;
},
{
horizontal = 1;
options = 4;
origin = (0,0);
target = (0,3);
type = TTShift;
},
{
horizontal = 1;
options = 4;
origin = (0,1);
target = (0,2);
type = TTShift;
},
{
horizontal = 1;
origin = (0,0);
stem = -1;
target = (1,1);
type = TTStem;
},
{
horizontal = 1;
origin = (1,1);
target = (1,0);
type = TTStem;
},
{
horizontal = 1;
origin = (0,1);
type = TTSnap;
}
);
layerId = "474EAD97-6F36-4C8E-8A0A-83C4F7DF9055";
shapes = (
{
closed = 1;
nodes = (
(135,236,l),
(135,114,l),
(505,114,l),
(505,236,l)
);
},
{
closed = 1;
nodes = (
(135,457,l),
(135,335,l),
(505,335,l),
(505,457,l)
);
}
);
width = 640;
}
);
unicode = 61;
}
{
glyphname = greater;
layers = (
{
background = {
shapes = (
{
closed = 1;
nodes = (
(148,398,l),
(444,258,l),
(444,298,l),
(148,157,l),
(148,91,l),
(483,257,l),
(483,299,l),
(148,464,l)
);
}
);
};
layerId = "9CA0F1F1-C419-4983-8E88-5CF3F967428B";
shapes = (
{
closed = 1;
nodes = (
(148,398,l),
(444,258,l),
(444,298,l),
(148,157,l),
(148,91,l),
(483,257,l),
(483,299,l),
(148,464,l)
);
}
);
width = 600;
},
{
background = {
shapes = (
{
closed = 1;
nodes = (
(134,376,l),
(417,253,l),
(417,319,l),
(134,196,l),
(134,57,l),
(490,228,l),
(490,343,l),
(134,513,l)
);
}
);
};
hints = (
{
horizontal = 1;
options = 4;
origin = (0,0);
target = (0,7);
type = TTStem;
},
{
horizontal = 1;
options = 4;
origin = (0,4);
target = (0,3);
type = TTStem;
}
);
layerId = "5500A485-9BC9-4FA7-853B-8075021C5598";
shapes = (
{
closed = 1;
nodes = (
(134,376,l),
(417,253,l),
(417,319,l),
(134,196,l),
(134,57,l),
(490,228,l),
(490,343,l),
(134,513,l)
);
}
);
width = 600;
},
{
associatedMasterId = "9CA0F1F1-C419-4983-8E88-5CF3F967428B";
background = {
shapes = (
{
closed = 1;
nodes = (
(169,412,l),
(435,240,l),
(444,270,l),
(119,160,l),
(103,91,l),
(473,227,l),
(484,269,l),
(185,471,l)
);
}
);
};
layerId = "B8B1B9F7-57AD-40F6-8824-2C22876E3A5C";
name = "new Layer";
shapes = (
{
closed = 1;
nodes = (
(169,412,l),
(435,240,l),
(444,270,l),
(119,160,l),
(103,91,l),
(473,227,l),
(484,269,l),
(185,471,l)
);
}
);
width = 600;
},
{
associatedMasterId = "9CA0F1F1-C419-4983-8E88-5CF3F967428B";
background = {
shapes = (
{
closed = 1;
nodes = (
(156,390,l),
(402,247,l),
(417,305,l),
(111,202,l),
(74,57,l),
(468,208,l),
(497,323,l),
(188,513,l)
);
}
);
};
layerId = "2275FDE9-41F5-43D3-856B-3453FC30E713";
name = "new Layer";
shapes = (
{
closed = 1;
nodes = (
(156,390,l),
(402,247,l),
(417,305,l),
(111,202,l),
(74,57,l),
(468,208,l),
(497,323,l),
(188,513,l)
);
}
);
width = 600;
},
{
background = {
shapes = (
{
closed = 1;
nodes = (
(168,398,l),
(464,258,l),
(464,298,l),
(168,157,l),
(168,91,l),
(503,257,l),
(503,299,l),
(168,464,l)
);
}
);
};
layerId = "CAEAD647-A533-4D72-9ACE-F5DE50C4DBD4";
shapes = (
{
closed = 1;
nodes = (
(168,398,l),
(464,258,l),
(464,298,l),
(168,157,l),
(168,91,l),
(503,257,l),
(503,299,l),
(168,464,l)
);
}
);
width = 640;
},
{
associatedMasterId = "CAEAD647-A533-4D72-9ACE-F5DE50C4DBD4";
background = {
shapes = (
{
closed = 1;
nodes = (
(169,412,l),
(435,240,l),
(444,270,l),
(119,160,l),
(103,91,l),
(473,227,l),
(484,269,l),
(185,471,l)
);
}
);
};
layerId = "91BFCAEF-DB97-46B6-8D76-27338AAA3F55";
name = "new Layer";
shapes = (
{
closed = 1;
nodes = (
(169,412,l),
(435,240,l),
(444,270,l),
(119,160,l),
(103,91,l),
(473,227,l),
(484,269,l),
(185,471,l)
);
}
);
width = 600;
},
{
associatedMasterId = "CAEAD647-A533-4D72-9ACE-F5DE50C4DBD4";
background = {
shapes = (
{
closed = 1;
nodes = (
(156,390,l),
(402,247,l),
(417,305,l),
(111,202,l),
(74,57,l),
(468,208,l),
(497,323,l),
(188,513,l)
);
}
);
};
layerId = "C6271E2D-DFAC-4FCA-AC58-AB812ACCF873";
name = "new Layer";
shapes = (
{
closed = 1;
nodes = (
(156,390,l),
(402,247,l),
(417,305,l),
(111,202,l),
(74,57,l),
(468,208,l),
(497,323,l),
(188,513,l)
);
}
);
width = 600;
},
{
background = {
shapes = (
{
closed = 1;
nodes = (
(154,376,l),
(437,253,l),
(437,319,l),
(154,196,l),
(154,57,l),
(510,228,l),
(510,343,l),
(154,513,l)
);
}
);
};
hints = (
{
horizontal = 1;
options = 4;
origin = (0,0);
target = (0,7);
type = TTStem;
},
{
horizontal = 1;
options = 4;
origin = (0,4);
target = (0,3);
type = TTStem;
}
);
layerId = "474EAD97-6F36-4C8E-8A0A-83C4F7DF9055";
shapes = (
{
closed = 1;
nodes = (
(154,376,l),
(437,253,l),
(437,319,l),
(154,196,l),
(154,57,l),
(510,228,l),
(510,343,l),
(154,513,l)
);
}
);
width = 640;
}
);
unicode = 62;
}
{
glyphname = question;
kernLeft = question;
kernRight = question;
layers = (
{
background = {
guides = (
{
angle = 90;
pos = (232,213);
},
{
angle = 38.3675;
pos = (335,443);
}
);
shapes = (
{
closed = 1;
nodes = (
(246,212,l),
(246,290,o),
(285,322,o),
(337,363,cs),
(386,402,o),
(438,444,o),
(438,537,cs),
(438,641,o),
(361,709,o),
(240,709,cs),
(135,709,o),
(50,644,o),
(21,522,c),
(80,507,l),
(108,606,o),
(167,644,o),
(235,644,cs),
(315,644,o),
(368,601,o),
(368,537,cs),
(368,479,o),
(337,444,o),
(297,413,cs),
(244,371,o),
(185,321,o),
(185,212,c)
);
},
{
closed = 1;
nodes = (
(245,-9,o),
(267,13,o),
(267,42,cs),
(267,70,o),
(245,92,o),
(216,92,cs),
(188,92,o),
(167,70,o),
(167,42,cs),
(167,13,o),
(188,-9,o),
(216,-9,cs)
);
}
);
};
guides = (
{
angle = 90;
pos = (232,213);
},
{
angle = 38.3675;
pos = (335,443);
}
);
layerId = "9CA0F1F1-C419-4983-8E88-5CF3F967428B";
shapes = (
{
closed = 1;
nodes = (
(246,212,l),
(246,290,o),
(285,322,o),
(337,363,cs),
(386,402,o),
(438,444,o),
(438,537,cs),
(438,641,o),
(361,709,o),
(240,709,cs),
(135,709,o),
(50,644,o),
(21,522,c),
(80,507,l),
(108,606,o),
(167,644,o),
(235,644,cs),
(315,644,o),
(368,601,o),
(368,537,cs),
(368,479,o),
(337,444,o),
(297,413,cs),
(244,371,o),
(185,321,o),
(185,212,c)
);
},
{
closed = 1;
nodes = (
(245,-9,o),
(267,13,o),
(267,42,cs),
(267,70,o),
(245,92,o),
(216,92,cs),
(188,92,o),
(167,70,o),
(167,42,cs),
(167,13,o),
(188,-9,o),
(216,-9,cs)
);
}
);
width = 472;
},
{
background = {
guides = (
{
angle = 32.6508;
pos = (303,437);
}
);
shapes = (
{
closed = 1;
nodes = (
(339,257,l),
(336,288,o),
(363,308,o),
(398,330,cs),
(466,374,o),
(525,413,o),
(525,511,cs),
(525,634,o),
(430,713,o),
(286,713,cs),
(134,713,o),
(57,625,o),
(18,512,c),
(154,460,l),
(179,540,o),
(224,571,o),
(281,571,cs),
(326,571,o),
(361,551,o),
(361,511,cs),
(361,476,o),
(336,458,o),
(298,434,cs),
(255,406,o),
(198,367,o),
(203,257,c)
);
},
{
closed = 1;
nodes = (
(322,-13,o),
(361,28,o),
(361,85,cs),
(361,142,o),
(322,182,o),
(266,182,cs),
(209,182,o),
(170,142,o),
(170,85,cs),
(170,28,o),
(209,-13,o),
(266,-13,cs)
);
}
);
};
guides = (
{
angle = 32.6508;
pos = (303,437);
}
);
hints = (
{
horizontal = 1;
options = 4;
origin = (1,11);
stem = -1;
target = (1,5);
type = TTStem;
},
{
horizontal = 1;
options = 4;
origin = (0,9);
target = (0,16);
type = TTStem;
},
{
horizontal = 1;
options = 4;
origin = (1,5);
other1 = (0,0);
target = (0,16);
type = TTInterpolate;
},
{
horizontal = 1;
options = 4;
origin = (1,5);
other1 = (0,22);
target = (0,9);
type = TTInterpolate;
},
{
horizontal = 1;
options = 4;
origin = (1,11);
other1 = (0,3);
target = (0,16);
type = TTInterpolate;
}
);
layerId = "5500A485-9BC9-4FA7-853B-8075021C5598";
shapes = (
{
closed = 1;
nodes = (
(339,257,l),
(336,288,o),
(363,308,o),
(398,330,cs),
(466,374,o),
(525,413,o),
(525,511,cs),
(525,634,o),
(430,713,o),
(286,713,cs),
(134,713,o),
(57,625,o),
(18,512,c),
(154,460,l),
(179,540,o),
(224,571,o),
(281,571,cs),
(326,571,o),
(361,551,o),
(361,511,cs),
(361,476,o),
(336,458,o),
(298,434,cs),
(255,406,o),
(198,367,o),
(203,257,c)
);
},
{
closed = 1;
nodes = (
(322,-13,o),
(361,28,o),
(361,85,cs),
(361,142,o),
(322,182,o),
(266,182,cs),
(209,182,o),
(170,142,o),
(170,85,cs),
(170,28,o),
(209,-13,o),
(266,-13,cs)
);
}
);
width = 556;
},
{
associatedMasterId = "9CA0F1F1-C419-4983-8E88-5CF3F967428B";
background = {
shapes = (
{
closed = 1;
nodes = (
(231,213,l),
(245,293,o),
(301,332,o),
(360,370,cs),
(444,425,o),
(496,475,o),
(496,558,cs),
(496,658,o),
(416,709,o),
(320,709,cs),
(216,709,o),
(122,647,o),
(82,531,c),
(139,511,l),
(172,608,o),
(250,644,o),
(316,644,cs),
(380,644,o),
(426,610,o),
(426,557,cs),
(426,506,o),
(394,464,o),
(326,419,cs),
(244,365,o),
(196,332,o),
(168,213,c)
);
},
{
closed = 1;
nodes = (
(202,-9,o),
(224,13,o),
(224,42,cs),
(224,70,o),
(202,92,o),
(173,92,cs),
(145,92,o),
(124,70,o),
(124,42,cs),
(124,13,o),
(145,-9,o),
(173,-9,cs)
);
}
);
};
layerId = "B8B1B9F7-57AD-40F6-8824-2C22876E3A5C";
name = "new Layer";
shapes = (
{
closed = 1;
nodes = (
(231,213,l),
(245,293,o),
(301,332,o),
(360,370,cs),
(444,425,o),
(496,475,o),
(496,558,cs),
(496,658,o),
(416,709,o),
(320,709,cs),
(216,709,o),
(122,647,o),
(82,531,c),
(139,511,l),
(172,608,o),
(250,644,o),
(316,644,cs),
(380,644,o),
(426,610,o),
(426,557,cs),
(426,506,o),
(394,464,o),
(326,419,cs),
(244,365,o),
(196,332,o),
(168,213,c)
);
},
{
closed = 1;
nodes = (
(202,-9,o),
(224,13,o),
(224,42,cs),
(224,70,o),
(202,92,o),
(173,92,cs),
(145,92,o),
(124,70,o),
(124,42,cs),
(124,13,o),
(145,-9,o),
(173,-9,cs)
);
}
);
width = 454;
},
{
associatedMasterId = "9CA0F1F1-C419-4983-8E88-5CF3F967428B";
background = {
shapes = (
{
closed = 1;
nodes = (
(326,257,l),
(334,295,o),
(372,312,o),
(417,331,cs),
(510,371,o),
(579,424,o),
(579,538,cs),
(579,640,o),
(487,713,o),
(352,713,cs),
(209,713,o),
(126,632,o),
(77,525,c),
(213,461,l),
(250,543,o),
(290,571,o),
(340,571,cs),
(385,571,o),
(415,552,o),
(415,522,cs),
(415,484,o),
(386,470,o),
(342,449,cs),
(279,419,o),
(197,380,o),
(187,257,c)
);
},
{
closed = 1;
nodes = (
(287,-13,o),
(326,28,o),
(326,85,cs),
(326,142,o),
(287,182,o),
(231,182,cs),
(174,182,o),
(135,142,o),
(135,85,cs),
(135,28,o),
(174,-13,o),
(231,-13,cs)
);
}
);
};
layerId = "2275FDE9-41F5-43D3-856B-3453FC30E713";
name = "new Layer";
shapes = (
{
closed = 1;
nodes = (
(326,257,l),
(334,295,o),
(372,312,o),
(417,331,cs),
(510,371,o),
(579,424,o),
(579,538,cs),
(579,640,o),
(487,713,o),
(352,713,cs),
(209,713,o),
(126,632,o),
(77,525,c),
(213,461,l),
(250,543,o),
(290,571,o),
(340,571,cs),
(385,571,o),
(415,552,o),
(415,522,cs),
(415,484,o),
(386,470,o),
(342,449,cs),
(279,419,o),
(197,380,o),
(187,257,c)
);
},
{
closed = 1;
nodes = (
(287,-13,o),
(326,28,o),
(326,85,cs),
(326,142,o),
(287,182,o),
(231,182,cs),
(174,182,o),
(135,142,o),
(135,85,cs),
(135,28,o),
(174,-13,o),
(231,-13,cs)
);
}
);
width = 551;
},
{
background = {
guides = (
{
angle = 90;
pos = (252,213);
},
{
angle = 38.3675;
pos = (355,443);
}
);
shapes = (
{
closed = 1;
nodes = (
(266,212,l),
(266,290,o),
(305,322,o),
(357,363,cs),
(406,402,o),
(458,444,o),
(458,537,cs),
(458,641,o),
(381,709,o),
(260,709,cs),
(155,709,o),
(70,644,o),
(41,522,c),
(100,507,l),
(128,606,o),
(187,644,o),
(255,644,cs),
(335,644,o),
(388,601,o),
(388,537,cs),
(388,479,o),
(357,444,o),
(317,413,cs),
(264,371,o),
(205,321,o),
(205,212,c)
);
},
{
closed = 1;
nodes = (
(265,-9,o),
(287,13,o),
(287,42,cs),
(287,70,o),
(265,92,o),
(236,92,cs),
(208,92,o),
(187,70,o),
(187,42,cs),
(187,13,o),
(208,-9,o),
(236,-9,cs)
);
}
);
};
guides = (
{
angle = 90;
pos = (252,213);
},
{
angle = 38.3675;
pos = (355,443);
}
);
layerId = "CAEAD647-A533-4D72-9ACE-F5DE50C4DBD4";
shapes = (
{
closed = 1;
nodes = (
(266,212,l),
(266,290,o),
(305,322,o),
(357,363,cs),
(406,402,o),
(458,444,o),
(458,537,cs),
(458,641,o),
(381,709,o),
(260,709,cs),
(155,709,o),
(70,644,o),
(41,522,c),
(100,507,l),
(128,606,o),
(187,644,o),
(255,644,cs),
(335,644,o),
(388,601,o),
(388,537,cs),
(388,479,o),
(357,444,o),
(317,413,cs),
(264,371,o),
(205,321,o),
(205,212,c)
);
},
{
closed = 1;
nodes = (
(265,-9,o),
(287,13,o),
(287,42,cs),
(287,70,o),
(265,92,o),
(236,92,cs),
(208,92,o),
(187,70,o),
(187,42,cs),
(187,13,o),
(208,-9,o),
(236,-9,cs)
);
}
);
width = 512;
},
{
associatedMasterId = "CAEAD647-A533-4D72-9ACE-F5DE50C4DBD4";
background = {
shapes = (
{
closed = 1;
nodes = (
(231,213,l),
(245,293,o),
(301,332,o),
(360,370,cs),
(444,425,o),
(496,475,o),
(496,558,cs),
(496,658,o),
(416,709,o),
(320,709,cs),
(216,709,o),
(122,647,o),
(82,531,c),
(139,511,l),
(172,608,o),
(250,644,o),
(316,644,cs),
(380,644,o),
(426,610,o),
(426,557,cs),
(426,506,o),
(394,464,o),
(326,419,cs),
(244,365,o),
(196,332,o),
(168,213,c)
);
},
{
closed = 1;
nodes = (
(202,-9,o),
(224,13,o),
(224,42,cs),
(224,70,o),
(202,92,o),
(173,92,cs),
(145,92,o),
(124,70,o),
(124,42,cs),
(124,13,o),
(145,-9,o),
(173,-9,cs)
);
}
);
};
layerId = "17715B29-AFFF-4DA4-A5B3-2AD0E6DE30C2";
name = "new Layer";
shapes = (
{
closed = 1;
nodes = (
(231,213,l),
(245,293,o),
(301,332,o),
(360,370,cs),
(444,425,o),
(496,475,o),
(496,558,cs),
(496,658,o),
(416,709,o),
(320,709,cs),
(216,709,o),
(122,647,o),
(82,531,c),
(139,511,l),
(172,608,o),
(250,644,o),
(316,644,cs),
(380,644,o),
(426,610,o),
(426,557,cs),
(426,506,o),
(394,464,o),
(326,419,cs),
(244,365,o),
(196,332,o),
(168,213,c)
);
},
{
closed = 1;
nodes = (
(202,-9,o),
(224,13,o),
(224,42,cs),
(224,70,o),
(202,92,o),
(173,92,cs),
(145,92,o),
(124,70,o),
(124,42,cs),
(124,13,o),
(145,-9,o),
(173,-9,cs)
);
}
);
width = 454;
},
{
associatedMasterId = "CAEAD647-A533-4D72-9ACE-F5DE50C4DBD4";
background = {
shapes = (
{
closed = 1;
nodes = (
(326,257,l),
(334,295,o),
(372,312,o),
(417,331,cs),
(510,371,o),
(579,424,o),
(579,538,cs),
(579,640,o),
(487,713,o),
(352,713,cs),
(209,713,o),
(126,632,o),
(77,525,c),
(213,461,l),
(250,543,o),
(290,571,o),
(340,571,cs),
(385,571,o),
(415,552,o),
(415,522,cs),
(415,484,o),
(386,470,o),
(342,449,cs),
(279,419,o),
(197,380,o),
(187,257,c)
);
},
{
closed = 1;
nodes = (
(287,-13,o),
(326,28,o),
(326,85,cs),
(326,142,o),
(287,182,o),
(231,182,cs),
(174,182,o),
(135,142,o),
(135,85,cs),
(135,28,o),
(174,-13,o),
(231,-13,cs)
);
}
);
};
layerId = "ED634527-0310-4AC8-AB16-474F8070C99E";
name = "new Layer";
shapes = (
{
closed = 1;
nodes = (
(326,257,l),
(334,295,o),
(372,312,o),
(417,331,cs),
(510,371,o),
(579,424,o),
(579,538,cs),
(579,640,o),
(487,713,o),
(352,713,cs),
(209,713,o),
(126,632,o),
(77,525,c),
(213,461,l),
(250,543,o),
(290,571,o),
(340,571,cs),
(385,571,o),
(415,552,o),
(415,522,cs),
(415,484,o),
(386,470,o),
(342,449,cs),
(279,419,o),
(197,380,o),
(187,257,c)
);
},
{
closed = 1;
nodes = (
(287,-13,o),
(326,28,o),
(326,85,cs),
(326,142,o),
(287,182,o),
(231,182,cs),
(174,182,o),
(135,142,o),
(135,85,cs),
(135,28,o),
(174,-13,o),
(231,-13,cs)
);
}
);
width = 551;
},
{
background = {
guides = (
{
angle = 32.6508;
pos = (323,437);
}
);
shapes = (
{
closed = 1;
nodes = (
(359,257,l),
(356,288,o),
(383,308,o),
(418,330,cs),
(486,374,o),
(545,413,o),
(545,511,cs),
(545,634,o),
(450,713,o),
(306,713,cs),
(154,713,o),
(77,625,o),
(38,512,c),
(174,460,l),
(199,540,o),
(244,571,o),
(301,571,cs),
(346,571,o),
(381,551,o),
(381,511,cs),
(381,476,o),
(356,458,o),
(318,434,cs),
(275,406,o),
(218,367,o),
(223,257,c)
);
},
{
closed = 1;
nodes = (
(342,-13,o),
(381,28,o),
(381,85,cs),
(381,142,o),
(342,182,o),
(286,182,cs),
(229,182,o),
(190,142,o),
(190,85,cs),
(190,28,o),
(229,-13,o),
(286,-13,cs)
);
}
);
};
guides = (
{
angle = 32.6508;
pos = (323,437);
}
);
hints = (
{
horizontal = 1;
options = 4;
origin = (1,11);
stem = -1;
target = (1,5);
type = TTStem;
},
{
horizontal = 1;
options = 4;
origin = (0,9);
target = (0,16);
type = TTStem;
},
{
horizontal = 1;
options = 4;
origin = (1,5);
other1 = (0,0);
target = (0,16);
type = TTInterpolate;
},
{
horizontal = 1;
options = 4;
origin = (1,5);
other1 = (0,22);
target = (0,9);
type = TTInterpolate;
},
{
horizontal = 1;
options = 4;
origin = (1,11);
other1 = (0,3);
target = (0,16);
type = TTInterpolate;
}
);
layerId = "474EAD97-6F36-4C8E-8A0A-83C4F7DF9055";
shapes = (
{
closed = 1;
nodes = (
(359,257,l),
(356,288,o),
(383,308,o),
(418,330,cs),
(486,374,o),
(545,413,o),
(545,511,cs),
(545,634,o),
(450,713,o),
(306,713,cs),
(154,713,o),
(77,625,o),
(38,512,c),
(174,460,l),
(199,540,o),
(244,571,o),
(301,571,cs),
(346,571,o),
(381,551,o),
(381,511,cs),
(381,476,o),
(356,458,o),
(318,434,cs),
(275,406,o),
(218,367,o),
(223,257,c)
);
},
{
closed = 1;
nodes = (
(342,-13,o),
(381,28,o),
(381,85,cs),
(381,142,o),
(342,182,o),
(286,182,cs),
(229,182,o),
(190,142,o),
(190,85,cs),
(190,28,o),
(229,-13,o),
(286,-13,cs)
);
}
);
width = 596;
}
);
note = "leicht optimiert";
unicode = 63;
}
{
glyphname = at;
kernLeft = at;
kernRight = at;
layers = (
{
background = {
shapes = (
{
closed = 1;
nodes = (
(504,-150,o),
(600,-122,o),
(672,-39,c),
(630,-1,l),
(575,-68,o),
(493,-94,o),
(411,-94,cs),
(234,-94,o),
(99,41,o),
(99,240,cs),
(99,439,o),
(237,570,o),
(420,570,cs),
(604,570,o),
(742,446,o),
(742,263,cs),
(742,152,o),
(698,92,o),
(640,92,cs),
(586,92,o),
(566,142,o),
(578,205,cs),
(621,426,l),
(561,426,l),
(535,295,l),
(538,249,l),
(516,156,l),
(515,99,o),
(557,37,o),
(637,37,cs),
(734,37,o),
(806,134,o),
(806,263,cs),
(806,474,o),
(642,628,o),
(420,628,cs),
(199,628,o),
(35,467,o),
(35,240,cs),
(35,13,o),
(196,-150,o),
(411,-150,cs)
);
},
{
closed = 1;
nodes = (
(474,57,o),
(545,154,o),
(561,248,c),
(551,248,l),
(569,341,o),
(536,439,o),
(421,439,cs),
(315,439,o),
(220,340,o),
(220,221,cs),
(220,122,o),
(283,57,o),
(365,57,cs)
);
},
{
closed = 1;
nodes = (
(321,114,o),
(284,156,o),
(284,221,cs),
(284,316,o),
(351,382,o),
(429,382,cs),
(491,382,o),
(528,340,o),
(528,275,cs),
(528,180,o),
(462,114,o),
(383,114,cs)
);
}
);
};
layerId = "9CA0F1F1-C419-4983-8E88-5CF3F967428B";
shapes = (
{
closed = 1;
nodes = (
(504,-150,o),
(600,-122,o),
(672,-39,c),
(630,-1,l),
(575,-68,o),
(493,-94,o),
(411,-94,cs),
(234,-94,o),
(99,41,o),
(99,240,cs),
(99,439,o),
(237,570,o),
(420,570,cs),
(604,570,o),
(742,446,o),
(742,263,cs),
(742,152,o),
(698,92,o),
(640,92,cs),
(586,92,o),
(566,142,o),
(578,205,cs),
(621,426,l),
(561,426,l),
(535,295,l),
(538,249,l),
(516,156,l),
(515,99,o),
(557,37,o),
(637,37,cs),
(734,37,o),
(806,134,o),
(806,263,cs),
(806,474,o),
(642,628,o),
(420,628,cs),
(199,628,o),
(35,467,o),
(35,240,cs),
(35,13,o),
(196,-150,o),
(411,-150,cs)
);
},
{
closed = 1;
nodes = (
(474,57,o),
(545,154,o),
(561,248,c),
(551,248,l),
(569,341,o),
(536,439,o),
(421,439,cs),
(315,439,o),
(220,340,o),
(220,221,cs),
(220,122,o),
(283,57,o),
(365,57,cs)
);
},
{
closed = 1;
nodes = (
(321,114,o),
(284,156,o),
(284,221,cs),
(284,316,o),
(351,382,o),
(429,382,cs),
(491,382,o),
(528,340,o),
(528,275,cs),
(528,180,o),
(462,114,o),
(383,114,cs)
);
}
);
width = 845;
},
{
background = {
shapes = (
{
closed = 1;
nodes = (
(528,-163,o),
(605,-144,o),
(681,-59,c),
(590,21,l),
(538,-34,o),
(488,-47,o),
(420,-47,cs),
(277,-47,o),
(160,66,o),
(160,245,cs),
(160,424,o),
(279,537,o),
(436,537,cs),
(592,537,o),
(711,431,o),
(711,288,cs),
(711,192,o),
(675,154,o),
(640,154,cs),
(605,154,o),
(587,181,o),
(597,233,cs),
(633,427,l),
(519,427,l),
(499,319,l),
(499,250,l),
(479,183,l),
(479,126,o),
(514,40,o),
(632,40,cs),
(754,40,o),
(839,143,o),
(839,288,cs),
(839,493,o),
(669,652,o),
(436,652,cs),
(203,652,o),
(29,485,o),
(29,245,cs),
(29,5,o),
(200,-163,o),
(420,-163,cs)
);
},
{
closed = 1;
nodes = (
(457,57,o),
(515,143,o),
(532,250,c),
(512,250,l),
(529,341,o),
(523,445,o),
(410,445,cs),
(311,445,o),
(229,339,o),
(229,220,cs),
(229,130,o),
(284,57,o),
(373,57,cs)
);
},
{
closed = 1;
nodes = (
(377,172,o),
(357,196,o),
(357,233,cs),
(357,280,o),
(387,328,o),
(428,328,cs),
(459,328,o),
(479,304,o),
(479,267,cs),
(479,220,o),
(449,172,o),
(408,172,cs)
);
}
);
};
hints = (
{
horizontal = 1;
options = 4;
origin = (0,12);
other1 = (1,6);
target = (0,6);
type = TTInterpolate;
},
{
horizontal = 1;
options = 4;
origin = (0,35);
stem = 6;
target = (0,12);
type = TTStem;
},
{
horizontal = 1;
options = 4;
origin = (0,41);
stem = 6;
target = (0,6);
type = TTStem;
},
{
horizontal = 1;
options = 8;
origin = (1,6);
stem = 6;
target = (2,5);
type = TTStem;
},
{
horizontal = 1;
options = 8;
origin = (1,6);
other1 = (0,23);
target = (2,5);
type = TTInterpolate;
},
{
horizontal = 1;
options = 8;
origin = (0,29);
stem = 6;
target = (0,18);
type = TTStem;
},
{
horizontal = 1;
options = 4;
origin = (0,6);
other1 = (1,12);
target = (2,5);
type = TTInterpolate;
},
{
horizontal = 1;
options = 8;
origin = (1,12);
stem = 6;
target = (2,11);
type = TTStem;
},
{
horizontal = 1;
options = 8;
origin = (1,12);
target = (0,29);
type = TTShift;
},
{
horizontal = 1;
options = 4;
origin = (0,6);
other1 = (0,3);
target = (0,29);
type = TTInterpolate;
},
{
horizontal = 1;
origin = (0,29);
settings = {
deltaV = {
"{0, 130, 0, 0, 0, 0}" = {
"22" = "4";
"23" = "4";
"24" = "4";
"25" = "4";
"26" = "4";
};
"{0, 176, 0, 0, 0, 0}" = {
"22" = "2";
"23" = "4";
"27" = "6";
"28" = "5";
"29" = "5";
"30" = "6";
};
"{0, 230, 0, 0, 0, 0}" = {
"26" = "4";
"27" = "4";
"28" = "4";
"29" = "4";
"30" = "4";
"31" = "8";
};
"{0, 270, 0, 0, 0, 0}" = {
"26" = "4";
};
"{1, 130, 0, 0, 0, 0}" = {
"22" = "4";
"23" = "4";
"24" = "4";
"25" = "4";
"26" = "4";
"27" = "4";
"28" = "4";
"29" = "0";
};
"{1, 176, 0, 0, 0, 0}" = {
"22" = "4";
"27" = "5";
"28" = "5";
"29" = "4";
"30" = "4";
"31" = "4";
"32" = "4";
"33" = "4";
};
"{1, 230, 0, 0, 0, 0}" = {
"26" = "4";
"27" = "4";
"28" = "4";
"29" = "4";
};
"{1, 270, 0, 0, 0, 0}" = {
"26" = "3";
};
"{1, 310, 0, 0, 0, 0}" = {
"30" = "0";
};
};
};
type = TTDelta;
}
);
layerId = "5500A485-9BC9-4FA7-853B-8075021C5598";
shapes = (
{
closed = 1;
nodes = (
(528,-163,o),
(605,-144,o),
(681,-59,c),
(590,21,l),
(538,-34,o),
(488,-47,o),
(420,-47,cs),
(277,-47,o),
(160,66,o),
(160,245,cs),
(160,424,o),
(279,537,o),
(436,537,cs),
(592,537,o),
(711,431,o),
(711,288,cs),
(711,192,o),
(675,154,o),
(640,154,cs),
(605,154,o),
(587,181,o),
(597,233,cs),
(633,427,l),
(519,427,l),
(499,319,l),
(499,250,l),
(479,183,l),
(479,126,o),
(514,40,o),
(632,40,cs),
(754,40,o),
(839,143,o),
(839,288,cs),
(839,493,o),
(669,652,o),
(436,652,cs),
(203,652,o),
(29,485,o),
(29,245,cs),
(29,5,o),
(200,-163,o),
(420,-163,cs)
);
},
{
closed = 1;
nodes = (
(457,57,o),
(515,143,o),
(532,250,c),
(512,250,l),
(529,341,o),
(523,445,o),
(410,445,cs),
(311,445,o),
(229,339,o),
(229,220,cs),
(229,130,o),
(284,57,o),
(373,57,cs)
);
},
{
closed = 1;
nodes = (
(377,172,o),
(357,196,o),
(357,233,cs),
(357,280,o),
(387,328,o),
(428,328,cs),
(459,328,o),
(479,304,o),
(479,267,cs),
(479,220,o),
(449,172,o),
(408,172,cs)
);
}
);
width = 871;
},
{
associatedMasterId = "9CA0F1F1-C419-4983-8E88-5CF3F967428B";
background = {
shapes = (
{
closed = 1;
nodes = (
(442,-150,o),
(535,-124,o),
(620,-41,c),
(582,-1,l),
(515,-68,o),
(431,-94,o),
(350,-94,cs),
(200,-94,o),
(100,19,o),
(100,168,cs),
(100,382,o),
(260,570,o),
(477,570,cs),
(642,570,o),
(743,472,o),
(743,315,cs),
(743,208,o),
(691,92,o),
(609,92,cs),
(554,92,o),
(548,150,o),
(569,205,cs),
(650,426,l),
(589,426,l),
(541,295,l),
(535,249,l),
(496,138,l),
(496,87,o),
(533,37,o),
(604,37,cs),
(726,37,o),
(807,177,o),
(807,319,cs),
(807,497,o),
(673,628,o),
(479,628,cs),
(228,628,o),
(37,422,o),
(37,173,cs),
(37,-15,o),
(166,-150,o),
(352,-150,cs)
);
},
{
closed = 1;
nodes = (
(450,57,o),
(526,154,o),
(559,248,c),
(565,323,l),
(565,387,o),
(529,439,o),
(446,439,cs),
(325,439,o),
(220,317,o),
(220,196,cs),
(220,115,o),
(274,57,o),
(344,57,cs)
);
},
{
closed = 1;
nodes = (
(312,114,o),
(282,145,o),
(282,194,cs),
(282,284,o),
(359,382,o),
(453,382,cs),
(503,382,o),
(533,351,o),
(533,302,cs),
(533,212,o),
(456,114,o),
(362,114,cs)
);
}
);
};
layerId = "B8B1B9F7-57AD-40F6-8824-2C22876E3A5C";
name = "new Layer";
shapes = (
{
closed = 1;
nodes = (
(442,-150,o),
(535,-124,o),
(620,-41,c),
(582,-1,l),
(515,-68,o),
(431,-94,o),
(350,-94,cs),
(200,-94,o),
(100,19,o),
(100,168,cs),
(100,382,o),
(260,570,o),
(477,570,cs),
(642,570,o),
(743,472,o),
(743,315,cs),
(743,208,o),
(691,92,o),
(609,92,cs),
(554,92,o),
(548,150,o),
(569,205,cs),
(650,426,l),
(589,426,l),
(541,295,l),
(535,249,l),
(496,138,l),
(496,87,o),
(533,37,o),
(604,37,cs),
(726,37,o),
(807,177,o),
(807,319,cs),
(807,497,o),
(673,628,o),
(479,628,cs),
(228,628,o),
(37,422,o),
(37,173,cs),
(37,-15,o),
(166,-150,o),
(352,-150,cs)
);
},
{
closed = 1;
nodes = (
(450,57,o),
(526,154,o),
(559,248,c),
(565,323,l),
(565,387,o),
(529,439,o),
(446,439,cs),
(325,439,o),
(220,317,o),
(220,196,cs),
(220,115,o),
(274,57,o),
(344,57,cs)
);
},
{
closed = 1;
nodes = (
(312,114,o),
(282,145,o),
(282,194,cs),
(282,284,o),
(359,382,o),
(453,382,cs),
(503,382,o),
(533,351,o),
(533,302,cs),
(533,212,o),
(456,114,o),
(362,114,cs)
);
}
);
width = 846;
},
{
associatedMasterId = "9CA0F1F1-C419-4983-8E88-5CF3F967428B";
background = {
shapes = (
{
closed = 1;
nodes = (
(483,-163,o),
(550,-136,o),
(623,-74,c),
(545,20,l),
(492,-25,o),
(442,-47,o),
(376,-47,cs),
(247,-47,o),
(164,36,o),
(164,181,cs),
(164,362,o),
(295,537,o),
(489,537,cs),
(622,537,o),
(715,452,o),
(715,332,cs),
(715,263,o),
(679,154,o),
(619,154,cs),
(582,154,o),
(575,188,o),
(592,233,cs),
(662,427,l),
(545,427,l),
(507,319,l),
(494,250,l),
(462,162,l),
(462,107,o),
(498,40,o),
(601,40,cs),
(750,40,o),
(843,184,o),
(843,339,cs),
(843,515,o),
(704,652,o),
(499,652,cs),
(228,652,o),
(31,431,o),
(31,179,cs),
(31,-26,o),
(161,-163,o),
(384,-163,cs)
);
},
{
closed = 1;
nodes = (
(439,57,o),
(494,143,o),
(530,250,c),
(532,351,l),
(532,404,o),
(508,445,o),
(438,445,cs),
(325,445,o),
(228,311,o),
(228,195,cs),
(228,120,o),
(273,57,o),
(349,57,cs)
);
},
{
closed = 1;
nodes = (
(373,172,o),
(360,190,o),
(360,218,cs),
(360,270,o),
(400,328,o),
(441,328,cs),
(466,328,o),
(479,310,o),
(479,282,cs),
(479,230,o),
(439,172,o),
(398,172,cs)
);
}
);
};
layerId = "2275FDE9-41F5-43D3-856B-3453FC30E713";
name = "new Layer";
shapes = (
{
closed = 1;
nodes = (
(483,-163,o),
(550,-136,o),
(623,-74,c),
(545,20,l),
(492,-25,o),
(442,-47,o),
(376,-47,cs),
(247,-47,o),
(164,36,o),
(164,181,cs),
(164,362,o),
(295,537,o),
(489,537,cs),
(622,537,o),
(715,452,o),
(715,332,cs),
(715,263,o),
(679,154,o),
(619,154,cs),
(582,154,o),
(575,188,o),
(592,233,cs),
(662,427,l),
(545,427,l),
(507,319,l),
(494,250,l),
(462,162,l),
(462,107,o),
(498,40,o),
(601,40,cs),
(750,40,o),
(843,184,o),
(843,339,cs),
(843,515,o),
(704,652,o),
(499,652,cs),
(228,652,o),
(31,431,o),
(31,179,cs),
(31,-26,o),
(161,-163,o),
(384,-163,cs)
);
},
{
closed = 1;
nodes = (
(439,57,o),
(494,143,o),
(530,250,c),
(532,351,l),
(532,404,o),
(508,445,o),
(438,445,cs),
(325,445,o),
(228,311,o),
(228,195,cs),
(228,120,o),
(273,57,o),
(349,57,cs)
);
},
{
closed = 1;
nodes = (
(373,172,o),
(360,190,o),
(360,218,cs),
(360,270,o),
(400,328,o),
(441,328,cs),
(466,328,o),
(479,310,o),
(479,282,cs),
(479,230,o),
(439,172,o),
(398,172,cs)
);
}
);
width = 873;
},
{
background = {
shapes = (
{
closed = 1;
nodes = (
(524,-150,o),
(620,-122,o),
(692,-39,c),
(650,-1,l),
(595,-68,o),
(513,-94,o),
(431,-94,cs),
(254,-94,o),
(119,41,o),
(119,240,cs),
(119,439,o),
(257,570,o),
(440,570,cs),
(624,570,o),
(762,446,o),
(762,263,cs),
(762,152,o),
(718,92,o),
(660,92,cs),
(606,92,o),
(586,142,o),
(598,205,cs),
(641,426,l),
(581,426,l),
(555,295,l),
(558,249,l),
(536,156,l),
(535,99,o),
(577,37,o),
(657,37,cs),
(754,37,o),
(826,134,o),
(826,263,cs),
(826,474,o),
(662,628,o),
(440,628,cs),
(219,628,o),
(55,467,o),
(55,240,cs),
(55,13,o),
(216,-150,o),
(431,-150,cs)
);
},
{
closed = 1;
nodes = (
(494,57,o),
(565,154,o),
(581,248,c),
(571,248,l),
(589,341,o),
(556,439,o),
(441,439,cs),
(335,439,o),
(240,340,o),
(240,221,cs),
(240,122,o),
(303,57,o),
(385,57,cs)
);
},
{
closed = 1;
nodes = (
(341,114,o),
(304,156,o),
(304,221,cs),
(304,316,o),
(371,382,o),
(449,382,cs),
(511,382,o),
(548,340,o),
(548,275,cs),
(548,180,o),
(482,114,o),
(403,114,cs)
);
}
);
};
layerId = "CAEAD647-A533-4D72-9ACE-F5DE50C4DBD4";
shapes = (
{
closed = 1;
nodes = (
(524,-150,o),
(620,-122,o),
(692,-39,c),
(650,-1,l),
(595,-68,o),
(513,-94,o),
(431,-94,cs),
(254,-94,o),
(119,41,o),
(119,240,cs),
(119,439,o),
(257,570,o),
(440,570,cs),
(624,570,o),
(762,446,o),
(762,263,cs),
(762,152,o),
(718,92,o),
(660,92,cs),
(606,92,o),
(586,142,o),
(598,205,cs),
(641,426,l),
(581,426,l),
(555,295,l),
(558,249,l),
(536,156,l),
(535,99,o),
(577,37,o),
(657,37,cs),
(754,37,o),
(826,134,o),
(826,263,cs),
(826,474,o),
(662,628,o),
(440,628,cs),
(219,628,o),
(55,467,o),
(55,240,cs),
(55,13,o),
(216,-150,o),
(431,-150,cs)
);
},
{
closed = 1;
nodes = (
(494,57,o),
(565,154,o),
(581,248,c),
(571,248,l),
(589,341,o),
(556,439,o),
(441,439,cs),
(335,439,o),
(240,340,o),
(240,221,cs),
(240,122,o),
(303,57,o),
(385,57,cs)
);
},
{
closed = 1;
nodes = (
(341,114,o),
(304,156,o),
(304,221,cs),
(304,316,o),
(371,382,o),
(449,382,cs),
(511,382,o),
(548,340,o),
(548,275,cs),
(548,180,o),
(482,114,o),
(403,114,cs)
);
}
);
width = 885;
},
{
associatedMasterId = "CAEAD647-A533-4D72-9ACE-F5DE50C4DBD4";
background = {
shapes = (
{
closed = 1;
nodes = (
(408,-150,o),
(475,-137,o),
(538,-98,c),
(511,-50,l),
(457,-81,o),
(399,-94,o),
(342,-94,cs),
(192,-94,o),
(92,19,o),
(92,168,cs),
(92,382,o),
(252,570,o),
(469,570,cs),
(634,570,o),
(735,472,o),
(735,315,cs),
(735,208,o),
(683,92,o),
(601,92,cs),
(546,92,o),
(540,150,o),
(561,205,cs),
(642,426,l),
(581,426,l),
(533,295,l),
(527,249,l),
(488,138,l),
(488,87,o),
(525,37,o),
(596,37,cs),
(718,37,o),
(799,177,o),
(799,319,cs),
(799,497,o),
(665,628,o),
(471,628,cs),
(220,628,o),
(29,422,o),
(29,173,cs),
(29,-15,o),
(158,-150,o),
(344,-150,cs)
);
},
{
closed = 1;
nodes = (
(442,57,o),
(518,154,o),
(551,248,c),
(557,323,l),
(557,387,o),
(521,439,o),
(438,439,cs),
(317,439,o),
(212,317,o),
(212,196,cs),
(212,115,o),
(266,57,o),
(336,57,cs)
);
},
{
closed = 1;
nodes = (
(304,114,o),
(274,145,o),
(274,194,cs),
(274,284,o),
(351,382,o),
(445,382,cs),
(495,382,o),
(525,351,o),
(525,302,cs),
(525,212,o),
(448,114,o),
(354,114,cs)
);
}
);
};
color = 5;
layerId = "F98BC4FE-6E09-4ECE-BFCA-FCE769C484CA";
name = "new Layer";
shapes = (
{
closed = 1;
nodes = (
(408,-150,o),
(475,-137,o),
(538,-98,c),
(511,-50,l),
(457,-81,o),
(399,-94,o),
(342,-94,cs),
(192,-94,o),
(92,19,o),
(92,168,cs),
(92,382,o),
(252,570,o),
(469,570,cs),
(634,570,o),
(735,472,o),
(735,315,cs),
(735,208,o),
(683,92,o),
(601,92,cs),
(546,92,o),
(540,150,o),
(561,205,cs),
(642,426,l),
(581,426,l),
(533,295,l),
(527,249,l),
(488,138,l),
(488,87,o),
(525,37,o),
(596,37,cs),
(718,37,o),
(799,177,o),
(799,319,cs),
(799,497,o),
(665,628,o),
(471,628,cs),
(220,628,o),
(29,422,o),
(29,173,cs),
(29,-15,o),
(158,-150,o),
(344,-150,cs)
);
},
{
closed = 1;
nodes = (
(442,57,o),
(518,154,o),
(551,248,c),
(557,323,l),
(557,387,o),
(521,439,o),
(438,439,cs),
(317,439,o),
(212,317,o),
(212,196,cs),
(212,115,o),
(266,57,o),
(336,57,cs)
);
},
{
closed = 1;
nodes = (
(304,114,o),
(274,145,o),
(274,194,cs),
(274,284,o),
(351,382,o),
(445,382,cs),
(495,382,o),
(525,351,o),
(525,302,cs),
(525,212,o),
(448,114,o),
(354,114,cs)
);
}
);
width = 834;
},
{
associatedMasterId = "CAEAD647-A533-4D72-9ACE-F5DE50C4DBD4";
background = {
shapes = (
{
closed = 1;
nodes = (
(448,-163,o),
(504,-147,o),
(558,-113,c),
(500,-8,l),
(459,-34,o),
(417,-47,o),
(366,-47,cs),
(237,-47,o),
(154,36,o),
(154,181,cs),
(154,362,o),
(285,537,o),
(479,537,cs),
(612,537,o),
(705,452,o),
(705,332,cs),
(705,263,o),
(669,154,o),
(609,154,cs),
(572,154,o),
(565,188,o),
(582,233,cs),
(652,427,l),
(535,427,l),
(497,319,l),
(484,250,l),
(452,162,l),
(452,107,o),
(488,40,o),
(591,40,cs),
(740,40,o),
(833,184,o),
(833,339,cs),
(833,515,o),
(694,652,o),
(489,652,cs),
(218,652,o),
(21,431,o),
(21,179,cs),
(21,-26,o),
(151,-163,o),
(374,-163,cs)
);
},
{
closed = 1;
nodes = (
(429,57,o),
(484,143,o),
(520,250,c),
(522,351,l),
(522,404,o),
(498,445,o),
(428,445,cs),
(315,445,o),
(218,311,o),
(218,195,cs),
(218,120,o),
(263,57,o),
(339,57,cs)
);
},
{
closed = 1;
nodes = (
(363,172,o),
(350,190,o),
(350,218,cs),
(350,270,o),
(390,328,o),
(431,328,cs),
(456,328,o),
(469,310,o),
(469,282,cs),
(469,230,o),
(429,172,o),
(388,172,cs)
);
}
);
};
layerId = "070A7150-AF84-4AE5-BCFE-41A91EBBBE63";
name = "new Layer";
shapes = (
{
closed = 1;
nodes = (
(448,-163,o),
(504,-147,o),
(558,-113,c),
(500,-8,l),
(459,-34,o),
(417,-47,o),
(366,-47,cs),
(237,-47,o),
(154,36,o),
(154,181,cs),
(154,362,o),
(285,537,o),
(479,537,cs),
(612,537,o),
(705,452,o),
(705,332,cs),
(705,263,o),
(669,154,o),
(609,154,cs),
(572,154,o),
(565,188,o),
(582,233,cs),
(652,427,l),
(535,427,l),
(497,319,l),
(484,250,l),
(452,162,l),
(452,107,o),
(488,40,o),
(591,40,cs),
(740,40,o),
(833,184,o),
(833,339,cs),
(833,515,o),
(694,652,o),
(489,652,cs),
(218,652,o),
(21,431,o),
(21,179,cs),
(21,-26,o),
(151,-163,o),
(374,-163,cs)
);
},
{
closed = 1;
nodes = (
(429,57,o),
(484,143,o),
(520,250,c),
(522,351,l),
(522,404,o),
(498,445,o),
(428,445,cs),
(315,445,o),
(218,311,o),
(218,195,cs),
(218,120,o),
(263,57,o),
(339,57,cs)
);
},
{
closed = 1;
nodes = (
(363,172,o),
(350,190,o),
(350,218,cs),
(350,270,o),
(390,328,o),
(431,328,cs),
(456,328,o),
(469,310,o),
(469,282,cs),
(469,230,o),
(429,172,o),
(388,172,cs)
);
}
);
width = 858;
},
{
background = {
shapes = (
{
closed = 1;
nodes = (
(548,-163,o),
(625,-144,o),
(701,-59,c),
(610,21,l),
(558,-34,o),
(508,-47,o),
(440,-47,cs),
(297,-47,o),
(180,66,o),
(180,245,cs),
(180,424,o),
(299,537,o),
(456,537,cs),
(612,537,o),
(731,431,o),
(731,288,cs),
(731,192,o),
(695,154,o),
(660,154,cs),
(625,154,o),
(607,181,o),
(617,233,cs),
(653,427,l),
(539,427,l),
(519,319,l),
(519,250,l),
(499,183,l),
(499,126,o),
(534,40,o),
(652,40,cs),
(774,40,o),
(859,143,o),
(859,288,cs),
(859,493,o),
(689,652,o),
(456,652,cs),
(223,652,o),
(49,485,o),
(49,245,cs),
(49,5,o),
(220,-163,o),
(440,-163,cs)
);
},
{
closed = 1;
nodes = (
(477,57,o),
(535,143,o),
(552,250,c),
(532,250,l),
(549,341,o),
(543,445,o),
(430,445,cs),
(331,445,o),
(249,339,o),
(249,220,cs),
(249,130,o),
(304,57,o),
(393,57,cs)
);
},
{
closed = 1;
nodes = (
(397,172,o),
(377,196,o),
(377,233,cs),
(377,280,o),
(407,328,o),
(448,328,cs),
(479,328,o),
(499,304,o),
(499,267,cs),
(499,220,o),
(469,172,o),
(428,172,cs)
);
}
);
};
hints = (
{
horizontal = 1;
options = 4;
origin = (0,12);
other1 = (1,6);
target = (0,6);
type = TTInterpolate;
},
{
horizontal = 1;
options = 4;
origin = (0,35);
stem = 6;
target = (0,12);
type = TTStem;
},
{
horizontal = 1;
options = 4;
origin = (0,41);
stem = 6;
target = (0,6);
type = TTStem;
},
{
horizontal = 1;
options = 8;
origin = (1,6);
stem = 6;
target = (2,5);
type = TTStem;
},
{
horizontal = 1;
options = 8;
origin = (1,6);
other1 = (0,23);
target = (2,5);
type = TTInterpolate;
},
{
horizontal = 1;
options = 8;
origin = (0,29);
stem = 6;
target = (0,18);
type = TTStem;
},
{
horizontal = 1;
options = 4;
origin = (0,6);
other1 = (1,12);
target = (2,5);
type = TTInterpolate;
},
{
horizontal = 1;
options = 8;
origin = (1,12);
stem = 6;
target = (2,11);
type = TTStem;
},
{
horizontal = 1;
options = 8;
origin = (1,12);
target = (0,29);
type = TTShift;
},
{
horizontal = 1;
options = 4;
origin = (0,6);
other1 = (0,3);
target = (0,29);
type = TTInterpolate;
},
{
horizontal = 1;
origin = (0,29);
settings = {
deltaV = {
"{0, 130, 0, 0, 0, 0}" = {
"22" = "4";
"23" = "4";
"24" = "4";
"25" = "4";
"26" = "4";
};
"{0, 176, 0, 0, 0, 0}" = {
"22" = "2";
"23" = "4";
"27" = "6";
"28" = "5";
"29" = "5";
"30" = "6";
};
"{0, 230, 0, 0, 0, 0}" = {
"26" = "4";
"27" = "4";
"28" = "4";
"29" = "4";
"30" = "4";
"31" = "8";
};
"{0, 270, 0, 0, 0, 0}" = {
"26" = "4";
};
"{1, 130, 0, 0, 0, 0}" = {
"22" = "4";
"23" = "4";
"24" = "4";
"25" = "4";
"26" = "4";
"27" = "4";
"28" = "4";
"29" = "0";
};
"{1, 176, 0, 0, 0, 0}" = {
"22" = "4";
"27" = "5";
"28" = "5";
"29" = "4";
"30" = "4";
"31" = "4";
"32" = "4";
"33" = "4";
};
"{1, 230, 0, 0, 0, 0}" = {
"26" = "4";
"27" = "4";
"28" = "4";
"29" = "4";
};
"{1, 270, 0, 0, 0, 0}" = {
"26" = "3";
};
"{1, 310, 0, 0, 0, 0}" = {
"30" = "0";
};
};
};
type = TTDelta;
}
);
layerId = "474EAD97-6F36-4C8E-8A0A-83C4F7DF9055";
shapes = (
{
closed = 1;
nodes = (
(548,-163,o),
(625,-144,o),
(701,-59,c),
(610,21,l),
(558,-34,o),
(508,-47,o),
(440,-47,cs),
(297,-47,o),
(180,66,o),
(180,245,cs),
(180,424,o),
(299,537,o),
(456,537,cs),
(612,537,o),
(731,431,o),
(731,288,cs),
(731,192,o),
(695,154,o),
(660,154,cs),
(625,154,o),
(607,181,o),
(617,233,cs),
(653,427,l),
(539,427,l),
(519,319,l),
(519,250,l),
(499,183,l),
(499,126,o),
(534,40,o),
(652,40,cs),
(774,40,o),
(859,143,o),
(859,288,cs),
(859,493,o),
(689,652,o),
(456,652,cs),
(223,652,o),
(49,485,o),
(49,245,cs),
(49,5,o),
(220,-163,o),
(440,-163,cs)
);
},
{
closed = 1;
nodes = (
(477,57,o),
(535,143,o),
(552,250,c),
(532,250,l),
(549,341,o),
(543,445,o),
(430,445,cs),
(331,445,o),
(249,339,o),
(249,220,cs),
(249,130,o),
(304,57,o),
(393,57,cs)
);
},
{
closed = 1;
nodes = (
(397,172,o),
(377,196,o),
(377,233,cs),
(377,280,o),
(407,328,o),
(448,328,cs),
(479,328,o),
(499,304,o),
(499,267,cs),
(499,220,o),
(469,172,o),
(428,172,cs)
);
}
);
width = 911;
}
);
unicode = 64;
}
{
glyphname = bracketleft;
layers = (
{
background = {
shapes = (
{
closed = 1;
nodes = (
(69,700,l),
(69,-132,l),
(133,-132,l),
(133,700,l)
);
},
{
closed = 1;
nodes = (
(96,700,l),
(96,642,l),
(248,642,l),
(248,700,l)
);
},
{
closed = 1;
nodes = (
(96,-73,l),
(96,-132,l),
(248,-132,l),
(248,-73,l)
);
}
);
};
layerId = "9CA0F1F1-C419-4983-8E88-5CF3F967428B";
shapes = (
{
closed = 1;
nodes = (
(69,700,l),
(69,-132,l),
(133,-132,l),
(133,700,l)
);
},
{
closed = 1;
nodes = (
(96,700,l),
(96,642,l),
(248,642,l),
(248,700,l)
);
},
{
closed = 1;
nodes = (
(96,-73,l),
(96,-132,l),
(248,-132,l),
(248,-73,l)
);
}
);
width = 265;
},
{
background = {
shapes = (
{
closed = 1;
nodes = (
(56,700,l),
(56,-132,l),
(204,-132,l),
(204,700,l)
);
},
{
closed = 1;
nodes = (
(119,700,l),
(119,568,l),
(316,568,l),
(316,700,l)
);
},
{
closed = 1;
nodes = (
(119,0,l),
(119,-132,l),
(316,-132,l),
(316,0,l)
);
}
);
};
hints = (
{
horizontal = 1;
options = 4;
origin = (1,3);
target = (1,2);
type = TTStem;
},
{
horizontal = 1;
options = 4;
origin = (2,2);
target = (2,3);
type = TTStem;
}
);
layerId = "5500A485-9BC9-4FA7-853B-8075021C5598";
shapes = (
{
closed = 1;
nodes = (
(56,700,l),
(56,-132,l),
(204,-132,l),
(204,700,l)
);
},
{
closed = 1;
nodes = (
(119,700,l),
(119,568,l),
(316,568,l),
(316,700,l)
);
},
{
closed = 1;
nodes = (
(119,0,l),
(119,-132,l),
(316,-132,l),
(316,0,l)
);
}
);
width = 342;
},
{
associatedMasterId = "9CA0F1F1-C419-4983-8E88-5CF3F967428B";
background = {
shapes = (
{
closed = 1;
nodes = (
(180,700,l),
(-28,-132,l),
(38,-132,l),
(246,700,l)
);
},
{
closed = 1;
nodes = (
(208,700,l),
(193,642,l),
(344,642,l),
(359,700,l)
);
},
{
closed = 1;
nodes = (
(15,-73,l),
(0,-132,l),
(151,-132,l),
(166,-73,l)
);
}
);
};
layerId = "B8B1B9F7-57AD-40F6-8824-2C22876E3A5C";
name = "new Layer";
shapes = (
{
closed = 1;
nodes = (
(180,700,l),
(-28,-132,l),
(38,-132,l),
(246,700,l)
);
},
{
closed = 1;
nodes = (
(208,700,l),
(193,642,l),
(344,642,l),
(359,700,l)
);
},
{
closed = 1;
nodes = (
(15,-73,l),
(0,-132,l),
(151,-132,l),
(166,-73,l)
);
}
);
width = 264;
},
{
associatedMasterId = "9CA0F1F1-C419-4983-8E88-5CF3F967428B";
background = {
shapes = (
{
closed = 1;
nodes = (
(165,700,l),
(-43,-132,l),
(107,-132,l),
(315,700,l)
);
},
{
closed = 1;
nodes = (
(228,700,l),
(195,568,l),
(392,568,l),
(425,700,l)
);
},
{
closed = 1;
nodes = (
(53,0,l),
(20,-132,l),
(217,-132,l),
(250,0,l)
);
}
);
};
layerId = "2275FDE9-41F5-43D3-856B-3453FC30E713";
name = "new Layer";
shapes = (
{
closed = 1;
nodes = (
(165,700,l),
(-43,-132,l),
(107,-132,l),
(315,700,l)
);
},
{
closed = 1;
nodes = (
(228,700,l),
(195,568,l),
(392,568,l),
(425,700,l)
);
},
{
closed = 1;
nodes = (
(53,0,l),
(20,-132,l),
(217,-132,l),
(250,0,l)
);
}
);
width = 344;
},
{
background = {
shapes = (
{
closed = 1;
nodes = (
(89,700,l),
(89,-132,l),
(153,-132,l),
(153,700,l)
);
},
{
closed = 1;
nodes = (
(116,700,l),
(116,642,l),
(268,642,l),
(268,700,l)
);
},
{
closed = 1;
nodes = (
(116,-73,l),
(116,-132,l),
(268,-132,l),
(268,-73,l)
);
}
);
};
layerId = "CAEAD647-A533-4D72-9ACE-F5DE50C4DBD4";
shapes = (
{
closed = 1;
nodes = (
(89,700,l),
(89,-132,l),
(153,-132,l),
(153,700,l)
);
},
{
closed = 1;
nodes = (
(116,700,l),
(116,642,l),
(268,642,l),
(268,700,l)
);
},
{
closed = 1;
nodes = (
(116,-73,l),
(116,-132,l),
(268,-132,l),
(268,-73,l)
);
}
);
width = 305;
},
{
associatedMasterId = "CAEAD647-A533-4D72-9ACE-F5DE50C4DBD4";
background = {
shapes = (
{
closed = 1;
nodes = (
(180,700,l),
(-28,-132,l),
(38,-132,l),
(246,700,l)
);
},
{
closed = 1;
nodes = (
(208,700,l),
(193,642,l),
(344,642,l),
(359,700,l)
);
},
{
closed = 1;
nodes = (
(15,-73,l),
(0,-132,l),
(151,-132,l),
(166,-73,l)
);
}
);
};
layerId = "23A4F2FE-CD7F-453D-B373-BD5699F57E0E";
name = "new Layer";
shapes = (
{
closed = 1;
nodes = (
(180,700,l),
(-28,-132,l),
(38,-132,l),
(246,700,l)
);
},
{
closed = 1;
nodes = (
(208,700,l),
(193,642,l),
(344,642,l),
(359,700,l)
);
},
{
closed = 1;
nodes = (
(15,-73,l),
(0,-132,l),
(151,-132,l),
(166,-73,l)
);
}
);
width = 264;
},
{
associatedMasterId = "CAEAD647-A533-4D72-9ACE-F5DE50C4DBD4";
background = {
shapes = (
{
closed = 1;
nodes = (
(165,700,l),
(-43,-132,l),
(107,-132,l),
(315,700,l)
);
},
{
closed = 1;
nodes = (
(228,700,l),
(195,568,l),
(392,568,l),
(425,700,l)
);
},
{
closed = 1;
nodes = (
(53,0,l),
(20,-132,l),
(217,-132,l),
(250,0,l)
);
}
);
};
layerId = "9660373E-2C2D-4265-B649-11188568F881";
name = "new Layer";
shapes = (
{
closed = 1;
nodes = (
(165,700,l),
(-43,-132,l),
(107,-132,l),
(315,700,l)
);
},
{
closed = 1;
nodes = (
(228,700,l),
(195,568,l),
(392,568,l),
(425,700,l)
);
},
{
closed = 1;
nodes = (
(53,0,l),
(20,-132,l),
(217,-132,l),
(250,0,l)
);
}
);
width = 344;
},
{
background = {
shapes = (
{
closed = 1;
nodes = (
(76,700,l),
(76,-132,l),
(224,-132,l),
(224,700,l)
);
},
{
closed = 1;
nodes = (
(139,700,l),
(139,568,l),
(336,568,l),
(336,700,l)
);
},
{
closed = 1;
nodes = (
(139,0,l),
(139,-132,l),
(336,-132,l),
(336,0,l)
);
}
);
};
hints = (
{
horizontal = 1;
options = 4;
origin = (1,3);
target = (1,2);
type = TTStem;
},
{
horizontal = 1;
options = 4;
origin = (2,2);
target = (2,3);
type = TTStem;
}
);
layerId = "474EAD97-6F36-4C8E-8A0A-83C4F7DF9055";
shapes = (
{
closed = 1;
nodes = (
(76,700,l),
(76,-132,l),
(224,-132,l),
(224,700,l)
);
},
{
closed = 1;
nodes = (
(139,700,l),
(139,568,l),
(336,568,l),
(336,700,l)
);
},
{
closed = 1;
nodes = (
(139,0,l),
(139,-132,l),
(336,-132,l),
(336,0,l)
);
}
);
width = 382;
}
);
unicode = 91;
}
